<svg width="328" height="287" viewBox="0 0 328 287" fill="none" xmlns="http://www.w3.org/2000/svg">
<path d="M172.628 16.3252H247.306C249.515 16.3252 251.306 18.1161 251.306 20.3252V89.1821C251.306 91.3912 249.515 93.1821 247.306 93.1821H172.628C170.418 93.1821 168.628 91.3912 168.628 89.1821V20.3252C168.628 18.1161 170.418 16.3252 172.628 16.3252Z" fill="#112B46"/>
<path d="M172.628 16.3252H247.306C249.515 16.3252 251.306 18.1161 251.306 20.3252V20.454C251.306 22.6632 249.515 24.454 247.306 24.454H172.628C170.418 24.454 168.628 22.6632 168.628 20.454V20.3252C168.628 18.1161 170.418 16.3252 172.628 16.3252Z" fill="#1D262D"/>
<path d="M186.502 20.4868C186.502 21.3056 187.172 21.9809 188.002 21.9809C188.833 21.9809 189.503 21.314 189.503 20.4868C189.503 19.6595 188.833 18.9927 188.002 18.9927C187.172 18.9927 186.502 19.6595 186.502 20.4868Z" fill="#606BF1"/>
<path d="M180.256 20.4868C180.256 21.3056 180.925 21.9809 181.756 21.9809C182.578 21.9809 183.256 21.314 183.256 20.4868C183.256 19.6595 182.587 18.9927 181.756 18.9927C180.925 18.9927 180.256 19.6595 180.256 20.4868Z" fill="#F4E041"/>
<path d="M174.45 20.6386C174.45 21.4574 175.12 22.1327 175.95 22.1327C176.781 22.1327 177.451 21.4659 177.451 20.6386C177.451 19.8198 176.781 19.1445 175.95 19.1445C175.12 19.153 174.45 19.8198 174.45 20.6386Z" fill="#EA5924"/>
<path d="M224.896 32.0088H236.609V32.988H224.896V32.0088Z" fill="#EA5924"/>
<path d="M211.149 32.0088H222.862V32.988H211.149V32.0088Z" fill="#F4E041"/>
<path d="M214.819 37.293H232.982V38.2721H214.819V37.293Z" fill="#606BF1"/>
<path d="M202.589 37.293H211.818V38.2721H202.589V37.293Z" fill="#EA5924"/>
<path d="M218.709 42.5771H226.684V43.5563H218.709V42.5771Z" fill="#F4E041"/>
<path d="M187.638 42.5771H214.098V43.5563H187.638V42.5771Z" fill="#F4E041"/>
<path d="M190.248 47.8528H220.489V48.832H190.248V47.8528Z" fill="#606BF1"/>
<path d="M218.743 53.137H228.049V54.1161H218.743V53.137Z" fill="#EA5924"/>
<path d="M205.453 53.137H214.759V54.1161H205.453V53.137Z" fill="#606BF1"/>
<path d="M223.074 80.5288H236.609V81.508H223.074V80.5288Z" fill="#EA5924"/>
<path d="M204.792 80.5288H218.328V81.508H204.792V80.5288Z" fill="#F4E041"/>
<path d="M187.002 80.5288H200.538V81.508H187.002V80.5288Z" fill="#EA5924"/>
<path d="M206.521 75.2529H232.982V76.2321H206.521V75.2529Z" fill="#606BF1"/>
<path d="M175.942 75.2529H202.402V76.2321H175.942V75.2529Z" fill="#EA5924"/>
<path d="M200.427 69.9688H226.684V70.9479H200.427V69.9688Z" fill="#EA5924"/>
<path d="M190.833 69.9688H198.139V70.9479H190.833V69.9688Z" fill="#F4E041"/>
<path d="M218.514 64.6931H228.396V65.6723H218.514V64.6931Z" fill="#F4E041"/>
<path d="M203.385 64.6931H213.268V65.6723H203.385V64.6931Z" fill="#606BF1"/>
<path d="M187.146 64.6931H197.029V65.6723H187.146V64.6931Z" fill="#EA5924"/>
<path d="M203.089 59.4089H216.946V60.3881H203.089V59.4089Z" fill="#F4E041"/>
<path d="M222.175 59.4089H236.033V60.3881H222.175V59.4089Z" fill="#606BF1"/>
<path d="M243.008 31.072H244.271V32.3298H243.008V31.072Z" fill="#F9FBFC"/>
<path d="M243.008 77.1101H244.271V74.5524H243.008V77.1101ZM243.008 70.7117H244.271V68.154H243.008V70.7117ZM243.008 64.3133H244.271V61.7556H243.008V64.3133ZM243.008 57.9149H244.271V55.3572H243.008V57.9149ZM243.008 51.5165H244.271V48.9588H243.008V51.5165ZM243.008 45.1265H244.271V42.5688H243.008V45.1265ZM243.008 38.7281H244.271V36.1704H243.008V38.7281Z" fill="#F9FBFC"/>
<path d="M243.008 80.9509H244.271V82.2087H243.008V80.9509Z" fill="#F9FBFC"/>
<path d="M86.7543 0H146.838C149.047 0 150.838 1.79086 150.838 4V37.7923C150.838 40.0014 149.047 41.7923 146.838 41.7923H86.7543C84.5451 41.7923 82.7543 40.0014 82.7543 37.7923V4C82.7543 1.79086 84.5451 0 86.7543 0Z" fill="#EA5924"/>
<path d="M124.394 16.8147L132.497 20.2587L124.394 23.6521L125.454 26.0916L135.167 21.7697V18.7815L125.454 14.4343L124.394 16.8147Z" fill="#F9FBFC"/>
<path d="M112.461 8.84633L118.343 31.3421L121.14 30.6921L115.232 8.22168L112.461 8.84633Z" fill="#F9FBFC"/>
<path d="M98.4 18.7731V21.7613L108.113 26.0832L109.172 23.6437L101.095 20.2503L109.172 16.8063L108.113 14.4175L98.4 18.7731Z" fill="#F9FBFC"/>
<path d="M50.3183 80.9763H81.0935C83.3026 80.9763 85.0935 82.7672 85.0935 84.9763V104.495C85.0935 106.704 83.3026 108.495 81.0935 108.495H50.3183C48.1092 108.495 46.3183 106.704 46.3183 104.495V84.9763C46.3183 82.7672 48.1092 80.9763 50.3183 80.9763Z" fill="#606BF1"/>
<path d="M68.8715 86.9106C70.1174 86.9106 70.5327 87.2482 70.5327 88.1767V92.3214C70.5327 93.9421 71.2022 94.4316 72.338 94.744C71.2107 95.0394 70.5327 95.529 70.5327 97.1328V101.277C70.5327 102.206 70.1004 102.544 68.8715 102.544V104.358C72.0159 104.358 72.9143 103.354 72.9143 101.261V97.3354C72.9143 96.2127 73.2109 95.7738 74.2365 95.7738V93.6973C73.2109 93.6973 72.9143 93.2414 72.9143 92.1188V88.1936C72.9143 86.0833 72.0244 85.0957 68.8715 85.0957V86.9106Z" fill="#F1F2F2"/>
<path d="M58.4975 88.1935V92.1187C58.4975 93.2413 58.2009 93.6972 57.1499 93.6972V95.7652C58.2009 95.7652 58.4975 96.1957 58.4975 97.3269V101.252C58.4975 103.345 59.3875 104.35 62.5403 104.35V102.535C61.3114 102.535 60.8791 102.197 60.8791 101.269V97.1243C60.8791 95.5289 60.2096 95.0309 59.0739 94.7354C60.2011 94.4231 60.8791 93.9251 60.8791 92.3128V88.1682C60.8791 87.2397 61.2945 86.902 62.5403 86.902V85.0872C59.3875 85.0956 58.4975 86.0832 58.4975 88.1935Z" fill="#F1F2F2"/>
<path d="M238.117 5.99316H273.622C275.831 5.99316 277.622 7.78402 277.622 9.99316V30.9717C277.622 33.1809 275.831 34.9717 273.622 34.9717H238.117C235.908 34.9717 234.117 33.1809 234.117 30.9717V9.99316C234.117 7.78403 235.908 5.99316 238.117 5.99316Z" fill="#F4E041"/>
<path d="M263.222 14.3161C265.299 16.9075 265.265 20.6891 263.154 23.2468C260.747 26.1506 256.628 26.6233 253.67 24.6565L249.102 29.2063C248.907 29.4004 248.593 29.4004 248.407 29.2063L247.127 27.9317C246.932 27.7375 246.932 27.4252 247.127 27.2395L251.695 22.6897C249.848 19.9294 250.144 16.1562 252.585 13.7167C255.56 10.7454 260.527 10.948 263.222 14.3161ZM254.06 22.293C256.026 24.2513 259.23 24.2513 261.196 22.293C263.163 20.3346 263.163 17.1439 261.196 15.1855C259.23 13.2271 256.026 13.2271 254.06 15.1855C252.094 17.1354 252.094 20.3262 254.06 22.293Z" fill="#F9FBFC"/>
<path d="M107.57 95.5119C107.664 96.4657 108.977 106.46 119.3 106.46C130.132 106.46 128.318 95.782 128.318 95.782L128.335 95.7144C127.276 95.495 126.14 95.419 124.937 95.5541V90.4978L112.639 83.6436H112.19V95.4443C112.19 95.4443 110.24 95.2164 107.57 95.5119Z" fill="url(#paint0_radial)"/>
<path d="M113.537 61.0636C111.791 62.8278 110.477 65.1069 109.842 67.884C108.664 73.0754 109.774 78.5621 111.283 83.5593C111.537 84.4119 111.834 85.2813 112.367 85.9988C112.749 86.5137 113.232 86.9358 113.715 87.3578C115.902 89.2571 118.088 91.1564 120.275 93.0556C121.758 94.3471 130.861 95.4192 132.598 94.1783C139.294 89.409 140.582 75.5908 139.243 68.5256C137.014 56.8177 121.894 52.6224 113.537 61.0636Z" fill="url(#paint1_radial)"/>
<path d="M117.3 76.0634C117.207 74.9323 116.046 73.6999 114.876 74.4343C113.664 75.194 113.952 77.1945 114.453 78.3003C114.842 79.1613 116.165 80.1152 117.054 79.3048C117.8 78.6295 116.639 77.836 116.605 77.2198C116.571 76.6627 117.682 76.266 117.224 75.6751" fill="#F7B094"/>
<path d="M117.088 81.28C115.868 81.643 113.8 80.7144 113.274 79.0262C112.749 77.3295 112.808 75.3965 112.808 75.3965C112.808 75.3965 112.19 76.9328 112.512 79.3976C112.834 81.8624 113.698 84.2091 115.639 84.2428C117.58 84.2682 117.088 81.28 117.088 81.28Z" fill="#F7B094"/>
<path d="M118.588 79.5243C118.631 79.5412 118.673 79.5581 118.724 79.5665C119.478 79.6678 119.784 78.7646 119.894 78.1906C120.156 76.8569 120.114 75.5148 120.165 74.1642C120.173 73.8265 120.148 73.4045 120.284 73.0921C120.707 72.1214 121.843 71.4968 122.182 70.4923C122.58 69.3274 121.453 68.1709 121.902 66.8963C122.589 64.9464 125.106 64.499 126.928 64.5159C129.657 64.5497 132.319 65.0561 135.014 65.4698C137.862 65.9087 141.489 66.3223 143.998 64.5328C147.015 62.3719 148.278 56.75 146.024 53.669C144.795 51.9892 142.464 51.0944 140.421 51.0522C138.26 51.0016 136.429 52.2846 134.446 52.9346C132.861 53.4495 131.336 51.947 129.861 51.6516C128.005 51.2801 127.216 53.2976 125.572 53.3567C123.979 53.4073 122.411 52.1665 120.86 51.8879C117.766 51.3224 117.944 54.4203 115.876 55.4754C114.588 56.1338 112.918 55.7371 111.613 56.4039C110.622 56.9104 110.486 57.8052 110.266 58.8097C110.079 59.6791 110.071 60.6921 109.782 61.5193C109.52 62.2621 108.893 62.7348 108.401 63.3173C107.867 63.9504 107.52 64.7016 107.248 65.4951C106.647 67.2677 106.511 69.1754 106.68 71.0325C106.96 74.1473 107.96 77.2114 109.003 80.1405C109.681 82.0398 109.935 84.0235 110.969 85.8214C111.249 86.3026 112.495 87.7207 112.952 86.6656C113.054 86.4376 113.037 86.1844 113.02 85.9396C112.884 83.9813 111.054 71.3448 115.851 72.8642C116.859 73.185 117.538 74.0207 117.91 74.9745C118.36 76.1141 118.394 77.2621 118.334 78.4692C118.326 78.638 118.326 78.8153 118.326 78.9841C118.334 79.2036 118.394 79.423 118.588 79.5243Z" fill="#3D3D7A"/>
<path d="M124.928 94.3893C119.461 93.5114 115.859 89.2148 115.859 89.2148C115.859 89.2148 117.334 96.4574 125.259 96.8457L124.928 94.3893Z" fill="#F7B094"/>
<path d="M115.961 193.134H108.138V267.864C108.138 268.623 108.757 269.24 109.52 269.24H114.58C115.342 269.24 115.961 268.623 115.961 267.864V193.134Z" fill="#0A2033"/>
<path d="M133.556 194.198H90.5517V195.371C90.5517 198.317 92.9502 200.697 95.8997 200.697H128.2C131.158 200.697 133.548 198.308 133.548 195.371V194.198H133.556Z" fill="#30475E"/>
<path d="M115.961 260.368H108.138V277.681C108.138 278.441 108.757 279.057 109.52 279.057H114.58C115.342 279.057 115.961 278.441 115.961 277.681V260.368Z" fill="#0A2033"/>
<path d="M152.634 274.499C152.634 277.014 150.583 279.057 148.058 279.057C145.532 279.057 143.481 277.014 143.481 274.499C143.481 271.983 145.532 269.94 148.058 269.94C150.583 269.94 152.634 271.983 152.634 274.499Z" fill="#0A2033"/>
<path d="M80.627 274.499C80.627 277.014 78.5759 279.057 76.0502 279.057C73.5245 279.057 71.4734 277.014 71.4734 274.499C71.4734 271.983 73.5245 269.94 76.0502 269.94C78.5759 269.94 80.627 271.983 80.627 274.499Z" fill="#0A2033"/>
<path d="M119.915 268.253H104.185V254.561H119.915V268.253Z" fill="#30475E"/>
<path d="M152.634 271.477H71.4735V269.89C71.4735 267.206 73.6601 265.036 76.3469 265.036H147.761C150.456 265.036 152.634 267.206 152.634 269.89V271.477Z" fill="#F4E041"/>
<path d="M112.054 202.234H114.766V253.345H112.054V202.234Z" fill="#30475E"/>
<path d="M81.3304 138.967C83.2035 138.908 84.7291 140.453 84.6274 142.318C84.0934 151.595 86.0682 174.226 94.7386 181.949C105.35 191.387 135.412 190.104 135.412 190.104C135.412 190.104 140.379 196.173 130.446 197.523C120.512 198.874 92.5265 197.971 85.7631 191.682C79.2115 185.588 75.3213 169.625 78.2538 141.845C78.4148 140.25 79.7201 139.018 81.3304 138.967Z" fill="#F4E041"/>
<path d="M137.658 253.345L134.082 261.466L145.04 266.252L148.625 258.106L137.658 253.345Z" fill="url(#paint2_radial)"/>
<path d="M86.0004 163.101C86.6784 164.451 135.353 163.126 139.947 163.548C139.947 163.548 169.738 177.712 174.018 190.965C174.45 192.299 174.569 194.063 174.442 196.173C173.247 214.837 151.905 259.533 151.905 259.533L148.625 258.106L137.658 253.345L136.099 252.67C136.099 252.67 153.024 202.436 149.643 199.735C146.261 197.034 107.892 190.298 94.586 186.711C81.2626 183.106 86.0004 163.101 86.0004 163.101Z" fill="#56548C"/>
<path d="M179.425 255.43L178.569 267.628H190.528L191.376 255.405L179.425 255.43Z" fill="url(#paint3_radial)"/>
<path d="M140.192 163.134L140.625 163.32C140.625 163.32 190.494 170.292 198.622 184.22C203.902 193.286 193.681 259.507 193.681 259.507L176.035 259.549C176.035 259.549 178.671 204.386 177.798 201.314C176.806 197.811 175.12 196.536 174.442 196.173C174.577 194.071 174.459 192.299 174.018 190.965C169.738 177.704 139.947 163.548 139.947 163.548C140.04 163.48 140.125 163.337 140.192 163.134Z" fill="#3D3D7A"/>
<path d="M92.0179 117.24L95.3657 117.695C95.3657 117.695 96.1794 126.677 98.1711 135.658L139.836 151.409L140.404 154.414C140.582 154.398 140.76 154.389 140.921 154.372C140.904 154.988 140.904 155.596 140.879 156.162C140.786 159.631 140.557 162.121 140.192 163.117C140.125 163.32 140.04 163.472 139.947 163.539C138.811 164.459 124.081 162.678 108.147 168.503C94.3317 173.559 86.5852 179.071 86.2292 178.337C81.8813 169.355 89.7889 134.071 92.0179 117.24Z" fill="#EA5924"/>
<path d="M96.3659 137.819C97.4762 143.129 100.349 153.706 105.977 155.124C113.334 156.981 127.547 156.888 140.87 156.179C140.896 155.613 140.896 155.006 140.913 154.389C140.752 154.406 140.574 154.415 140.396 154.432L139.828 151.426L98.1627 135.675C96.171 126.694 95.3573 117.712 95.3573 117.712C95.3573 117.712 95.3573 117.763 95.3403 117.864C95.2725 119.232 94.7047 129.969 96.3659 137.819Z" fill="#F4675D"/>
<path d="M138.133 103.979C138.879 105.329 139.947 119.755 140.531 134.08L149.049 126.162C145.43 119.19 138.133 103.979 138.133 103.979Z" fill="#F4675D"/>
<path d="M143.235 144.547C150.422 145.788 157.033 146.851 157.033 146.851L157.05 147.206C165.051 140.841 177.23 122.811 177.23 122.811C177.23 122.811 173.586 118.455 172.679 117.307C172.543 117.13 152.694 130.737 151.677 130.619C151.422 130.594 150.405 128.812 149.049 126.17L140.531 134.088C140.667 137.498 140.777 140.9 140.845 144.125C141.642 144.26 142.438 144.395 143.235 144.547Z" fill="#F7B094"/>
<path d="M157.033 146.851L157.211 152.76H178.874C178.874 152.76 176.722 144.327 170.857 144.327C164.992 144.327 162.729 147.417 162.729 147.417L157.033 146.851Z" fill="url(#paint4_radial)"/>
<path d="M172.84 117.172L172.679 117.307C173.586 118.455 177.23 122.811 177.23 122.811L179.493 121.215C179.493 121.215 181.985 122.726 184.883 121.148C187.901 119.519 186.036 115.619 185.884 115.155C186.468 115.315 190.087 118.236 190.655 117.923C191.223 117.611 191.647 116.59 187.596 112.614C183.561 108.638 178.061 113.745 177.9 113.745L172.84 117.172Z" fill="#F7B094"/>
<path d="M184.409 120.473C184.409 120.473 185.282 122.102 183.731 122.811C182.18 123.52 179.163 124.026 177.866 123.908C176.569 123.79 175.535 121.975 175.535 121.975L179.459 118.303H182.604L184.409 120.473Z" fill="#F7B094"/>
<path d="M184.638 121.266C184.409 120.464 182.171 120.895 180.79 120.928C179.773 120.954 179.213 120.684 178.9 119.915C178.586 119.139 180.061 117.915 180.358 118.295C180.646 118.683 179.824 119.223 179.798 119.738C179.773 120.253 181.256 120.422 182.392 120.422C183.527 120.422 185.494 120.717 185.494 120.717L184.638 121.266Z" fill="#E8987C"/>
<path d="M100.282 143.323L121.504 135.835C123.047 138.705 124.699 140.866 126.335 141.297C128.81 141.947 134.802 143.061 140.837 144.116C141.633 144.268 142.438 144.403 143.235 144.547C150.422 145.788 157.033 146.851 157.033 146.851L157.05 147.206V147.434L157.211 152.76V154.111C157.211 154.111 150.007 153.748 140.921 154.381C128.208 155.284 111.808 155.824 106.375 153.275C103.833 152.076 101.799 148.134 100.197 143.281C100.231 143.289 100.256 143.306 100.282 143.323Z" fill="url(#paint5_radial)"/>
<path d="M121.504 135.835L100.281 143.323L101.248 146.142L122.25 137.169L121.504 135.835Z" fill="#F7B094"/>
<path d="M121.504 135.835C123.047 138.705 124.699 140.866 126.335 141.297C128.81 141.947 134.802 143.061 140.837 144.116C140.769 140.892 140.659 137.498 140.523 134.08C139.938 119.755 138.87 105.329 138.124 103.978C136.904 101.725 133.573 96.8288 128.318 95.7145L128.301 95.7821C128.301 95.7821 130.115 106.46 119.283 106.46C108.969 106.46 107.655 96.4658 107.553 95.512C102.248 96.1028 94.1029 98.7449 92.9842 109.372C92.7553 111.474 92.4248 114.175 92.0095 117.231L95.3573 117.687C95.3573 117.687 96.7134 132.653 100.188 143.272C100.214 143.289 100.239 143.297 100.273 143.314L121.504 135.835Z" fill="#EA5924"/>
<path d="M121.724 133.885L113.249 113.458L119.495 134.713L121.724 133.885Z" fill="#6D4B35"/>
<path d="M107.57 95.512H112.19C112.19 95.512 118.758 102.695 122.987 102.695C127.217 102.695 124.937 95.5457 124.937 95.5457H126.996C132.921 95.5457 137.896 99.9773 138.565 105.836C138.641 106.502 138.709 107.144 138.769 107.718C139.218 112.065 121.538 115.231 121.538 115.231L112.435 114.724L106.909 103.978L105.808 99.5806L107.57 95.512Z" fill="#EA5924"/>
<path d="M163.288 275.596C162.873 277.791 161.347 279.352 159.143 278.947L129.734 273.486C128.988 273.351 128.496 272.633 128.64 271.89L129.123 269.291C129.123 269.291 160.059 274.684 163.305 275.579L163.288 275.596Z" fill="#F1F2F2"/>
<path d="M154.541 268.218C154.236 267.957 153.94 267.687 153.634 267.425C153.041 266.902 152.465 266.387 151.905 265.889C151.609 265.627 151.312 265.365 151.041 265.112C150.507 264.631 149.999 264.183 149.541 263.778C149.219 263.483 148.914 263.204 148.634 262.96C148.134 262.512 147.719 262.141 147.43 261.887C147.185 261.668 146.812 261.651 146.557 261.871C145.345 262.884 141.438 265.196 134.361 260.832C134.022 260.621 133.582 260.731 133.395 261.086L129.115 269.282C129.115 269.282 160.05 274.676 163.297 275.571C162.237 274.912 158.288 271.51 154.541 268.218Z" fill="#3D3D7A"/>
<path d="M209.606 275.309C209.556 277.546 208.293 279.327 206.047 279.276L176.137 278.55C175.383 278.534 174.781 277.909 174.798 277.149L174.866 274.507C174.866 274.507 206.267 274.921 209.615 275.292L209.606 275.309Z" fill="#F1F2F2"/>
<path d="M199.792 269.417C199.444 269.206 199.114 268.995 198.766 268.776C198.097 268.353 197.444 267.94 196.817 267.535C196.486 267.324 196.147 267.113 195.842 266.91C195.232 266.522 194.664 266.159 194.156 265.83C193.783 265.593 193.444 265.365 193.13 265.163C192.562 264.8 192.096 264.504 191.774 264.293C191.494 264.116 191.13 264.158 190.91 264.411C189.876 265.602 186.392 268.505 178.705 265.323C178.34 265.171 177.917 265.348 177.798 265.72L174.882 274.49C174.882 274.49 206.284 274.904 209.632 275.275C208.462 274.803 204.021 272.068 199.792 269.417Z" fill="#3D3D7A"/>
<path d="M230.888 154.111L246.856 111.685H201.385L185.409 154.111H230.888Z" fill="#ABB5BA"/>
<path d="M182.604 154.111H185.409L201.385 111.685L198.834 111.795L184.053 150.202L182.604 154.111Z" fill="#8495A0"/>
<path d="M183.485 154.111H153.44L153.524 151.435C153.524 151.435 183.604 151.435 184.104 151.435" fill="#8495A0"/>
<path d="M55.4634 162.206H62.7014V280.576H55.4634V162.206Z" fill="#8495A0"/>
<path d="M94.7301 162.206H101.968V280.576H94.7301V162.206Z" fill="#ABB5BA"/>
<path d="M220.54 162.206H227.778V280.576H220.54V162.206Z" fill="#8495A0"/>
<path d="M259.806 162.206H267.044V280.576H259.806V162.206Z" fill="#ABB5BA"/>
<path d="M48.2253 162.653H273.977C275.918 162.653 277.495 161.083 277.495 159.15V157.614C277.495 155.681 275.918 154.111 273.977 154.111H48.2253C46.2844 154.111 44.708 155.681 44.708 157.614V159.15C44.708 161.083 46.2844 162.653 48.2253 162.653Z" fill="#141B56"/>
<path d="M239.262 116.142L238.491 118.21H229.43L230.21 116.142H239.262Z" fill="#8495A0"/>
<path d="M149.049 126.162L149.693 127.42L140.531 136.848V134.08L149.049 126.162Z" fill="#E8987C"/>
<path d="M4 278.559H324C326.209 278.559 328 280.349 328 282.559V283C328 285.209 326.209 287 324 287H4C1.79086 287 0 285.209 0 283V282.559C0 280.349 1.79083 278.559 4 278.559Z" fill="#A5B7C6"/>
<path d="M19.9682 217.31C21.4259 224.341 20.9852 236.311 30.3167 238.202C32.8339 238.708 35.2579 236.978 36.7157 234.986C38.6311 232.386 39.0888 226.874 39.0549 223.725C39.0294 221.226 38.1734 218.441 37.9022 215.925C37.6056 213.207 37.3598 210.481 37.0462 207.763C35.902 197.963 30.7574 189.749 22.0616 184.862C21.392 188.078 19.858 190.804 18.5019 193.885C17.8832 195.295 17.3323 196.781 16.9255 198.258C16.2135 200.875 17.078 203.508 17.7137 206.015C18.6629 209.713 19.1969 213.57 19.9682 217.31Z" fill="url(#paint6_linear)"/>
<path d="M31.9016 238.438C31.8338 237.847 31.766 237.256 31.6812 236.674C30.5625 236.674 29.4013 236.041 28.469 235.559C26.8418 234.724 25.5281 233.517 24.2567 232.234C24.1889 232.166 24.3076 232.056 24.3754 232.115C25.6467 233.179 26.9689 234.209 28.4775 234.909C29.3251 235.298 30.554 235.939 31.5965 236.066C31.4948 235.365 31.3931 234.656 31.2744 233.956C30.1133 233.812 29.0454 233.052 28.0622 232.47C26.3925 231.482 24.9517 230.208 23.46 228.975C23.4431 228.958 23.4601 228.933 23.477 228.95C25.7569 230.596 28.2995 232.943 31.1812 233.458C31.0286 232.58 30.8676 231.702 30.6811 230.832C30.6727 230.79 30.6642 230.74 30.6557 230.697C27.3164 229.853 25.0619 227.253 22.5023 225.143C22.4599 225.109 22.5023 225.042 22.5532 225.075C25.0704 227.025 27.435 229.245 30.5455 230.191C30.2743 228.95 29.9946 227.709 29.7149 226.468C26.6977 225.362 24.2822 223.598 22.1718 221.142C22.1379 221.1 22.1972 221.041 22.2311 221.083C24.4178 223.345 26.8248 224.645 29.5878 225.936C29.3081 224.713 29.0284 223.48 28.7657 222.256C27.4605 221.615 26.0874 221.226 24.8755 220.382C23.6889 219.555 22.621 218.567 21.8497 217.326C21.8073 217.259 21.909 217.2 21.9514 217.259C23.638 219.682 26.1891 220.433 28.647 221.699C28.4097 220.551 28.1809 219.403 27.9859 218.247C25.2399 216.744 22.265 215.351 20.7055 212.464C20.6886 212.439 20.731 212.405 20.7479 212.439C22.3922 215.09 25.2738 216.229 27.8842 217.673C27.8503 217.47 27.8164 217.259 27.7825 217.056C27.613 215.984 27.4605 214.912 27.2994 213.832C25.723 213.207 24.2228 212.312 22.799 211.392C21.7904 210.742 20.714 210.092 20.0614 209.071C20.019 209.003 20.1123 208.944 20.1631 209.003C21.6378 211.105 24.8585 212.312 27.2401 213.368C27.0876 212.279 26.935 211.198 26.774 210.109C24.1296 208.514 21.0276 207.636 19.4003 204.766C19.3495 204.682 19.4766 204.606 19.5274 204.682C21.2141 207.298 24.172 208.109 26.6977 209.594C26.6044 208.919 26.5027 208.252 26.401 207.577C23.5533 206.53 20.2309 204.158 18.7308 201.592C18.646 201.449 18.8494 201.322 18.9426 201.457C20.4767 203.711 23.5533 206.159 26.3163 207.054C26.1468 205.965 25.9688 204.876 25.7739 203.795C25.7569 203.762 25.7399 203.736 25.7315 203.702C24.4517 203.331 23.1888 202.428 22.0785 201.753C20.7479 200.934 19.4766 199.98 18.646 198.638C18.5528 198.486 18.7985 198.351 18.8833 198.503C20.1461 200.756 23.1549 202.259 25.6467 203.12C25.5704 202.723 25.5026 202.327 25.4264 201.938C25.3077 201.347 25.189 200.756 25.0704 200.166C24.0533 199.465 22.7566 199.127 21.7311 198.393C20.8411 197.751 20.0614 196.975 19.3071 196.19C19.2308 196.114 19.341 195.987 19.4257 196.063C20.4598 197.034 21.5192 197.954 22.7735 198.629C23.477 199.001 24.2737 199.22 24.9602 199.625C24.7653 198.663 24.5619 197.692 24.3754 196.73C24.3669 196.73 24.35 196.722 24.3415 196.722C24.333 196.722 24.3161 196.73 24.3076 196.73C24.2398 196.747 24.1805 196.722 24.1381 196.679C22.7566 196.333 21.6887 195.143 20.7649 194.13C20.7394 194.105 20.7733 194.071 20.7988 194.096C21.7734 195 22.8837 195.996 24.1974 196.375C24.2059 196.375 24.2059 196.367 24.2144 196.367C24.2483 196.359 24.2822 196.359 24.3161 196.35C24.1635 195.565 24.0194 194.78 23.8923 193.987C23.7906 193.97 23.7058 193.885 23.7313 193.784C22.9939 193.294 22.3328 192.67 21.7056 192.054C21.6548 192.011 21.7226 191.935 21.7734 191.978C22.426 192.535 23.0702 192.999 23.7991 193.404C23.5363 191.775 23.3414 190.137 23.2482 188.475C23.2397 188.323 23.4685 188.323 23.4855 188.475C23.6296 190.07 23.8669 191.648 24.1381 193.218C24.9009 192.222 25.7569 191.193 26.2231 190.045C26.2485 189.986 26.3417 190.011 26.3248 190.07C26.0959 190.779 25.706 191.404 25.3162 192.028C24.9687 192.594 24.689 193.252 24.2398 193.75C24.3924 194.594 24.5619 195.439 24.7314 196.274C25.6637 196.122 26.5112 195.953 27.2825 195.278C28.2233 194.459 28.7572 193.345 28.8504 192.104C28.8589 191.952 29.1047 191.952 29.0878 192.104C28.9861 193.252 28.5199 194.333 27.7317 195.194C26.9011 196.097 25.9264 196.384 24.8076 196.612C25.0111 197.583 25.223 198.553 25.4348 199.516C26.2824 199.009 27.0621 198.351 27.8249 197.751C29.0538 196.781 29.7743 195.607 30.8422 194.51C30.9524 194.4 31.1219 194.561 31.0202 194.67C30.0201 195.726 29.3505 196.874 28.2063 197.819C27.3927 198.503 26.4858 199.364 25.5111 199.862C25.5196 199.912 25.5366 199.963 25.545 200.014C25.5535 200.022 25.5704 200.031 25.5789 200.039C25.6552 200.115 25.6467 200.191 25.6043 200.258C25.8077 201.187 26.0112 202.115 26.2146 203.044C26.223 203.103 26.24 203.162 26.2485 203.221C28.4182 202.234 31.6643 200.512 31.9525 198.005C31.9779 197.768 32.3339 197.836 32.283 198.081C31.6389 200.917 28.5114 202.175 26.3502 203.728C26.5621 204.783 26.757 205.83 26.935 206.893C28.3334 206.412 29.6726 205.821 30.8506 204.884C31.9186 204.04 33.4357 203.01 33.9188 201.702C33.9357 201.66 33.995 201.685 33.9781 201.727C33.5289 203.036 32.1728 203.93 31.1812 204.825C29.9268 205.956 28.6386 206.919 27.0282 207.366C27.0367 207.408 27.0452 207.459 27.0282 207.509C27.1384 208.176 27.2486 208.852 27.3503 209.518C29.9861 209.316 33.673 207.324 35.0206 205.34C35.0291 205.332 35.0375 205.34 35.0375 205.348C34.1222 206.868 32.7322 207.754 31.1642 208.522C29.9946 209.096 28.7318 209.772 27.4096 209.873C27.5961 211.114 27.7825 212.363 27.969 213.604C29.1132 213.182 30.3252 212.979 31.4609 212.523C33.1475 211.857 34.4273 210.65 35.4189 209.164C35.4783 209.071 35.6308 209.147 35.5715 209.24C33.7493 212.127 31.1219 212.979 28.0453 214.06C28.1978 215.081 28.3589 216.103 28.5284 217.115C31.0456 216.634 34.3002 215.106 35.58 212.929C35.6732 212.768 35.9274 212.903 35.8342 213.064C35.029 214.456 33.6391 215.343 32.2321 216.052C31.2151 216.567 29.8082 217.411 28.5962 217.504C28.6046 217.538 28.6047 217.571 28.6131 217.605C28.8589 219.074 29.1555 220.526 29.4691 221.978C32.283 221.277 34.0967 219.2 36.1478 217.259C36.2919 217.124 36.5123 217.326 36.3682 217.47C34.2832 219.513 32.4525 221.657 29.5624 222.408C29.8251 223.59 30.0963 224.772 30.3845 225.945C32.7831 225.278 35.1477 223.581 36.6987 221.64C36.8089 221.505 37.0038 221.691 36.8936 221.826C35.2833 223.936 32.961 225.531 30.4862 226.401C30.7998 227.658 31.1219 228.925 31.4439 230.182C33.9018 229.811 35.8003 228.275 37.3174 226.333C37.3513 226.291 37.4361 226.35 37.4022 226.392C36.0546 228.258 34.0205 230.41 31.5711 230.638C31.6728 231.043 31.7829 231.44 31.8847 231.845C31.944 232.09 32.0118 232.335 32.0796 232.58C33.9357 232.039 35.6562 231.373 37.1903 230.123C37.2327 230.09 37.2835 230.157 37.2411 230.191C35.7834 231.499 34.0459 232.377 32.1813 232.943C32.3847 233.694 32.6051 234.479 32.8254 235.264C33.2831 235.053 33.7323 234.817 34.2324 234.665C35.1562 234.386 35.7495 233.804 36.5546 233.323C36.6309 233.28 36.7072 233.382 36.6394 233.432C35.9359 233.888 35.4359 234.479 34.6307 234.783C34.0374 235.002 33.4696 235.289 32.8932 235.543C33.7408 238.683 34.4866 242.017 34.0798 245.03C33.9866 245.697 32.8678 245.875 32.6898 245.165C32.122 243.005 32.1474 240.675 31.9016 238.438Z" fill="#747DED"/>
<path d="M49.5136 215.301C47.8524 222.281 42.3858 232.951 50.0391 238.59C52.0986 240.109 55.0396 239.561 57.2093 238.37C60.0486 236.817 62.7946 232.014 64.0999 229.144C65.1339 226.865 65.5407 223.987 66.3543 221.589C67.2358 218.998 68.1765 216.423 69.041 213.823C72.1515 204.454 70.9735 194.856 65.1678 186.761C63.193 189.395 60.6504 191.218 58.1162 193.446C56.9635 194.459 55.8278 195.574 54.8362 196.747C53.0818 198.815 52.7428 201.575 52.2597 204.108C51.5477 207.855 50.3951 211.578 49.5136 215.301Z" fill="url(#paint7_linear)"/>
<path d="M51.3697 239.468C51.5562 238.902 51.7427 238.337 51.9206 237.771C50.9121 237.298 50.1238 236.243 49.4797 235.407C48.361 233.964 47.6829 232.318 47.0642 230.621C47.0303 230.528 47.1829 230.478 47.2252 230.562C47.9287 232.065 48.683 233.55 49.7594 234.825C50.3611 235.534 51.2087 236.631 52.0986 237.18C52.3105 236.505 52.5054 235.821 52.7004 235.137C51.7087 234.521 51.0646 233.382 50.4205 232.445C49.3271 230.849 48.5644 229.085 47.7338 227.338C47.7253 227.321 47.7507 227.304 47.7677 227.321C49.1322 229.777 50.4459 232.968 52.836 234.648C53.0733 233.787 53.2937 232.926 53.4971 232.056C53.5055 232.014 53.514 231.963 53.531 231.921C50.8612 229.76 49.9204 226.443 48.4966 223.463C48.4711 223.413 48.5474 223.37 48.5728 223.421C50.0306 226.24 51.2341 229.254 53.6496 231.415C53.9293 230.174 54.2005 228.933 54.4717 227.692C52.2003 225.422 50.768 222.805 49.895 219.698C49.878 219.648 49.9543 219.614 49.9713 219.673C50.9883 222.644 52.6241 224.831 54.5904 227.169C54.8531 225.936 55.1244 224.712 55.4125 223.489C54.4972 222.357 53.4208 221.429 52.6834 220.163C51.9545 218.913 51.4036 217.563 51.2341 216.119C51.2257 216.043 51.3358 216.027 51.3528 216.102C51.8613 219.006 53.853 220.762 55.5397 222.948C55.8109 221.809 56.0905 220.669 56.4041 219.538C54.5565 217.023 52.4461 214.507 52.2597 211.24C52.2597 211.207 52.302 211.198 52.3105 211.232C52.6834 214.321 54.8108 216.567 56.5652 218.972C56.6245 218.77 56.6754 218.567 56.7347 218.365C57.0398 217.318 57.3534 216.28 57.667 215.241C56.5059 214.009 55.5227 212.574 54.6243 211.139C53.9887 210.126 53.2852 209.088 53.1241 207.881C53.1157 207.805 53.2259 207.788 53.2428 207.864C53.6835 210.388 56.0906 212.836 57.8026 214.794C58.1247 213.747 58.4467 212.701 58.7603 211.646C57.0398 209.096 54.5989 206.986 54.3361 203.702C54.3277 203.601 54.4718 203.584 54.4887 203.686C54.904 206.767 57.2517 208.742 58.9044 211.156C59.0993 210.506 59.2943 209.856 59.4892 209.206C57.3449 207.062 55.3447 203.508 55.0735 200.554C55.0566 200.393 55.3023 200.36 55.3278 200.52C55.76 203.204 57.5229 206.724 59.6418 208.691C59.9469 207.636 60.252 206.572 60.5317 205.509C60.5232 205.475 60.5232 205.441 60.5317 205.408C59.5316 204.53 58.7603 203.179 58.0484 202.099C57.1839 200.799 56.4381 199.397 56.2601 197.827C56.2431 197.65 56.5143 197.633 56.5313 197.802C56.7262 200.377 58.8112 203.01 60.7012 204.834C60.8029 204.445 60.9046 204.057 60.9978 203.66C61.1419 203.078 61.286 202.487 61.4216 201.904C60.7944 200.841 59.7604 199.997 59.1502 198.891C58.6163 197.937 58.2433 196.907 57.8789 195.869C57.845 195.768 57.9975 195.7 58.0399 195.81C58.5654 197.118 59.1332 198.41 59.9893 199.541C60.4639 200.174 61.0995 200.706 61.5487 201.364C61.7776 200.402 62.0064 199.448 62.2437 198.494C62.2353 198.486 62.2268 198.477 62.2183 198.469C62.2098 198.469 62.1929 198.46 62.1844 198.46C62.1166 198.444 62.0742 198.393 62.0573 198.342C60.947 197.447 60.4893 195.92 60.074 194.611C60.0655 194.577 60.1079 194.561 60.1249 194.594C60.6334 195.818 61.2097 197.186 62.2353 198.089C62.2437 198.089 62.2437 198.089 62.2522 198.089C62.2861 198.097 62.32 198.106 62.3454 198.114C62.5404 197.338 62.7438 196.561 62.9557 195.793C62.8709 195.734 62.8285 195.624 62.8963 195.54C62.4387 194.789 62.0997 193.936 61.7945 193.117C61.7691 193.058 61.8623 193.016 61.8878 193.075C62.2437 193.852 62.6251 194.544 63.1252 195.219C63.5829 193.632 64.0914 192.062 64.7101 190.517C64.7694 190.374 64.9813 190.475 64.9304 190.61C64.388 192.113 63.9304 193.649 63.5151 195.185C64.6338 194.603 65.8373 194.029 66.7442 193.185C66.7951 193.142 66.8629 193.202 66.8205 193.252C66.3119 193.801 65.6932 194.198 65.0745 194.603C64.5152 194.966 63.9897 195.447 63.371 195.717C63.1506 196.544 62.9472 197.38 62.7523 198.216C63.6591 198.469 64.5067 198.671 65.4814 198.384C66.6764 198.038 67.6341 197.253 68.2443 196.164C68.3206 196.029 68.541 196.131 68.4562 196.266C67.8714 197.262 66.9985 198.055 65.9221 198.494C64.7864 198.958 63.7778 198.815 62.6675 198.553C62.4387 199.516 62.2183 200.486 62.0064 201.449C62.9811 201.347 63.9727 201.077 64.922 200.849C66.4476 200.478 67.6002 199.727 69.0326 199.178C69.1767 199.127 69.2699 199.338 69.1258 199.397C67.7697 199.938 66.6764 200.689 65.2441 201.077C64.2101 201.356 63.032 201.753 61.9302 201.803C61.9217 201.854 61.9047 201.904 61.8962 201.955C61.9047 201.972 61.9047 201.98 61.9132 201.997C61.9471 202.099 61.9047 202.166 61.8369 202.2C61.6335 203.128 61.4216 204.057 61.2097 204.977C61.1928 205.036 61.1843 205.095 61.1674 205.154C63.5574 205.171 67.2273 204.977 68.5495 202.825C68.6766 202.622 68.9733 202.833 68.8207 203.027C67.0324 205.332 63.6591 205.154 61.0487 205.652C60.7944 206.691 60.5232 207.729 60.2435 208.767C61.7182 208.919 63.176 208.944 64.6423 208.59C65.9729 208.269 67.7782 207.982 68.7698 206.994C68.8037 206.961 68.8461 207.011 68.8122 207.045C67.8545 208.041 66.2441 208.286 64.9644 208.674C63.3455 209.172 61.7776 209.501 60.1249 209.231C60.1164 209.282 60.0994 209.324 60.0655 209.358C59.8791 210.008 59.6926 210.666 59.5062 211.316C61.981 212.245 66.1679 211.983 68.2359 210.751C68.2444 210.742 68.2528 210.759 68.2443 210.768C66.7696 211.755 65.1339 211.975 63.3879 212.017C62.0827 212.042 60.6503 212.127 59.4045 211.662C59.0485 212.87 58.6925 214.077 58.3281 215.275C59.5485 215.368 60.7266 215.697 61.9471 215.765C63.7608 215.866 65.4305 215.309 66.9561 214.389C67.0493 214.33 67.151 214.465 67.0578 214.524C64.1761 216.381 61.4386 216.043 58.1925 215.731C57.8958 216.719 57.6161 217.715 57.3364 218.702C59.8198 219.327 63.4218 219.31 65.4983 217.867C65.6509 217.757 65.8288 217.985 65.6763 218.095C64.3541 219.023 62.7268 219.243 61.1419 219.293C59.9978 219.327 58.3705 219.513 57.2347 219.082C57.2263 219.116 57.2178 219.15 57.2093 219.184C56.811 220.619 56.4635 222.062 56.1329 223.505C58.9807 224.046 61.5064 222.931 64.1846 222.028C64.3711 221.969 64.4812 222.248 64.2948 222.315C61.5403 223.294 58.9722 224.459 56.0312 223.927C55.7685 225.109 55.5142 226.291 55.2769 227.481C57.7348 227.886 60.5995 227.346 62.8285 226.232C62.9896 226.156 63.0828 226.401 62.9302 226.485C60.5741 227.718 57.7941 228.19 55.1837 227.937C54.9294 229.212 54.6921 230.486 54.4548 231.769C56.8449 232.461 59.2095 231.871 61.4131 230.748C61.464 230.723 61.5148 230.807 61.464 230.841C59.4553 231.963 56.6923 233.061 54.3785 232.242C54.3022 232.647 54.226 233.061 54.1497 233.466C54.1073 233.711 54.0565 233.964 54.0141 234.217C55.9295 234.504 57.7687 234.622 59.6842 234.141C59.735 234.124 59.752 234.209 59.7011 234.226C57.828 234.8 55.8787 234.859 53.9463 234.597C53.8107 235.365 53.6835 236.167 53.5395 236.969C54.048 236.969 54.548 236.944 55.0735 237.02C56.0312 237.155 56.8195 236.885 57.7518 236.783C57.8365 236.775 57.8704 236.902 57.7772 236.918C56.9466 237.037 56.2431 237.366 55.3871 237.298C54.7514 237.248 54.1242 237.273 53.4886 237.265C52.9207 240.464 52.1919 243.806 50.5391 246.373C50.1747 246.938 49.0814 246.626 49.2254 245.908C49.6407 243.705 50.6493 241.595 51.3697 239.468Z" fill="#747DED"/>
<path d="M33.334 209.881C32.9356 218.753 28.7657 232.985 39.3939 238.075C42.2586 239.442 45.6997 238.1 48.0558 236.15C51.1409 233.61 53.3699 227.135 54.2853 223.345C55.0142 220.34 54.8362 216.744 55.2684 213.638C55.7431 210.287 56.277 206.935 56.7262 203.584C58.3281 191.48 54.6667 180.076 45.7251 171.584C43.9368 175.239 41.267 178.041 38.7074 181.342C37.5378 182.844 36.419 184.457 35.4867 186.111C33.834 189.032 34.0629 192.459 34.0713 195.658C34.0713 200.377 33.5458 205.163 33.334 209.881Z" fill="url(#paint8_linear)"/>
<path d="M41.2162 238.843C41.3179 238.117 41.4111 237.383 41.4959 236.657C40.1567 236.319 38.9532 235.205 37.9786 234.344C36.2835 232.85 35.0715 231.01 33.9358 229.085C33.8765 228.984 34.046 228.883 34.1138 228.975C35.3173 230.638 36.5886 232.267 38.1904 233.576C39.0804 234.302 40.3686 235.441 41.5806 235.906C41.6738 235.028 41.7586 234.158 41.8349 233.28C40.4873 232.757 39.4363 231.525 38.4362 230.529C36.7327 228.84 35.3936 226.874 33.9866 224.941C33.9697 224.915 34.0036 224.89 34.0205 224.915C36.2496 227.583 38.5888 231.162 41.8857 232.647C41.9705 231.55 42.0383 230.444 42.0892 229.347C42.0892 229.288 42.0892 229.229 42.0976 229.178C38.3515 227.161 36.436 223.354 34.0121 220.053C33.9697 220.002 34.046 219.926 34.0883 219.986C36.5123 223.083 38.6736 226.46 42.1231 228.528C42.1824 226.95 42.2163 225.379 42.2586 223.809C38.9702 221.564 36.614 218.728 34.8342 215.14C34.8003 215.081 34.8935 215.031 34.9274 215.09C36.8598 218.466 39.3516 220.754 42.2756 223.134C42.318 221.581 42.3519 220.019 42.4112 218.466C41.0382 217.301 39.5126 216.423 38.3176 215.047C37.1395 213.697 36.1648 212.186 35.6224 210.472C35.597 210.379 35.7326 210.337 35.758 210.43C37.0463 213.84 39.877 215.512 42.4451 217.782C42.5044 216.331 42.5892 214.887 42.6994 213.435C39.8686 210.802 36.7157 208.227 35.7241 204.302C35.7156 204.26 35.7749 204.243 35.7834 204.285C36.953 207.957 40.0551 210.194 42.7587 212.718C42.7841 212.456 42.8011 212.203 42.818 211.941C42.9452 210.607 43.0808 209.265 43.2249 207.932C41.5213 206.699 39.9957 205.18 38.5718 203.652C37.5633 202.563 36.4699 201.466 35.9868 200.031C35.9529 199.938 36.0885 199.887 36.1224 199.98C37.2497 202.943 40.7416 205.374 43.2842 207.349C43.4283 205.999 43.5723 204.656 43.7164 203.306C41.0297 200.596 37.5717 198.604 36.4954 194.67C36.4615 194.552 36.6394 194.502 36.6733 194.611C37.8938 198.258 41.2077 200.123 43.7758 202.673C43.8605 201.837 43.9538 201.001 44.03 200.166C40.928 198.055 37.6734 194.198 36.6479 190.661C36.5886 190.467 36.8768 190.374 36.9446 190.56C38.0972 193.725 41.0467 197.591 44.0893 199.499C44.2165 198.14 44.3351 196.789 44.4368 195.43C44.4199 195.388 44.4114 195.346 44.4114 195.304C42.9875 194.468 41.7416 193.008 40.6229 191.86C39.2753 190.475 38.0379 188.947 37.4531 187.082C37.3853 186.879 37.7243 186.786 37.7752 186.997C38.6057 190.078 41.7586 192.797 44.4792 194.586C44.5131 194.088 44.547 193.59 44.5724 193.092C44.6148 192.349 44.6487 191.606 44.6826 190.855C43.6741 189.707 42.2248 188.914 41.2247 187.715C40.3517 186.677 39.6567 185.512 38.9787 184.338C38.9109 184.22 39.0804 184.111 39.1567 184.229C40.0974 185.697 41.089 187.132 42.3943 188.314C43.1231 188.973 44.0215 189.471 44.7081 190.171C44.7589 188.956 44.8182 187.74 44.886 186.516C44.8691 186.508 44.8606 186.499 44.8437 186.499C44.8267 186.499 44.8098 186.499 44.8013 186.499C44.7165 186.491 44.6487 186.449 44.6148 186.39C43.0554 185.554 42.1485 183.807 41.3433 182.313C41.3264 182.279 41.3772 182.245 41.3942 182.279C42.2926 183.655 43.3181 185.183 44.7759 186.044C44.7843 186.044 44.7843 186.044 44.7928 186.044C44.8352 186.044 44.8776 186.052 44.9199 186.052C44.9793 185.064 45.0471 184.077 45.1233 183.089C45.0047 183.038 44.9284 182.912 44.9877 182.794C44.2588 181.983 43.6486 181.029 43.0808 180.109C43.0384 180.042 43.1401 179.974 43.1825 180.042C43.7927 180.911 44.4284 181.654 45.1827 182.363C45.3691 180.329 45.6234 178.303 46.0217 176.286C46.0556 176.1 46.3354 176.167 46.3099 176.353C45.9963 178.311 45.7929 180.27 45.6488 182.245C46.8693 181.274 48.1999 180.304 49.1153 179.071C49.1661 179.004 49.2678 179.063 49.2255 179.139C48.7339 179.924 48.0728 180.548 47.4117 181.19C46.8184 181.764 46.2845 182.465 45.598 182.937C45.5217 183.992 45.4708 185.056 45.42 186.12C46.5811 186.221 47.6575 186.271 48.7763 185.697C50.1493 184.997 51.1324 183.824 51.624 182.363C51.6833 182.186 51.9715 182.262 51.9122 182.439C51.4376 183.79 50.5561 184.946 49.3441 185.74C48.0728 186.567 46.8184 186.618 45.4031 186.558C45.3522 187.782 45.3098 189.006 45.2674 190.239C46.4371 189.893 47.5728 189.336 48.6746 188.838C50.4459 188.036 51.6664 186.854 53.2852 185.858C53.4462 185.757 53.6073 186.001 53.4462 186.103C51.9291 187.073 50.768 188.238 49.1153 189.032C47.9287 189.606 46.5811 190.365 45.259 190.669C45.259 190.737 45.259 190.796 45.2505 190.863C45.259 190.88 45.2759 190.889 45.2844 190.906C45.3522 191.015 45.3183 191.117 45.242 191.176C45.2081 192.349 45.1657 193.522 45.1233 194.696C45.1233 194.772 45.1149 194.839 45.1149 194.915C48.022 194.383 52.4377 193.303 53.5479 190.374C53.6496 190.095 54.0649 190.281 53.9209 190.56C52.2851 193.776 48.1406 194.333 45.081 195.54C45.0132 196.865 44.9284 198.19 44.8267 199.507C46.6574 199.355 48.4372 199.043 50.1323 198.283C51.6749 197.591 53.8022 196.823 54.7854 195.388C54.8193 195.346 54.8786 195.396 54.8532 195.439C53.9209 196.874 52.0139 197.54 50.5561 198.309C48.7085 199.288 46.8693 200.047 44.8013 200.107C44.8013 200.166 44.7928 200.225 44.7589 200.275C44.6911 201.111 44.6148 201.947 44.5301 202.782C47.7592 203.34 52.7852 202.056 55.0142 200.081C55.0227 200.073 55.0396 200.09 55.0311 200.098C53.4632 201.643 51.5308 202.284 49.4204 202.732C47.844 203.069 46.115 203.5 44.4962 203.221C44.3436 204.766 44.1826 206.319 44.03 207.864C45.5302 207.704 47.0473 207.822 48.5474 207.619C50.768 207.324 52.6834 206.269 54.3192 204.783C54.4209 204.69 54.5735 204.825 54.4718 204.926C51.4036 207.847 47.9965 208.067 43.9707 208.438C43.8436 209.704 43.7249 210.979 43.6232 212.253C46.793 212.439 51.1664 211.587 53.353 209.358C53.514 209.198 53.7768 209.434 53.6158 209.594C52.2258 211.029 50.2934 211.663 48.3779 212.093C46.9964 212.397 45.0556 212.996 43.5724 212.735C43.5724 212.777 43.5639 212.819 43.5639 212.861C43.4198 214.693 43.3181 216.533 43.2588 218.365C46.8439 218.373 49.6577 216.432 52.7089 214.718C52.9208 214.6 53.1242 214.912 52.9123 215.039C49.7933 216.862 46.9456 218.88 43.2418 218.905C43.1909 220.399 43.1655 221.902 43.1486 223.396C46.2252 223.32 49.5899 222.003 52.0393 220.137C52.2173 220.002 52.3868 220.289 52.2173 220.424C49.6408 222.467 46.3692 223.683 43.1401 223.978C43.1316 225.582 43.1316 227.194 43.1401 228.798C46.2082 229.094 48.9458 227.827 51.3613 225.953C51.4206 225.911 51.4969 226.004 51.4376 226.055C49.2509 227.886 46.1574 229.853 43.1486 229.389C43.1486 229.904 43.1571 230.419 43.1571 230.925C43.1571 231.238 43.1655 231.55 43.1655 231.871C45.5556 231.778 47.827 231.499 50.0391 230.469C50.0984 230.444 50.1408 230.537 50.0815 230.562C47.9372 231.685 45.581 232.217 43.174 232.343C43.191 233.314 43.2164 234.31 43.2333 235.323C43.852 235.205 44.4538 235.061 45.1064 235.028C46.3014 234.977 47.1914 234.454 48.3016 234.124C48.4033 234.091 48.4712 234.243 48.3695 234.276C47.3863 234.614 46.6066 235.171 45.5556 235.289C44.7759 235.374 44.0131 235.551 43.2418 235.678C43.3011 239.704 43.1825 243.933 41.7756 247.428C41.462 248.204 40.055 248.078 40.0635 247.166C40.0889 244.389 40.8348 241.595 41.2162 238.843Z" fill="#747DED"/>
<path d="M27.469 242.169L27.8588 249.378L28.4775 260.604L29.4861 279.057H54.565L55.5736 260.604L56.1923 249.378L56.5822 242.169H27.469Z" fill="#95A8B5"/>
<path d="M27.8588 249.378L27.9436 250.821L28.0199 252.315L28.4775 260.604H55.5736L56.0312 252.315L56.1075 250.821L56.1923 249.378H27.8588Z" fill="#A5B7C6"/>
<path d="M27.9436 250.821L28.0199 252.315H56.0312L56.1075 250.821H27.9436Z" fill="#95A8B5"/>
<defs>
<radialGradient id="paint0_radial" cx="0" cy="0" r="1" gradientUnits="userSpaceOnUse" gradientTransform="translate(117.999 95.0509) rotate(180) scale(10.9549 10.9106)">
<stop stop-color="#FFC8AF"/>
<stop offset="1" stop-color="#FFBB9C"/>
</radialGradient>
<radialGradient id="paint1_radial" cx="0" cy="0" r="1" gradientUnits="userSpaceOnUse" gradientTransform="translate(124.337 75.3021) rotate(-167.896) scale(17.2679 17.2042)">
<stop stop-color="#FFC8AF"/>
<stop offset="1" stop-color="#FFBB9C"/>
</radialGradient>
<radialGradient id="paint2_radial" cx="0" cy="0" r="1" gradientUnits="userSpaceOnUse" gradientTransform="translate(141.355 259.797) rotate(180) scale(6.88707 6.85923)">
<stop stop-color="#FFC8AF"/>
<stop offset="1" stop-color="#FFBB9C"/>
</radialGradient>
<radialGradient id="paint3_radial" cx="0" cy="0" r="1" gradientUnits="userSpaceOnUse" gradientTransform="translate(184.973 261.517) rotate(180) scale(6.2731 6.24771)">
<stop stop-color="#FFC8AF"/>
<stop offset="1" stop-color="#FFBB9C"/>
</radialGradient>
<radialGradient id="paint4_radial" cx="0" cy="0" r="1" gradientUnits="userSpaceOnUse" gradientTransform="translate(146.781 144.279) rotate(180) scale(35.1258 34.9837)">
<stop stop-color="#FFC8AF"/>
<stop offset="1" stop-color="#FFBB9C"/>
</radialGradient>
<radialGradient id="paint5_radial" cx="0" cy="0" r="1" gradientUnits="userSpaceOnUse" gradientTransform="translate(146.781 144.279) rotate(180) scale(35.1256 34.9836)">
<stop stop-color="#FFC8AF"/>
<stop offset="1" stop-color="#FFBB9C"/>
</radialGradient>
<linearGradient id="paint6_linear" x1="27.8633" y1="184.86" x2="27.861" y2="238.293" gradientUnits="userSpaceOnUse">
<stop stop-color="#606BF1"/>
<stop offset="1" stop-color="#58479F"/>
</linearGradient>
<linearGradient id="paint7_linear" x1="70.4178" y1="189.199" x2="47.9223" y2="237.708" gradientUnits="userSpaceOnUse">
<stop stop-color="#606BF1"/>
<stop offset="1" stop-color="#58479F"/>
</linearGradient>
<linearGradient id="paint8_linear" x1="52.6809" y1="173.335" x2="36.5368" y2="237.477" gradientUnits="userSpaceOnUse">
<stop stop-color="#606BF1"/>
<stop offset="1" stop-color="#58479F"/>
</linearGradient>
</defs>
</svg>
