<svg width="104" height="26" viewBox="0 0 104 26" fill="none" xmlns="http://www.w3.org/2000/svg">
<path d="M28.7788 22.6036C28.9169 23.5978 28.5406 24.5473 27.8592 25.1424C27.7327 25.2542 27.5956 25.3523 27.4495 25.4366C27.3171 25.5119 27.179 25.5768 27.0329 25.6281C26.7014 25.7455 26.3561 25.7888 26.0165 25.7672C26.0073 25.7672 25.9981 25.7672 25.9889 25.7649C25.3053 25.7159 24.6469 25.4058 24.1808 24.9099C23.4247 24.1062 23.4465 23.1075 23.4556 22.8989C23.4556 22.7985 23.4603 22.7006 23.4718 22.6036H15.254C15.2656 22.7006 15.2702 22.7985 15.2702 22.8989C15.2794 23.1075 15.3013 24.1062 14.5451 24.9099C14.0789 25.4058 13.4206 25.7159 12.737 25.7649C12.7277 25.7672 12.7185 25.7672 12.7093 25.7672C12.3698 25.7888 12.0245 25.7455 11.6931 25.6281C11.5469 25.5768 11.4087 25.5119 11.2764 25.4366C11.1302 25.3523 10.9933 25.2542 10.8666 25.1436C10.8655 25.1436 10.8655 25.1424 10.8655 25.1424C10.1853 24.5462 9.80893 23.5978 9.94704 22.6036H6.98682C7.00638 22.5306 7.0271 22.4566 7.04666 22.3836C7.41496 21.0281 7.78327 19.6715 8.15157 18.3159L8.39327 18.3045L11.2211 18.1792C11.3489 18.1735 11.4467 18.0674 11.441 17.942C11.4352 17.8154 11.3305 17.7174 11.2004 17.7243L8.51871 17.8428L8.27818 17.8542C8.41168 17.3595 8.54634 16.8658 8.67985 16.3722L8.91349 16.3916L11.1843 16.5796H11.2039C11.3224 16.5796 11.4237 16.4896 11.4329 16.371C11.4433 16.2457 11.35 16.135 11.2234 16.1247L9.03549 15.9435L8.80185 15.9241C8.93766 15.4237 9.07348 14.9232 9.20929 14.4238L9.42566 14.507L11.5802 15.3313C11.6067 15.3416 11.6355 15.3473 11.6631 15.3473C11.7552 15.3473 11.8426 15.2914 11.8772 15.2014C11.9232 15.0839 11.8645 14.9517 11.7459 14.9061L9.54651 14.0635L9.33013 13.9815C10.5237 9.58778 11.7183 5.19409 12.9119 0.801514C13.774 3.42816 14.6348 6.05481 15.4957 8.68032C16.1035 8.37479 17.5203 7.74891 19.3548 7.77741H19.371C21.2055 7.74891 22.6224 8.37479 23.2301 8.68032C24.091 6.05481 24.9519 3.42816 25.814 0.801514C27.0075 5.19409 28.2022 9.58778 29.3957 13.9815L29.1794 14.0635L26.9799 14.9061C26.8613 14.9517 26.8015 15.0839 26.8475 15.2014C26.8832 15.2914 26.9707 15.3473 27.0628 15.3473C27.0904 15.3473 27.118 15.3416 27.1456 15.3313L29.3002 14.507L29.5166 14.4238C29.6523 14.9232 29.7882 15.4237 29.924 15.9241L29.6903 15.9435L27.5024 16.1247C27.3758 16.135 27.2814 16.2457 27.2917 16.371C27.3021 16.4896 27.4034 16.5796 27.5208 16.5796H27.5404L29.8124 16.3916L30.046 16.3722C30.1796 16.8658 30.3141 17.3595 30.4477 17.8542L30.2071 17.8428L27.5243 17.7243C27.3943 17.7196 27.2895 17.8154 27.2838 17.942C27.2779 18.0674 27.377 18.1735 27.5036 18.1792L30.3326 18.3045L30.5743 18.3159C30.9426 19.6715 31.3109 21.0281 31.6792 22.3836C31.6988 22.4566 31.7195 22.5306 31.739 22.6036H28.7788Z" fill="#F4E041"/>
<path d="M32.038 22.8316L31.9781 22.6127L31.9159 22.3835L30.8133 18.3261L30.5739 18.3159L30.3323 18.3045L31.4383 22.3755H28.5137L28.5494 22.6344C28.6587 23.4175 28.4239 24.1768 27.9532 24.724C27.8634 24.8289 27.7645 24.9258 27.6585 25.0124C27.6264 25.0398 27.5929 25.066 27.5596 25.09C27.4905 25.1424 27.4192 25.1892 27.3443 25.2313C27.2212 25.3032 27.0912 25.3647 26.9542 25.4126C26.7263 25.4935 26.4892 25.5368 26.251 25.5437C26.1726 25.546 26.0944 25.5437 26.0162 25.5391C25.9402 25.5346 25.8642 25.5254 25.7883 25.5129C25.2496 25.4274 24.7352 25.1652 24.3485 24.7537C23.7062 24.0707 23.6705 23.2363 23.6855 22.8988C23.6855 22.7997 23.6901 22.7118 23.6993 22.6297L23.7292 22.3755H14.9947L15.0246 22.6297C15.0339 22.7118 15.0396 22.7997 15.0396 22.9079C15.0534 23.2363 15.0177 24.0707 14.3754 24.7537C13.9888 25.1652 13.4743 25.4274 12.9368 25.5129C12.8609 25.5254 12.7849 25.5346 12.7089 25.5391C12.6307 25.5437 12.5525 25.546 12.4741 25.5437C12.2348 25.5368 11.9977 25.4935 11.7698 25.4126C11.634 25.3647 11.5039 25.3043 11.3819 25.2325H11.3807C11.3059 25.1902 11.2334 25.1424 11.1644 25.09C11.131 25.066 11.0976 25.0398 11.0654 25.0124C10.9595 24.9258 10.8605 24.8289 10.7707 24.724C10.3 24.1768 10.0652 23.4175 10.1746 22.6344L10.2102 22.3755H7.28683L8.39289 18.3045L8.15119 18.3159L7.91064 18.3261L6.80804 22.3835L6.74589 22.6127L6.68604 22.8316H9.6923C9.61635 24.1711 10.3944 25.4115 11.6144 25.8424C12.6768 26.2186 13.922 25.9063 14.7128 25.0649C15.4735 24.2554 15.5161 23.2728 15.5 22.8988C15.5 22.876 15.4989 22.8532 15.4989 22.8316H23.2252V22.8886C23.2079 23.2728 23.2504 24.2554 24.0113 25.0649C24.5798 25.6691 25.3808 25.9997 26.1807 25.9997C26.495 25.9997 26.8092 25.9484 27.1096 25.8424C28.3296 25.4115 29.1076 24.1711 29.0317 22.8316H32.038ZM8.67947 16.372L8.44583 16.3527L8.0361 17.8644L8.2778 17.8541L8.51835 17.8428L8.91311 16.3914L8.67947 16.372ZM25.8344 0L25.5937 0.730765C24.8756 2.92191 24.1563 5.11308 23.4381 7.30309L23.0917 8.3599C22.2158 7.95177 20.9174 7.52197 19.3706 7.54933H19.358C17.8065 7.52426 16.5082 7.95177 15.6324 8.3599L15.2859 7.30309C14.5677 5.11308 13.8495 2.92191 13.1302 0.730765L12.8897 0L9.11338 13.8982L9.32977 13.9815L9.54614 14.0635L12.9322 1.60176C13.571 3.55007 14.2098 5.49727 14.8474 7.44445L15.3596 9.00402L15.599 8.88317C16.423 8.4682 17.7478 7.97571 19.3545 8.00535H19.374C20.9854 7.97799 22.3009 8.4682 23.125 8.88317L23.3655 9.00402L23.8766 7.44445C24.5142 5.49727 25.1529 3.55007 25.7929 1.60176L29.1789 14.0635L29.3953 13.9815L29.6106 13.8982L25.8344 0ZM8.99253 14.3406L8.56783 15.9046L8.80147 15.924L9.03511 15.9434L9.42529 14.507L9.20891 14.4238L8.99253 14.3406ZM29.7314 14.3416L29.5162 14.4238L29.2998 14.507L29.69 15.9434L29.9236 15.924L30.1562 15.9058L29.7314 14.3416ZM30.2781 16.3527L30.0457 16.372L29.8119 16.3914L30.2068 17.8428L30.4473 17.8541L30.6878 17.8644L30.2781 16.3527Z" fill="black"/>
<path d="M21.1869 14.9493C20.9164 14.9493 20.6978 14.7326 20.6978 14.4647V11.528C20.6978 11.2601 20.9164 11.0435 21.1869 11.0435C21.4573 11.0435 21.676 11.2601 21.676 11.528V14.4647C21.676 14.7315 21.4573 14.9493 21.1869 14.9493Z" fill="black"/>
<path d="M17.8257 14.4364C17.5575 14.4648 17.3158 14.2721 17.287 14.0054L17.0487 11.7891C17.02 11.5235 17.2145 11.2841 17.4838 11.2556C17.752 11.2271 17.9937 11.4198 18.0225 11.6865L18.2607 13.9028C18.2895 14.1695 18.095 14.4078 17.8257 14.4364Z" fill="black"/>
<path d="M11.8748 15.2013C11.8403 15.2914 11.7528 15.3472 11.6607 15.3472C11.6331 15.3472 11.6043 15.3416 11.5778 15.3313L9.42329 14.507L9.2069 14.4238L8.99052 14.3406L5.85995 13.1424C5.74025 13.0968 5.68156 12.9646 5.72759 12.8471C5.77363 12.7297 5.90714 12.6716 6.02569 12.7172L9.11138 13.8982L9.32776 13.9814L9.54413 14.0635L11.7436 14.9061C11.8621 14.9517 11.9208 15.0839 11.8748 15.2013Z" fill="black"/>
<path d="M11.4305 16.3709C11.4213 16.4896 11.3201 16.5796 11.2015 16.5796H11.1819L8.91112 16.3915L8.67748 16.3721L8.44384 16.3527L5.07273 16.0734C4.94612 16.0631 4.85174 15.9526 4.86326 15.8271C4.8736 15.7018 4.98295 15.6082 5.11185 15.6197L8.56584 15.9047L8.79948 15.9241L9.03312 15.9434L11.2211 16.1248C11.3477 16.135 11.4409 16.2456 11.4305 16.3709Z" fill="black"/>
<path d="M11.4391 17.9421C11.4449 18.0676 11.347 18.1735 11.2193 18.1792L8.39142 18.3046L8.14972 18.3161L7.90917 18.3263L5.0951 18.4517H5.08474C4.96274 18.4517 4.86032 18.3559 4.85571 18.234C4.84996 18.1074 4.94779 18.0014 5.07438 17.9957L8.03462 17.8645L8.27631 17.8543L8.51687 17.843L11.1986 17.7243C11.3286 17.7175 11.4334 17.8156 11.4391 17.9421Z" fill="black"/>
<path d="M32.8616 13.1424L29.7299 14.3417L29.5146 14.4238L29.2983 14.507L27.1437 15.3313C27.1161 15.3416 27.0884 15.3472 27.0608 15.3472C26.9688 15.3472 26.8812 15.2914 26.8456 15.2013C26.7996 15.0839 26.8594 14.9517 26.9779 14.9061L29.1774 14.0635L29.3939 13.9814L29.609 13.8982L32.6958 12.7172C32.8132 12.6716 32.9479 12.7297 32.994 12.8471C33.0389 12.9646 32.9802 13.0968 32.8616 13.1424Z" fill="black"/>
<path d="M33.8569 15.8273C33.8672 15.9527 33.7728 16.0633 33.6462 16.0735L30.2751 16.3529L30.0426 16.3723L29.8089 16.3916L27.537 16.5797H27.5174C27.4 16.5797 27.2988 16.4897 27.2884 16.3711C27.278 16.2457 27.3725 16.1351 27.499 16.1248L29.687 15.9436L29.9206 15.9242L30.1531 15.906L33.6082 15.6198C33.7348 15.6072 33.8465 15.7018 33.8569 15.8273Z" fill="black"/>
<path d="M33.8652 18.234C33.8593 18.3559 33.7581 18.4517 33.6349 18.4517H33.6245L30.8105 18.3263L30.5711 18.316L30.3295 18.3046L27.5004 18.1793C27.3738 18.1735 27.2748 18.0675 27.2805 17.9422C27.2864 17.8155 27.391 17.7198 27.5211 17.7244L30.204 17.8429L30.4445 17.8543L30.685 17.8646L33.6453 17.9957C33.773 18.0013 33.8709 18.1074 33.8652 18.234Z" fill="black"/>
<path d="M25.9209 23.5795C26.0087 23.8303 26.0849 24.1359 26.1093 24.4859C26.1381 24.8974 26.0861 25.2554 26.0145 25.5392L25.9209 23.5795Z" fill="white"/>
<path d="M26.0155 25.7673C25.9971 25.7673 25.9786 25.765 25.9603 25.7605C25.8372 25.7308 25.7612 25.6066 25.7923 25.4846C25.8728 25.1596 25.9028 24.829 25.8797 24.5018C25.8601 24.2179 25.8003 23.933 25.7036 23.6547C25.6621 23.5362 25.7255 23.4062 25.8463 23.3653C25.9672 23.3242 26.0972 23.3868 26.1386 23.5066C26.2491 23.8223 26.3159 24.1472 26.3389 24.4711C26.3654 24.8461 26.3308 25.2234 26.2388 25.5951C26.2123 25.6977 26.1179 25.7673 26.0155 25.7673Z" fill="black"/>
<path d="M27.4219 23.4894C27.5629 23.714 27.6855 23.9876 27.7237 24.3011C27.7699 24.6694 27.6867 24.9897 27.5722 25.2451L27.4219 23.4894Z" fill="white"/>
<path d="M27.5718 25.4719C27.5407 25.4719 27.5096 25.4651 27.4785 25.4525C27.3622 25.4012 27.3093 25.2667 27.3611 25.1516C27.4831 24.878 27.5269 24.6009 27.4934 24.3274C27.4635 24.0879 27.3738 23.8463 27.2253 23.608C27.1586 23.5008 27.1919 23.3605 27.3001 23.2945C27.4083 23.2283 27.5499 23.2614 27.6167 23.3685C27.8008 23.6626 27.9124 23.9671 27.9504 24.2726C27.9941 24.6283 27.9377 24.9863 27.7823 25.3362C27.7443 25.4218 27.6604 25.4719 27.5718 25.4719Z" fill="black"/>
<path d="M12.803 23.5795C12.7152 23.8303 12.6389 24.1359 12.6146 24.4859C12.5857 24.8974 12.6377 25.2554 12.7093 25.5392L12.803 23.5795Z" fill="white"/>
<path d="M12.707 25.7673C12.6036 25.7673 12.5103 25.6976 12.4838 25.594C12.3917 25.2235 12.3572 24.845 12.3836 24.4698C12.4055 24.145 12.4734 23.8211 12.5839 23.5054C12.6254 23.3868 12.7566 23.3229 12.8762 23.364C12.996 23.405 13.0604 23.535 13.019 23.6536C12.9223 23.9317 12.8624 24.2156 12.8429 24.5006C12.8199 24.8278 12.8498 25.1585 12.9304 25.4834C12.9603 25.6054 12.8855 25.7296 12.7624 25.7593C12.7439 25.765 12.7255 25.7673 12.707 25.7673Z" fill="black"/>
<path d="M11.302 23.4894C11.161 23.714 11.0385 23.9876 11.0003 24.3011C10.9541 24.6694 11.0373 24.9897 11.1517 25.2451L11.302 23.4894Z" fill="white"/>
<path d="M11.1508 25.4719C11.0622 25.4719 10.9781 25.4206 10.9402 25.3362C10.7848 24.9873 10.7272 24.6294 10.7721 24.2726C10.8101 23.9671 10.9217 23.6638 11.1059 23.3685C11.1727 23.2614 11.3142 23.2283 11.4224 23.2945C11.5306 23.3605 11.564 23.5008 11.4972 23.608C11.3487 23.8451 11.259 24.0879 11.229 24.3274C11.1957 24.6009 11.2394 24.878 11.3614 25.1516C11.4132 25.2667 11.3603 25.4012 11.244 25.4525C11.2129 25.4662 11.1819 25.4719 11.1508 25.4719Z" fill="black"/>
<path d="M8.35528 22.7984H0.244843C0.11018 22.7984 0 22.711 0 22.6043C0 22.4976 0.11018 22.4103 0.244843 22.4103H8.35528C8.48994 22.4103 8.60012 22.4976 8.60012 22.6043C8.60012 22.711 8.48994 22.7984 8.35528 22.7984Z" fill="black"/>
<path d="M37.8846 22.8395H30.2595C30.1329 22.8395 30.0293 22.737 30.0293 22.6115C30.0293 22.4862 30.1329 22.3835 30.2595 22.3835H37.8846C38.0112 22.3835 38.1147 22.4862 38.1147 22.6115C38.1147 22.737 38.0123 22.8395 37.8846 22.8395Z" fill="black"/>
<path d="M21.7045 18.6444C21.5387 19.0707 21.1554 19.5324 20.6686 19.6021C20.2186 19.6647 19.8042 19.4264 19.5062 19.0559C19.4774 19.1345 19.4417 19.2155 19.3957 19.2964C19.3208 19.4288 18.9192 20.083 18.2493 20.083H18.2309C17.5933 20.0717 17.0398 19.496 16.9431 18.7424C16.9281 18.617 17.0167 18.503 17.1432 18.4881C17.2676 18.4722 17.385 18.5611 17.4 18.6854C17.4737 19.2668 17.8845 19.6213 18.2389 19.6271H18.2482C18.6706 19.6271 18.9618 19.1312 18.994 19.0742C19.1528 18.7914 19.1493 18.5018 19.1206 18.3115C19.1103 18.2762 19.101 18.2408 19.0918 18.2055C18.6488 18.2568 18.2666 18.1029 18.1964 17.8223C18.117 17.5032 18.4727 17.1407 18.9917 17.013C19.5119 16.8853 19.9976 17.0403 20.077 17.3596C20.1438 17.6229 19.9147 17.9147 19.5418 18.0812C19.5533 18.1233 19.5637 18.1736 19.5729 18.2282C19.7593 18.8416 20.2359 19.2007 20.6041 19.1505C20.8896 19.1094 21.1577 18.7822 21.274 18.4813C21.373 18.2259 21.3592 17.9854 21.3304 17.8292C21.3086 17.705 21.3914 17.5864 21.5157 17.5636C21.6423 17.5419 21.7608 17.624 21.7839 17.7471C21.8231 17.9615 21.8414 18.2898 21.7045 18.6444Z" fill="black"/>
<path d="M43.807 18.588C43.4136 18.588 43.2168 18.4796 43.2168 18.2628V9.33509H40.384C40.2856 9.33509 40.2118 9.3006 40.1626 9.23162C40.1135 9.16264 40.0889 9.04932 40.0889 8.89166V8.65516C40.0889 8.4975 40.1135 8.38418 40.1626 8.3152C40.2118 8.24622 40.2856 8.21173 40.384 8.21173H47.3039C47.4121 8.21173 47.4858 8.24622 47.5252 8.3152C47.5744 8.38418 47.5989 8.4975 47.5989 8.65516V8.89166C47.5989 9.04932 47.5744 9.16264 47.5252 9.23162C47.4858 9.3006 47.4121 9.33509 47.3039 9.33509H44.5152V18.2628C44.5152 18.4796 44.3185 18.588 43.9251 18.588H43.807ZM49.7801 18.5584C49.6227 18.5584 49.5096 18.5239 49.4407 18.455C49.3719 18.386 49.3375 18.2727 49.3375 18.115V8.65516C49.3375 8.4975 49.3719 8.38418 49.4407 8.3152C49.5096 8.24622 49.6227 8.21173 49.7801 8.21173H54.9295C55.0376 8.21173 55.1114 8.24622 55.1508 8.3152C55.1999 8.38418 55.2246 8.4975 55.2246 8.65516V8.89166C55.2246 9.04932 55.1999 9.16264 55.1508 9.23162C55.1114 9.3006 55.0376 9.33509 54.9295 9.33509H50.6359V12.7052H54.4868C54.595 12.7052 54.6688 12.7396 54.7081 12.8086C54.7573 12.8776 54.7819 12.9909 54.7819 13.1486V13.3851C54.7819 13.5427 54.7573 13.6561 54.7081 13.725C54.6688 13.794 54.595 13.8285 54.4868 13.8285H50.6359V17.4351H54.9442C55.0524 17.4351 55.1261 17.4696 55.1655 17.5385C55.2147 17.6075 55.2393 17.7208 55.2393 17.8785V18.115C55.2393 18.2727 55.2147 18.386 55.1655 18.455C55.1261 18.5239 55.0524 18.5584 54.9442 18.5584H49.7801ZM59.5462 18.6471C58.956 18.6471 58.4101 18.5781 57.9084 18.4402C57.4068 18.3022 57.028 18.1347 56.7723 17.9376C56.5854 17.7997 56.492 17.6765 56.492 17.5681C56.492 17.4499 56.5559 17.2873 56.6838 17.0803C56.8214 16.8734 56.9296 16.7699 57.0084 16.7699C57.0476 16.7699 57.1509 16.8192 57.3182 16.9177C57.6231 17.0852 57.9477 17.2281 58.292 17.3464C58.6461 17.4646 59.0641 17.5238 59.5462 17.5238C60.1166 17.5238 60.579 17.3661 60.9331 17.0508C61.297 16.7256 61.479 16.3019 61.479 15.7796C61.479 15.415 61.3806 15.1145 61.1839 14.878C60.9871 14.6316 60.7462 14.4395 60.461 14.3015C60.1855 14.1537 59.7822 13.9763 59.2511 13.7694C58.6805 13.5427 58.228 13.3358 57.8937 13.1486C57.5592 12.9614 57.274 12.6855 57.0379 12.3208C56.8018 11.9464 56.6838 11.4586 56.6838 10.8575C56.6838 10.3254 56.8166 9.85242 57.0822 9.43856C57.3575 9.02469 57.7411 8.70443 58.233 8.47779C58.7347 8.2413 59.3101 8.12305 59.9593 8.12305C60.2936 8.12305 60.6675 8.17232 61.0807 8.27086C61.4938 8.35954 61.8134 8.48272 62.0397 8.64038C62.2364 8.75863 62.3348 8.88673 62.3348 9.02469C62.3348 9.13308 62.2708 9.29075 62.143 9.49768C62.0249 9.70461 61.9314 9.80808 61.8626 9.80808C61.8134 9.80808 61.7396 9.78344 61.6413 9.73418C61.5528 9.68491 61.4938 9.65041 61.4643 9.63071C60.9724 9.3745 60.461 9.2464 59.9298 9.2464C59.3592 9.2464 58.897 9.39421 58.5429 9.68983C58.1985 9.98545 58.0265 10.3944 58.0265 10.9167C58.0265 11.2517 58.11 11.5227 58.2773 11.7296C58.4543 11.9365 58.651 12.0942 58.8675 12.2026C59.0937 12.3011 59.4821 12.4588 60.0331 12.6756C60.6233 12.9022 61.1051 13.1239 61.479 13.3407C61.8528 13.5477 62.1675 13.8531 62.4233 14.2572C62.6889 14.6513 62.8217 15.1588 62.8217 15.7796C62.8217 16.6665 62.5266 17.3661 61.9364 17.8785C61.3462 18.3909 60.5495 18.6471 59.5462 18.6471ZM67.3366 18.588C66.9431 18.588 66.7464 18.4796 66.7464 18.2628V9.33509H63.9135C63.8151 9.33509 63.7413 9.3006 63.6922 9.23162C63.6429 9.16264 63.6184 9.04932 63.6184 8.89166V8.65516C63.6184 8.4975 63.6429 8.38418 63.6922 8.3152C63.7413 8.24622 63.8151 8.21173 63.9135 8.21173H70.8334C70.9416 8.21173 71.0154 8.24622 71.0548 8.3152C71.1039 8.38418 71.1285 8.4975 71.1285 8.65516V8.89166C71.1285 9.04932 71.1039 9.16264 71.0548 9.23162C71.0154 9.3006 70.9416 9.33509 70.8334 9.33509H68.0448V18.2628C68.0448 18.4796 67.848 18.588 67.4546 18.588H67.3366ZM75.4342 18.588C75.0408 18.588 74.844 18.4796 74.844 18.2628V9.33509H72.0111C71.9129 9.33509 71.8391 9.3006 71.7898 9.23162C71.7407 9.16264 71.716 9.04932 71.716 8.89166V8.65516C71.716 8.4975 71.7407 8.38418 71.7898 8.3152C71.8391 8.24622 71.9129 8.21173 72.0111 8.21173H78.931C79.0393 8.21173 79.1131 8.24622 79.1524 8.3152C79.2016 8.38418 79.2261 8.4975 79.2261 8.65516V8.89166C79.2261 9.04932 79.2016 9.16264 79.1524 9.23162C79.1131 9.3006 79.0393 9.33509 78.931 9.33509H76.1424V18.2628C76.1424 18.4796 75.9457 18.588 75.5522 18.588H75.4342ZM79.7394 18.588C79.3166 18.588 79.105 18.5042 79.105 18.3367C79.105 18.2874 79.1198 18.2185 79.1493 18.1298L82.6461 8.41867C82.7051 8.261 82.9019 8.18217 83.2363 8.18217H83.6642C84.0183 8.18217 84.2151 8.261 84.2543 8.41867L87.7512 18.1446C87.7807 18.2135 87.7954 18.2776 87.7954 18.3367C87.7954 18.5042 87.584 18.588 87.161 18.588H87.043C86.6987 18.588 86.5021 18.5092 86.4528 18.3515L85.5823 15.9274H81.2444L80.4034 18.3515C80.3543 18.5092 80.1576 18.588 79.8132 18.588H79.7394ZM85.1839 14.8041L83.6347 10.3993C83.5855 10.2417 83.5265 9.95589 83.4576 9.54202H83.4281C83.3494 9.93619 83.2757 10.2219 83.2068 10.3993L81.6575 14.8041H85.1839ZM91.5769 18.6471C90.9867 18.6471 90.4408 18.5781 89.9391 18.4402C89.4375 18.3022 89.0587 18.1347 88.803 17.9376C88.6161 17.7997 88.5227 17.6765 88.5227 17.5681C88.5227 17.4499 88.5866 17.2873 88.7145 17.0803C88.8522 16.8734 88.9603 16.7699 89.0391 16.7699C89.0784 16.7699 89.1816 16.8192 89.349 16.9177C89.6538 17.0852 89.9784 17.2281 90.3228 17.3464C90.6769 17.4646 91.0949 17.5238 91.5769 17.5238C92.1473 17.5238 92.6097 17.3661 92.9638 17.0508C93.3277 16.7256 93.5097 16.3019 93.5097 15.7796C93.5097 15.415 93.4113 15.1145 93.2147 14.878C93.0178 14.6316 92.7769 14.4395 92.4917 14.3015C92.2162 14.1537 91.813 13.9763 91.2818 13.7694C90.7112 13.5427 90.2587 13.3358 89.9242 13.1486C89.5899 12.9614 89.3047 12.6855 89.0686 12.3208C88.8325 11.9464 88.7145 11.4586 88.7145 10.8575C88.7145 10.3254 88.8473 9.85242 89.1129 9.43856C89.3882 9.02469 89.7718 8.70443 90.2637 8.47779C90.7654 8.2413 91.3408 8.12305 91.99 8.12305C92.3244 8.12305 92.6982 8.17232 93.1114 8.27086C93.5245 8.35954 93.8441 8.48272 94.0704 8.64038C94.2671 8.75863 94.3655 8.88673 94.3655 9.02469C94.3655 9.13308 94.3015 9.29075 94.1737 9.49768C94.0557 9.70461 93.9621 9.80808 93.8934 9.80808C93.8441 9.80808 93.7703 9.78344 93.672 9.73418C93.5835 9.68491 93.5245 9.65041 93.495 9.63071C93.0031 9.3745 92.4917 9.2464 91.9605 9.2464C91.39 9.2464 90.9277 9.39421 90.5736 9.68983C90.2292 9.98545 90.0572 10.3944 90.0572 10.9167C90.0572 11.2517 90.1407 11.5227 90.308 11.7296C90.4851 11.9365 90.6817 12.0942 90.8982 12.2026C91.1244 12.3011 91.5129 12.4588 92.0638 12.6756C92.654 12.9022 93.1359 13.1239 93.5097 13.3407C93.8835 13.5477 94.1982 13.8531 94.454 14.2572C94.7196 14.6513 94.8524 15.1588 94.8524 15.7796C94.8524 16.6665 94.5573 17.3661 93.9671 17.8785C93.377 18.3909 92.5802 18.6471 91.5769 18.6471ZM97.3754 18.588C96.9819 18.588 96.7853 18.4796 96.7853 18.2628V8.50735C96.7853 8.29056 96.9819 8.18217 97.3754 8.18217H97.4935C97.8868 8.18217 98.0837 8.29056 98.0837 8.50735V13.0303H98.1427L101.772 8.38911C101.88 8.25115 102.146 8.18217 102.569 8.18217H102.717C102.884 8.18217 103.012 8.20188 103.1 8.2413C103.189 8.27086 103.233 8.3152 103.233 8.37432C103.233 8.46301 103.184 8.56155 103.085 8.66994L99.3968 13.2816L103.867 18.1446C103.956 18.2431 104 18.3219 104 18.3811C104 18.4599 103.951 18.5141 103.853 18.5436C103.754 18.5732 103.587 18.588 103.351 18.588H103.174C102.958 18.588 102.785 18.5781 102.658 18.5584C102.54 18.5387 102.441 18.4845 102.362 18.3958L98.1427 13.6364H98.0837V18.2628C98.0837 18.4796 97.8868 18.588 97.4935 18.588H97.3754Z" fill="black"/>
</svg>
