<svg width="467" height="177" viewBox="0 0 467 177" fill="none" xmlns="http://www.w3.org/2000/svg">
<mask id="mask0" mask-type="alpha" maskUnits="userSpaceOnUse" x="0" y="0" width="467" height="177">
<rect width="467" height="177" fill="#C4C4C4"/>
</mask>
<g mask="url(#mask0)">
<path d="M409.618 45.0689C407.164 45.4914 404.933 48.0142 404.014 51.4145C403.282 54.11 403.971 57.2762 405.524 58.3712C406.387 58.9872 407.675 59.1295 408.776 58.7524C409.891 58.3634 411.292 57.2413 412.06 56.1131C414.383 52.6887 414.679 48.5941 412.779 46.2393C411.945 45.2052 410.942 44.8364 409.618 45.0689Z" fill="#F0EDED"/>
<path d="M419.814 53.1996C417.619 53.6028 415.268 55.2924 413.846 57.495C413.187 58.5122 412.886 59.3696 412.71 60.7094C412.561 61.8419 412.573 62.0547 412.861 62.9403C413.412 64.6937 414.221 65.3021 416.221 65.462C417.234 65.5507 417.522 65.5076 418.621 65.1443C419.65 64.7992 420.089 64.5384 421.143 63.6904C422.467 62.6417 423.191 61.7463 424.056 60.0832C424.597 59.0489 424.854 57.2986 424.64 56.1564C424.431 55.0851 423.554 53.8619 422.723 53.5178C421.881 53.158 420.725 53.0346 419.814 53.1996Z" fill="#F0EDED"/>
<path d="M396.103 49.8738C394.661 50.1878 393.183 51.7915 392.302 53.987C391.92 54.9454 391.593 57.122 391.691 58.121C391.884 60.0342 392.986 62.2043 394.115 62.8444C395.268 63.502 396.965 63.1963 398.172 62.1167C399.562 60.8665 400.465 59.0257 400.746 56.885C401.227 53.2249 399.754 50.1856 397.357 49.8704C396.96 49.8136 396.394 49.8169 396.103 49.8738Z" fill="#F0EDED"/>
<path d="M401.332 64.2296C399.468 64.2582 397.157 64.9263 394.773 66.1469C392.116 67.4972 389.552 69.5785 389.014 70.7962C388.184 72.7037 388.689 74.704 390.29 75.8481C391.128 76.4465 392.174 76.8919 394.067 77.4586C396.011 78.0466 397.023 78.4449 397.961 79.0013C399.484 79.9231 400.15 80.6941 401.786 83.4192C402.482 84.5883 403.26 85.7411 403.512 85.9743C404.924 87.3304 406.91 87.6994 408.118 86.8169C409.594 85.7337 410.545 83.0132 410.748 79.2145C410.981 75.0825 410.792 72.9305 409.996 70.3819C409.408 68.4964 408.506 67.157 407.119 66.128C405.585 64.9796 403.182 64.199 401.332 64.2296Z" fill="#F0EDED"/>
<path d="M420.127 67.5281C418.678 67.6864 417.319 68.2798 415.934 69.39C414.217 70.7624 413.447 71.9045 413.142 73.5072C412.872 74.946 412.988 75.7083 413.591 76.6531C413.96 77.2266 414.25 77.4793 414.805 77.7698C417.673 79.2218 421.796 77.6876 423.957 74.3667C424.633 73.3237 424.672 73.2308 424.839 71.9602C424.999 70.7448 424.983 70.5595 424.715 69.8316C424.545 69.3851 424.223 68.8606 423.984 68.6293C423.081 67.8105 421.587 67.3855 420.127 67.5281Z" fill="#F0EDED"/>
<path d="M429.86 114.82C429.005 114.002 428.381 113.714 427.048 113.493C425.706 113.26 424.008 113.464 422.499 114.041C421.297 114.492 419.308 115.975 418.695 116.877C417.775 118.196 417.317 119.685 417.511 120.687C417.689 121.668 418.457 122.67 419.438 123.24C422.713 125.148 428.367 123.313 430.281 119.729C431.354 117.747 431.204 116.113 429.86 114.82Z" fill="#F0EDED"/>
<path d="M431.468 128.347C429.36 126.203 425.177 125.486 422.217 126.751C421.076 127.242 419.916 128.209 419.396 129.128C418.826 130.118 418.714 131.417 419.117 132.366C420.412 135.458 424.769 137.005 428.892 135.832C430.755 135.317 432.261 133.92 432.744 132.276C433.08 131.135 432.523 129.41 431.468 128.347Z" fill="#F0EDED"/>
<path d="M417.248 107.784C415.058 106.095 410.817 106.996 408.411 109.646C407.06 111.149 406.271 113.21 406.513 114.691C406.612 115.267 406.727 115.507 407.197 116.098C407.883 116.957 408.547 117.352 409.634 117.501C411.436 117.784 413.153 117.343 414.914 116.15C416.683 114.969 417.84 113.421 418.36 111.544C418.677 110.4 418.102 108.432 417.248 107.784Z" fill="#F0EDED"/>
<path d="M410.038 120.87C408.037 118.954 404.188 117.217 400.682 116.628C398.509 116.261 397.693 116.339 396.657 117.008C395.323 117.865 394.71 119.057 394.823 120.565C394.924 121.791 395.283 122.842 396.354 125.006C398.407 129.109 398.57 130.545 397.488 134.912C396.861 137.451 396.804 137.99 396.99 138.981C397.52 141.77 399.515 142.766 402.373 141.664C403.435 141.249 405.268 139.97 406.964 138.466C409.742 136.002 411.058 134.423 412.234 132.16C413.368 129.979 413.55 127.584 412.773 125.201C412.38 124.004 410.959 121.759 410.038 120.87Z" fill="#F0EDED"/>
<path d="M420.998 137.778C419.359 136.535 417.549 135.881 415.621 135.845C411.917 135.782 409.44 138.279 410.423 141.107C411.224 143.404 413.306 144.984 416.194 145.486C417.386 145.693 417.979 145.696 419.011 145.526C420.28 145.316 420.342 145.287 421.291 144.563C422.794 143.425 423.285 142.272 422.909 140.788C422.683 139.929 421.628 138.267 420.998 137.778Z" fill="#F0EDED"/>
<path d="M356.054 84.8228C354.367 84.9915 352.886 85.9092 351.669 87.5587C349.581 90.3578 348.972 93.6994 350.071 96.3662C350.628 97.7364 351.231 98.2365 352.596 98.5016C353.489 98.675 353.763 98.6574 354.439 98.4483C357.996 97.31 360.779 91.9801 359.824 88.1219C359.27 85.9013 357.837 84.6446 356.054 84.8228Z" fill="#F0EDED"/>
<path d="M365.967 93.428C363.162 93.6206 359.982 95.9949 358.715 98.8399C358.17 100.067 357.996 100.969 358.09 102.037C358.179 103.061 358.541 103.925 359.168 104.6C359.6 105.067 359.777 105.144 360.819 105.389C361.717 105.606 362.187 105.64 362.921 105.556C365.334 105.273 367.812 103.486 369.371 100.91C369.892 100.047 370.019 99.717 370.207 98.6617C370.489 97.1566 370.385 96.2148 369.817 95.2111C369.59 94.8124 369.17 94.348 368.893 94.1523C368.211 93.7081 366.848 93.3581 365.967 93.428Z" fill="#F0EDED"/>
<path d="M342.202 88.9385C340.081 89.3348 338.051 91.9609 337.508 95.0036C337.124 97.1553 337.445 99.0893 338.446 100.631C339.106 101.652 339.798 102.113 340.867 102.207C341.853 102.314 342.679 102.02 343.677 101.222C345.087 100.092 346.036 98.3475 346.425 96.1683C346.804 94.044 346.523 92.1176 345.622 90.6238C344.934 89.455 343.409 88.7192 342.202 88.9385Z" fill="#F0EDED"/>
<path d="M345.513 103.578C344.165 103.671 341.106 104.608 339.336 105.47C337.626 106.3 335.138 108.072 334.455 108.932C333.185 110.571 333.349 113 334.823 114.406C335.52 115.066 336.606 115.604 339 116.494C343.28 118.077 344.151 118.828 346.23 122.706C347.852 125.716 348.6 126.471 350.309 126.788C353.044 127.291 354.841 124.521 355.406 118.915C356.231 110.865 354.819 106.676 350.585 104.606C349.149 103.901 347.038 103.477 345.513 103.578Z" fill="#F0EDED"/>
<path d="M365.712 107.801C363.517 107.771 361.17 108.904 359.427 110.834C358.617 111.726 358.149 112.67 357.944 113.821C357.538 116.097 358.482 117.584 360.752 118.252C363.06 118.942 366.317 117.731 368.297 115.464C370.07 113.44 370.453 111.061 369.301 109.377C368.676 108.462 367.191 107.804 365.712 107.801Z" fill="#F0EDED"/>
<path d="M290.209 114.824C288.57 114.376 286.877 114.706 285.189 115.817C282.306 117.695 280.632 120.613 280.784 123.512C280.855 124.998 281.257 125.685 282.451 126.424C283.231 126.907 283.495 126.99 284.198 127.036C287.913 127.245 292.284 123.241 292.66 119.276C292.872 116.992 291.942 115.297 290.209 114.824Z" fill="#F0EDED"/>
<path d="M296.677 126.464C293.981 125.638 290.212 126.724 288.084 128.94C287.167 129.896 286.706 130.68 286.443 131.717C286.189 132.71 286.243 133.652 286.609 134.511C286.861 135.104 287.001 135.24 287.899 135.845C288.671 136.371 289.1 136.572 289.818 136.757C292.177 137.358 295.092 136.57 297.406 134.712C298.179 134.089 298.407 133.825 298.932 132.902C299.693 131.59 299.906 130.668 299.704 129.522C299.622 129.066 299.381 128.479 299.186 128.196C298.693 127.534 297.528 126.716 296.677 126.464Z" fill="#F0EDED"/>
<path d="M275.846 113.711C273.724 113.321 270.952 115.058 269.439 117.719C268.369 119.602 268.032 121.533 268.464 123.34C268.746 124.536 269.244 125.217 270.217 125.69C271.107 126.144 271.98 126.165 273.18 125.774C274.877 125.22 276.343 123.923 277.427 122.017C278.483 120.159 278.855 118.249 278.501 116.523C278.241 115.178 277.052 113.939 275.846 113.711Z" fill="#F0EDED"/>
<path d="M274.13 128.646C272.835 128.249 269.652 128.03 267.706 128.203C265.827 128.369 262.905 129.138 261.98 129.7C260.247 130.783 259.6 133.122 260.519 134.972C260.956 135.842 261.798 136.736 263.753 138.432C267.249 141.455 267.82 142.472 268.492 146.86C269.022 150.268 269.475 151.245 270.975 152.157C273.377 153.611 275.979 151.656 278.359 146.597C281.79 139.336 281.846 134.897 278.554 131.432C277.438 130.255 275.596 129.099 274.13 128.646Z" fill="#F0EDED"/>
<path d="M291.698 139.868C289.647 139.052 287.07 139.271 284.797 140.457C283.741 141.003 282.991 141.722 282.419 142.729C281.287 144.719 281.682 146.455 283.594 147.898C285.533 149.375 288.99 149.408 291.597 147.991C293.929 146.728 295.074 144.633 294.547 142.637C294.263 141.553 293.085 140.403 291.698 139.868Z" fill="#F0EDED"/>
<path d="M221.752 140.068C220.473 138.909 218.815 138.421 216.831 138.636C213.449 138.986 210.708 140.827 209.614 143.496C209.046 144.862 209.115 145.663 209.871 146.878C210.366 147.672 210.567 147.868 211.178 148.235C214.419 150.141 220.038 148.574 222.059 145.193C223.219 143.244 223.105 141.294 221.752 140.068Z" fill="#F0EDED"/>
<path d="M222.607 153.496C220.541 151.507 216.701 150.738 213.852 151.739C212.625 152.173 211.878 152.662 211.202 153.47C210.553 154.242 210.202 155.112 210.165 156.051C210.139 156.7 210.207 156.886 210.755 157.843C211.223 158.672 211.523 159.051 212.087 159.549C213.946 161.179 216.895 161.822 219.758 161.226C220.716 161.025 221.032 160.894 221.895 160.309C223.134 159.485 223.717 158.758 224.022 157.637C224.142 157.19 224.176 156.553 224.12 156.208C223.959 155.387 223.263 154.114 222.607 153.496Z" fill="#F0EDED"/>
<path d="M209.35 132.427C207.613 131.096 204.391 131.37 201.904 133.056C200.146 134.248 199.024 135.823 198.643 137.643C198.388 138.846 198.545 139.686 199.217 140.56C199.822 141.379 200.595 141.802 201.837 142.007C203.593 142.295 205.459 141.811 207.239 140.603C208.976 139.426 210.12 137.886 210.536 136.175C210.874 134.85 210.334 133.189 209.35 132.427Z" fill="#F0EDED"/>
<path d="M201.469 145.021C200.476 144.065 197.717 142.397 195.899 141.652C194.143 140.931 191.198 140.269 190.13 140.345C188.116 140.514 186.543 142.311 186.582 144.395C186.604 145.376 186.979 146.568 188.011 148.992C189.862 153.32 189.941 154.495 188.68 158.739C187.708 162.039 187.699 163.125 188.656 164.636C190.192 167.051 193.355 166.502 197.637 163.068C203.796 158.147 205.732 154.193 204.251 149.565C203.751 147.993 202.591 146.105 201.469 145.021Z" fill="#F0EDED"/>
<path d="M212.452 163.206C210.96 161.526 208.556 160.531 206.015 160.542C204.837 160.544 203.859 160.841 202.919 161.479C201.059 162.74 200.676 164.478 201.777 166.656C202.888 168.877 205.973 170.506 208.911 170.442C211.538 170.388 213.454 169.039 213.83 167.007C214.035 165.904 213.468 164.328 212.452 163.206Z" fill="#F0EDED"/>
<path d="M128.727 120.74C127.033 120.687 125.454 121.405 124.049 122.882C121.642 125.387 120.637 128.623 121.409 131.412C121.797 132.844 122.336 133.419 123.658 133.86C124.523 134.149 124.798 134.167 125.493 134.048C129.158 133.382 132.558 128.457 132.073 124.505C131.788 122.229 130.518 120.796 128.727 120.74Z" fill="#F0EDED"/>
<path d="M137.532 130.571C134.726 130.396 131.287 132.337 129.689 134.994C129.001 136.141 128.72 137.013 128.686 138.085C128.652 139.112 128.907 140.017 129.448 140.768C129.822 141.288 129.987 141.387 130.992 141.766C131.858 142.099 132.319 142.194 133.058 142.207C135.486 142.241 138.158 140.79 140.014 138.438C140.634 137.65 140.799 137.339 141.112 136.317C141.572 134.86 141.582 133.912 141.139 132.842C140.961 132.417 140.6 131.901 140.348 131.671C139.725 131.142 138.415 130.617 137.532 130.571Z" fill="#F0EDED"/>
<path d="M114.491 123.017C112.339 123.133 110.01 125.474 109.108 128.422C108.469 130.507 108.555 132.467 109.364 134.127C109.897 135.227 110.528 135.774 111.578 136.007C112.543 136.241 113.398 136.058 114.484 135.396C116.018 134.459 117.169 132.852 117.815 130.74C118.446 128.682 118.398 126.734 117.682 125.135C117.14 123.885 115.714 122.956 114.491 123.017Z" fill="#F0EDED"/>
<path d="M116.022 137.973C114.675 137.89 111.527 138.42 109.668 139.044C107.872 139.646 105.191 141.079 104.41 141.843C102.954 143.304 102.826 145.735 104.12 147.322C104.732 148.068 105.745 148.743 108.014 149.938C112.071 152.067 112.846 152.926 114.443 157.045C115.693 160.242 116.344 161.089 118.002 161.627C120.655 162.483 122.77 159.968 124.002 154.481C125.784 146.601 124.885 142.261 120.931 139.655C119.591 138.768 117.548 138.072 116.022 137.973Z" fill="#F0EDED"/>
<path d="M135.558 144.797C133.384 144.482 130.92 145.299 128.959 146.987C128.048 147.766 127.471 148.642 127.13 149.758C126.455 151.962 127.213 153.561 129.385 154.52C131.592 155.505 134.969 154.729 137.205 152.738C139.206 150.961 139.871 148.651 138.93 146.829C138.42 145.84 137.025 144.994 135.558 144.797Z" fill="#F0EDED"/>
<path d="M28.0252 151.597C26.3316 151.544 24.7526 152.262 23.3471 153.739C20.9405 156.244 19.9356 159.48 20.7072 162.269C21.0956 163.701 21.6343 164.276 22.9567 164.717C23.8214 165.006 24.0961 165.024 24.7913 164.905C28.4566 164.239 31.8566 159.314 31.371 155.362C31.0868 153.086 29.816 151.653 28.0252 151.597Z" fill="#F0EDED"/>
<path d="M36.8301 161.427C34.0246 161.252 30.5854 163.193 28.9869 165.85C28.2995 166.997 28.0185 167.869 27.9846 168.941C27.9502 169.968 28.2058 170.873 28.7465 171.624C29.12 172.144 29.2858 172.243 30.2908 172.622C31.156 172.955 31.6173 173.05 32.3563 173.063C34.7844 173.097 37.4567 171.646 39.3121 169.294C39.9319 168.506 40.0972 168.195 40.4102 167.173C40.8702 165.716 40.8802 164.768 40.437 163.698C40.2589 163.273 39.8982 162.758 39.6464 162.527C39.0238 161.998 37.713 161.473 36.8301 161.427Z" fill="#F0EDED"/>
<path d="M13.7891 153.874C11.6372 153.99 9.30872 156.331 8.40595 159.279C7.76751 161.364 7.85381 163.324 8.66278 164.984C9.19498 166.084 9.82625 166.631 10.8761 166.864C11.8414 167.098 12.6964 166.915 13.7821 166.253C15.3164 165.315 16.4671 163.709 17.1137 161.597C17.744 159.539 17.6959 157.591 16.9805 155.992C16.4381 154.742 15.0128 153.813 13.7891 153.874Z" fill="#F0EDED"/>
<path d="M15.3207 168.83C13.9729 168.747 10.8251 169.277 8.96617 169.901C7.17033 170.503 4.48914 171.936 3.70856 172.7C2.25215 174.161 2.12448 176.592 3.41824 178.179C4.03078 178.925 5.0436 179.6 7.31233 180.795C11.3696 182.924 12.1439 183.783 13.7418 187.902C14.9912 191.099 15.6429 191.946 17.3001 192.484C19.9533 193.34 22.0687 190.825 23.3004 185.338C25.0826 177.458 24.1829 173.118 20.2299 170.512C18.8894 169.625 16.8461 168.929 15.3207 168.83Z" fill="#F0EDED"/>
<path d="M34.8567 175.654C32.6829 175.339 30.2184 176.156 28.2581 177.844C27.3469 178.623 26.7703 179.499 26.4288 180.615C25.7538 182.819 26.5114 184.418 28.6843 185.377C30.8913 186.362 34.2682 185.586 36.5036 183.595C38.5051 181.818 39.1704 179.508 38.2286 177.686C37.7188 176.697 36.324 175.851 34.8567 175.654Z" fill="#F0EDED"/>
<path d="M368.231 155.422C366.959 154.399 365.434 154.02 363.4 154.22C359.849 154.573 357.015 156.606 356.142 159.425C356.006 159.867 355.951 160.503 355.994 160.849C356.559 164.573 362.089 165.744 366.459 163.076C368.059 162.092 368.914 161.086 369.476 159.516C369.968 158.121 369.447 156.4 368.231 155.422Z" fill="#F0EDED"/>
<path d="M356.748 147.951C356.17 147.323 355.716 147.103 354.665 146.899C352.817 146.528 350.875 146.915 349.099 148.025C347.35 149.102 346.208 150.531 345.699 152.247C345.329 153.501 345.395 154.24 345.93 155.172C347.888 158.528 354.311 157.321 356.838 153.125C357.111 152.679 357.43 152.041 357.542 151.694C357.946 150.581 357.579 148.829 356.748 147.951Z" fill="#F0EDED"/>
<path d="M368.612 168.861C367.227 167.696 365.263 166.959 363.247 166.839C358.687 166.572 355.345 169.864 356.891 173.072C358.268 175.931 362.105 177.543 365.926 176.875C368.599 176.405 370.582 174.353 370.476 172.162C370.431 171.378 369.365 169.494 368.612 168.861Z" fill="#F0EDED"/>
<path d="M348.836 160.719C347.609 159.26 345.761 157.914 343.274 156.675C341.57 155.824 337.942 154.795 336.918 154.883C336.084 154.949 334.812 155.582 334.305 156.191C332.95 157.817 333.034 159.454 334.628 163.477C336.281 167.657 336.337 169.002 334.948 173.2C334.119 175.716 334.016 176.187 334.1 177.255C334.186 178.354 334.911 179.752 335.633 180.195C337.716 181.491 341.195 180.145 345.784 176.285C348.709 173.84 350.324 171.58 350.939 169.1C351.3 167.64 351.274 166.13 350.84 164.614C350.57 163.63 349.438 161.414 348.836 160.719Z" fill="#F0EDED"/>
<path d="M358.093 178.07C356.633 176.612 354.369 175.705 352.035 175.654C349.743 175.594 347.604 177.077 347.246 178.974C346.898 180.865 348.447 183.372 350.782 184.673C352.442 185.584 355.013 185.941 356.651 185.485C358.883 184.87 360.208 183.001 359.772 181.049C359.574 180.133 358.812 178.807 358.093 178.07Z" fill="#F0EDED"/>
<path d="M474.359 33.1304C473.25 32.7743 472.568 32.7933 471.272 33.1899C469.965 33.5798 468.515 34.5247 467.388 35.7215C466.488 36.6665 465.3 38.8963 465.117 39.9861C464.828 41.5891 465.026 43.1393 465.613 43.9584C466.177 44.7639 467.282 45.3258 468.403 45.4017C472.145 45.659 476.499 41.4703 476.756 37.3762C476.911 35.1058 476.104 33.6964 474.359 33.1304Z" fill="#F0EDED"/>
<path d="M460.074 32.419C457.402 31.8733 453.94 34.5863 452.856 38.0563C452.253 40.0194 452.387 42.2343 453.214 43.4636C453.54 43.9402 453.742 44.1054 454.41 44.429C455.382 44.8974 456.145 44.957 457.188 44.6051C458.932 44.0541 460.302 42.8871 461.403 41.0215C462.515 39.1627 462.925 37.247 462.623 35.3177C462.44 34.1425 461.111 32.6221 460.074 32.419Z" fill="#F0EDED"/>
<path d="M458.937 47.4685C456.342 46.6335 452.151 46.7867 448.742 47.824C446.629 48.4644 445.923 48.9004 445.262 49.9685C444.409 51.3399 444.346 52.691 445.067 54.0027C445.662 55.0653 446.418 55.8545 448.274 57.3299C451.815 60.117 452.552 61.3421 453.369 65.7714C453.846 68.3448 454.016 68.8579 454.591 69.6701C456.217 71.9524 458.428 71.959 460.557 69.6845C461.346 68.8343 462.475 66.8578 463.39 64.7405C464.887 61.2707 465.427 59.255 465.56 56.6842C465.688 54.2069 464.868 51.9611 463.187 50.1567C462.341 49.2511 460.134 47.8596 458.937 47.4685Z" fill="#F0EDED"/>
<path d="M475.786 57.837C473.794 57.4471 471.89 57.6663 470.134 58.4976C466.762 60.0977 465.55 63.4621 467.6 65.5769C469.267 67.2936 471.798 67.7892 474.613 66.9499C475.775 66.6033 476.312 66.3407 477.174 65.7247C478.234 64.9679 478.278 64.9138 478.838 63.8348C479.728 62.1343 479.698 60.8725 478.749 59.7001C478.192 59.0258 476.556 57.9968 475.786 57.837Z" fill="#F0EDED"/>
<path d="M83.82 177.453C83.1734 176.901 82.6982 176.739 81.6313 176.667C79.7541 176.529 77.8695 177.154 76.233 178.477C74.62 179.764 73.6495 181.325 73.3391 183.092C73.1152 184.383 73.2648 185.108 73.9026 185.967C76.2295 189.056 82.4692 187.059 84.4996 182.579C84.7196 182.101 84.9634 181.428 85.0355 181.07C85.3096 179.914 84.7449 178.221 83.82 177.453Z" fill="#F0EDED"/>
</g>
</svg>
