<svg width="972" height="177" viewBox="0 0 972 177" fill="none" xmlns="http://www.w3.org/2000/svg">
<mask id="mask0" mask-type="alpha" maskUnits="userSpaceOnUse" x="0" y="0" width="972" height="177">
<rect width="972" height="177" fill="#C4C4C4"/>
</mask>
<g mask="url(#mask0)">
<path d="M409.618 45.0689C407.164 45.4914 404.933 48.0142 404.014 51.4145C403.282 54.11 403.971 57.2762 405.524 58.3712C406.387 58.9872 407.675 59.1295 408.776 58.7524C409.891 58.3634 411.292 57.2413 412.06 56.1131C414.383 52.6887 414.679 48.5941 412.779 46.2393C411.945 45.2052 410.942 44.8364 409.618 45.0689Z" fill="#F0EDED"/>
<path d="M419.814 53.1996C417.619 53.6028 415.268 55.2924 413.846 57.495C413.187 58.5122 412.886 59.3696 412.71 60.7094C412.561 61.8419 412.573 62.0547 412.861 62.9403C413.412 64.6937 414.221 65.3021 416.221 65.462C417.234 65.5507 417.522 65.5076 418.621 65.1443C419.65 64.7992 420.089 64.5384 421.143 63.6904C422.467 62.6417 423.191 61.7463 424.056 60.0832C424.597 59.0489 424.854 57.2986 424.64 56.1564C424.431 55.0851 423.554 53.8619 422.723 53.5178C421.881 53.158 420.725 53.0346 419.814 53.1996Z" fill="#F0EDED"/>
<path d="M396.103 49.8738C394.661 50.1878 393.183 51.7915 392.302 53.987C391.92 54.9454 391.593 57.122 391.691 58.121C391.884 60.0342 392.986 62.2043 394.115 62.8444C395.268 63.502 396.965 63.1963 398.172 62.1167C399.562 60.8665 400.465 59.0257 400.746 56.885C401.227 53.2249 399.754 50.1856 397.357 49.8704C396.96 49.8136 396.394 49.8169 396.103 49.8738Z" fill="#F0EDED"/>
<path d="M401.332 64.2296C399.468 64.2582 397.157 64.9263 394.773 66.1469C392.116 67.4972 389.552 69.5785 389.014 70.7962C388.184 72.7037 388.689 74.704 390.29 75.8481C391.128 76.4465 392.174 76.8919 394.067 77.4586C396.011 78.0466 397.023 78.4449 397.961 79.0013C399.484 79.9231 400.15 80.6941 401.786 83.4192C402.482 84.5883 403.26 85.7411 403.512 85.9743C404.924 87.3304 406.91 87.6994 408.118 86.8169C409.594 85.7337 410.545 83.0132 410.748 79.2145C410.981 75.0825 410.792 72.9305 409.996 70.3819C409.408 68.4964 408.506 67.157 407.119 66.128C405.585 64.9796 403.182 64.199 401.332 64.2296Z" fill="#F0EDED"/>
<path d="M420.127 67.5281C418.678 67.6864 417.319 68.2798 415.934 69.39C414.217 70.7624 413.447 71.9045 413.142 73.5072C412.872 74.946 412.988 75.7083 413.591 76.6531C413.96 77.2266 414.25 77.4793 414.805 77.7698C417.673 79.2218 421.796 77.6876 423.957 74.3667C424.633 73.3237 424.672 73.2308 424.839 71.9602C424.999 70.7448 424.983 70.5595 424.715 69.8316C424.545 69.3851 424.223 68.8606 423.984 68.6293C423.081 67.8105 421.587 67.3855 420.127 67.5281Z" fill="#F0EDED"/>
<path d="M429.86 114.82C429.005 114.002 428.381 113.714 427.048 113.493C425.706 113.26 424.008 113.464 422.499 114.041C421.297 114.492 419.308 115.975 418.695 116.877C417.775 118.196 417.317 119.685 417.511 120.687C417.689 121.668 418.457 122.67 419.438 123.24C422.713 125.148 428.367 123.313 430.281 119.729C431.354 117.747 431.204 116.113 429.86 114.82Z" fill="#F0EDED"/>
<path d="M431.468 128.347C429.36 126.203 425.177 125.486 422.217 126.751C421.076 127.242 419.916 128.209 419.396 129.128C418.826 130.118 418.714 131.417 419.117 132.366C420.412 135.458 424.769 137.005 428.892 135.832C430.755 135.317 432.261 133.92 432.744 132.276C433.08 131.135 432.523 129.41 431.468 128.347Z" fill="#F0EDED"/>
<path d="M417.248 107.784C415.058 106.095 410.817 106.996 408.411 109.646C407.06 111.149 406.271 113.21 406.513 114.691C406.612 115.267 406.727 115.507 407.197 116.098C407.883 116.957 408.547 117.352 409.634 117.501C411.436 117.784 413.153 117.343 414.914 116.15C416.683 114.969 417.84 113.421 418.36 111.544C418.677 110.4 418.102 108.432 417.248 107.784Z" fill="#F0EDED"/>
<path d="M410.038 120.87C408.037 118.954 404.188 117.217 400.682 116.628C398.509 116.261 397.693 116.339 396.657 117.008C395.323 117.865 394.71 119.057 394.823 120.565C394.924 121.791 395.283 122.842 396.354 125.006C398.407 129.109 398.57 130.545 397.488 134.912C396.861 137.451 396.804 137.99 396.99 138.981C397.52 141.77 399.515 142.766 402.373 141.664C403.435 141.249 405.268 139.97 406.964 138.466C409.742 136.002 411.058 134.423 412.234 132.16C413.368 129.979 413.55 127.584 412.773 125.201C412.38 124.004 410.959 121.759 410.038 120.87Z" fill="#F0EDED"/>
<path d="M420.998 137.778C419.359 136.535 417.549 135.881 415.621 135.845C411.917 135.782 409.44 138.279 410.423 141.107C411.224 143.404 413.306 144.984 416.194 145.486C417.386 145.693 417.979 145.696 419.011 145.526C420.28 145.316 420.342 145.287 421.291 144.563C422.794 143.425 423.285 142.272 422.909 140.788C422.683 139.929 421.628 138.267 420.998 137.778Z" fill="#F0EDED"/>
<path d="M513.509 88.9761C512.654 88.1582 512.03 87.87 510.696 87.6484C509.355 87.4154 507.656 87.6199 506.147 88.197C504.946 88.6476 502.957 90.1303 502.343 91.0328C501.424 92.3517 500.965 93.8405 501.159 94.8432C501.337 95.8233 502.105 96.8259 503.086 97.3959C506.361 99.3034 512.016 97.4683 513.929 93.8845C515.003 91.903 514.853 90.2685 513.509 88.9761Z" fill="#F0EDED"/>
<path d="M515.116 102.503C513.009 100.359 508.825 99.6422 505.866 100.907C504.725 101.398 503.565 102.365 503.044 103.284C502.474 104.274 502.362 105.573 502.765 106.522C504.061 109.614 508.418 111.16 512.54 109.988C514.403 109.472 515.909 108.076 516.393 106.431C516.728 105.291 516.171 103.566 515.116 102.503Z" fill="#F0EDED"/>
<path d="M500.897 81.9397C498.707 80.2506 494.465 81.1523 492.06 83.8015C490.709 85.3051 489.92 87.3659 490.161 88.8465C490.26 89.4232 490.375 89.6629 490.845 90.2541C491.531 91.1125 492.196 91.5076 493.282 91.6564C495.085 91.9395 496.802 91.4984 498.563 90.3057C500.331 89.1243 501.488 87.577 502.009 85.6993C502.326 84.5556 501.75 82.5874 500.897 81.9397Z" fill="#F0EDED"/>
<path d="M493.686 95.026C491.685 93.1102 487.836 91.3729 484.33 90.7839C482.158 90.4166 481.341 90.4945 480.305 91.1636C478.971 92.0207 478.359 93.2129 478.472 94.7209C478.573 95.947 478.931 96.9982 480.002 99.162C482.055 103.264 482.218 104.701 481.136 109.068C480.51 111.606 480.452 112.146 480.638 113.137C481.169 115.926 483.164 116.922 486.021 115.82C487.084 115.405 488.916 114.125 490.612 112.622C493.391 110.158 494.707 108.578 495.883 106.315C497.017 104.135 497.199 101.739 496.421 99.3568C496.029 98.1599 494.607 95.9151 493.686 95.026Z" fill="#F0EDED"/>
<path d="M504.646 111.934C503.007 110.69 501.197 110.036 499.269 110.001C495.565 109.937 493.088 112.434 494.072 115.262C494.872 117.559 496.955 119.14 499.842 119.641C501.034 119.849 501.627 119.852 502.66 119.681C503.928 119.472 503.99 119.443 504.939 118.719C506.442 117.581 506.933 116.427 506.558 114.944C506.331 114.085 505.276 112.423 504.646 111.934Z" fill="#F0EDED"/>
<path d="M585.232 116.342C584.706 115.282 584.217 114.799 583.039 114.137C581.857 113.461 580.19 113.076 578.575 113.105C577.291 113.12 574.916 113.837 574.032 114.477C572.719 115.404 571.781 116.648 571.622 117.657C571.456 118.639 571.838 119.844 572.566 120.713C574.997 123.621 580.938 123.82 583.957 121.101C585.641 119.603 586.056 118.015 585.232 116.342Z" fill="#F0EDED"/>
<path d="M582.14 129.609C580.888 126.876 577.198 124.778 573.985 124.96C572.745 125.034 571.325 125.549 570.523 126.235C569.65 126.972 569.103 128.156 569.159 129.186C569.325 132.534 572.896 135.47 577.171 135.771C579.098 135.92 580.99 135.119 582.004 133.737C582.708 132.779 582.771 130.967 582.14 129.609Z" fill="#F0EDED"/>
<path d="M575.766 105.435C574.281 103.101 569.986 102.506 566.823 104.179C565.041 105.133 563.597 106.802 563.321 108.277C563.218 108.853 563.244 109.117 563.485 109.833C563.838 110.874 564.329 111.471 565.3 111.981C566.898 112.86 568.663 113.03 570.725 112.507C572.79 111.998 574.404 110.937 575.532 109.349C576.22 108.381 576.348 106.334 575.766 105.435Z" fill="#F0EDED"/>
<path d="M564.533 115.287C563.303 112.804 560.275 109.861 557.179 108.114C555.261 107.03 554.466 106.825 553.265 107.102C551.719 107.454 550.737 108.367 550.33 109.823C550.008 111.01 549.987 112.121 550.258 114.52C550.793 119.076 550.457 120.483 547.954 124.221C546.501 126.395 546.264 126.882 546.102 127.878C545.651 130.681 547.189 132.296 550.25 132.232C551.39 132.203 553.549 131.624 555.656 130.787C559.107 129.415 560.881 128.378 562.757 126.65C564.566 124.985 565.552 122.795 565.632 120.29C565.67 119.031 565.097 116.436 564.533 115.287Z" fill="#F0EDED"/>
<path d="M569.086 134.915C567.968 133.188 566.489 131.957 564.688 131.268C561.226 129.948 558.048 131.453 558.01 134.447C557.981 136.879 559.402 139.074 561.946 140.528C562.997 141.129 563.554 141.333 564.582 141.524C565.846 141.759 565.915 141.753 567.053 141.395C568.854 140.836 569.708 139.919 569.86 138.396C569.939 137.511 569.512 135.59 569.086 134.915Z" fill="#F0EDED"/>
<path d="M656.976 126.129C656.292 125.163 655.735 124.761 654.468 124.289C653.196 123.805 651.489 123.682 649.898 123.961C648.632 124.174 646.397 125.251 645.623 126.02C644.469 127.139 643.735 128.513 643.734 129.535C643.723 130.531 644.286 131.661 645.14 132.408C647.991 134.905 653.892 134.181 656.454 131.027C657.885 129.287 658.049 127.653 656.976 126.129Z" fill="#F0EDED"/>
<path d="M655.976 139.714C654.316 137.207 650.345 135.706 647.199 136.384C645.986 136.648 644.662 137.377 643.977 138.179C643.228 139.043 642.871 140.297 643.086 141.305C643.768 144.588 647.751 146.936 652.021 146.571C653.948 146.42 655.693 145.335 656.48 143.813C657.027 142.758 656.809 140.958 655.976 139.714Z" fill="#F0EDED"/>
<path d="M645.936 116.818C644.108 114.742 639.773 114.819 636.906 116.961C635.293 118.18 634.126 120.052 634.081 121.552C634.068 122.137 634.135 122.394 634.484 123.064C634.994 124.038 635.571 124.552 636.609 124.905C638.325 125.527 640.094 125.421 642.05 124.586C644.011 123.763 645.442 122.464 646.311 120.72C646.84 119.658 646.651 117.616 645.936 116.818Z" fill="#F0EDED"/>
<path d="M636.364 128.29C634.765 126.028 631.317 123.589 627.988 122.342C625.925 121.568 625.108 121.489 623.964 121.948C622.491 122.535 621.663 123.589 621.486 125.091C621.352 126.314 621.503 127.414 622.142 129.742C623.376 134.161 623.262 135.602 621.368 139.683C620.269 142.055 620.11 142.574 620.103 143.582C620.093 146.421 621.861 147.779 624.876 147.242C625.998 147.037 628.041 146.13 629.993 144.977C633.19 143.088 634.783 141.788 636.368 139.791C637.897 137.866 638.533 135.55 638.223 133.062C638.066 131.813 637.098 129.338 636.364 128.29Z" fill="#F0EDED"/>
<path d="M643.9 146.977C642.529 145.444 640.876 144.457 638.99 144.055C635.366 143.286 632.459 145.266 632.885 148.229C633.233 150.637 634.977 152.585 637.716 153.628C638.847 154.058 639.428 154.174 640.474 154.204C641.759 154.24 641.826 154.223 642.895 153.693C644.587 152.863 645.289 151.824 645.204 150.296C645.145 149.41 644.426 147.578 643.9 146.977Z" fill="#F0EDED"/>
<path d="M722.994 174.891C723.193 173.725 723.082 173.046 722.519 171.817C721.961 170.576 720.841 169.283 719.518 168.356C718.472 167.612 716.129 166.794 715.038 166.791C713.431 166.768 711.94 167.222 711.218 167.943C710.506 168.64 710.105 169.838 710.182 170.97C710.435 174.751 715.121 178.409 719.162 177.988C721.405 177.768 722.675 176.728 722.994 174.891Z" fill="#F0EDED"/>
<path d="M712.685 183.796C713.282 180.85 711.534 176.982 708.829 175.238C707.783 174.567 706.332 174.148 705.28 174.231C704.141 174.313 703.001 174.947 702.441 175.813C700.604 178.617 701.762 183.093 705.041 185.852C706.511 187.107 708.512 187.573 710.145 187.053C711.278 186.693 712.396 185.266 712.685 183.796Z" fill="#F0EDED"/>
<path d="M721.763 160.502C721.936 157.741 718.814 154.732 715.272 154.222C713.27 153.944 711.121 154.444 710.029 155.473C709.607 155.878 709.473 156.108 709.246 156.828C708.919 157.877 708.963 158.649 709.448 159.633C710.223 161.284 711.55 162.46 713.524 163.251C715.493 164.055 717.423 164.148 719.27 163.528C720.395 163.15 721.704 161.572 721.763 160.502Z" fill="#F0EDED"/>
<path d="M706.883 161.854C707.35 159.124 706.634 154.962 705.159 151.727C704.247 149.721 703.726 149.088 702.591 148.604C701.134 147.979 699.803 148.139 698.617 149.077C697.658 149.847 696.987 150.732 695.794 152.831C693.545 156.829 692.445 157.769 688.221 159.317C685.767 160.219 685.288 160.474 684.571 161.183C682.557 163.184 682.849 165.394 685.362 167.145C686.3 167.793 688.387 168.595 690.582 169.159C694.179 170.081 696.225 170.287 698.758 169.994C701.2 169.713 703.287 168.523 704.825 166.545C705.597 165.55 706.661 163.115 706.883 161.854Z" fill="#F0EDED"/>
<path d="M699.009 180.401C699.122 178.347 698.651 176.481 697.6 174.864C695.579 171.759 692.124 171.105 690.331 173.503C688.876 175.452 688.732 178.063 689.933 180.736C690.429 181.84 690.759 182.333 691.478 183.093C692.361 184.027 692.42 184.062 693.552 184.443C695.336 185.051 696.566 184.812 697.586 183.67C698.17 183.002 698.957 181.197 699.009 180.401Z" fill="#F0EDED"/>
<path d="M704.079 90.5754C703.516 89.5348 703.01 89.0691 701.809 88.4494C700.604 87.8165 698.924 87.4905 697.311 87.5772C696.029 87.6377 693.681 88.4393 692.821 89.1103C691.541 90.0838 690.648 91.3604 690.525 92.3742C690.395 93.3617 690.818 94.5515 691.577 95.3948C694.11 98.2145 700.055 98.2011 702.975 95.3765C704.604 93.8194 704.962 92.2176 704.079 90.5754Z" fill="#F0EDED"/>
<path d="M701.462 103.944C700.114 101.257 696.351 99.2925 693.147 99.5887C691.91 99.7063 690.509 100.272 689.732 100.986C688.886 101.754 688.381 102.956 688.474 103.983C688.759 107.324 692.433 110.131 696.716 110.279C698.647 110.359 700.509 109.492 701.473 108.075C702.142 107.092 702.141 105.279 701.462 103.944Z" fill="#F0EDED"/>
<path d="M694.231 80.012C692.665 77.7329 688.351 77.2909 685.249 79.0752C683.502 80.0922 682.119 81.8119 681.895 83.2953C681.813 83.8746 681.849 84.138 682.115 84.8448C682.505 85.8722 683.016 86.4519 684.005 86.9266C685.634 87.7486 687.403 87.8552 689.445 87.2597C691.49 86.6774 693.066 85.5592 694.137 83.9316C694.79 82.94 694.845 80.8903 694.231 80.012Z" fill="#F0EDED"/>
<path d="M683.356 90.2577C682.039 87.8206 678.908 84.987 675.751 83.3515C673.796 82.336 672.995 82.1597 671.803 82.4791C670.271 82.8859 669.323 83.8331 668.968 85.3031C668.688 86.501 668.707 87.6115 669.063 89.9994C669.76 94.5338 669.474 95.9512 667.106 99.7764C665.731 102 665.511 102.496 665.385 103.497C665.034 106.314 666.628 107.874 669.686 107.701C670.824 107.632 672.961 106.975 675.036 106.064C678.436 104.57 680.173 103.47 681.986 101.677C683.734 99.9489 684.642 97.7245 684.632 95.2184C684.625 93.9587 683.96 91.3862 683.356 90.2577Z" fill="#F0EDED"/>
<path d="M688.605 109.712C687.426 108.025 685.904 106.848 684.08 106.224C680.574 105.027 677.45 106.645 677.52 109.638C677.577 112.07 679.075 114.213 681.67 115.575C682.741 116.138 683.305 116.323 684.34 116.477C685.611 116.667 685.679 116.658 686.804 116.259C688.584 115.637 689.405 114.69 689.502 113.162C689.55 112.276 689.055 110.37 688.605 109.712Z" fill="#F0EDED"/>
<path d="M774.035 130.437C773.895 129.262 773.597 128.643 772.709 127.624C771.821 126.591 770.38 125.669 768.849 125.155C767.635 124.739 765.157 124.619 764.109 124.926C762.561 125.359 761.261 126.217 760.773 127.114C760.287 127.984 760.243 129.246 760.637 130.309C761.953 133.864 767.484 136.043 771.239 134.493C773.328 133.646 774.251 132.289 774.035 130.437Z" fill="#F0EDED"/>
<path d="M766.676 141.9C766.412 138.905 763.639 135.692 760.551 134.786C759.358 134.44 757.847 134.449 756.862 134.828C755.792 135.229 754.88 136.161 754.587 137.15C753.621 140.36 756.001 144.324 759.928 146.04C761.694 146.826 763.745 146.706 765.163 145.744C766.148 145.077 766.815 143.391 766.676 141.9Z" fill="#F0EDED"/>
<path d="M768.774 116.988C768.157 114.292 764.31 112.291 760.769 112.806C758.77 113.108 756.851 114.197 756.096 115.493C755.806 116.002 755.742 116.26 755.729 117.015C755.713 118.114 755.975 118.841 756.719 119.647C757.93 121.011 759.536 121.762 761.653 121.961C763.769 122.174 765.646 121.715 767.242 120.597C768.214 119.915 769.021 118.03 768.774 116.988Z" fill="#F0EDED"/>
<path d="M754.888 122.504C754.562 119.753 752.696 115.965 750.364 113.281C748.921 111.616 748.241 111.157 747.016 111.015C745.441 110.828 744.21 111.359 743.339 112.595C742.637 113.606 742.245 114.645 741.696 116.996C740.673 121.468 739.885 122.68 736.274 125.363C734.176 126.924 733.789 127.304 733.302 128.187C731.939 130.678 732.845 132.715 735.752 133.681C736.835 134.036 739.064 134.213 741.328 134.131C745.04 133.996 747.06 133.613 749.406 132.614C751.668 131.652 753.331 129.919 754.246 127.586C754.704 126.412 755.034 123.775 754.888 122.504Z" fill="#F0EDED"/>
<path d="M752.598 142.523C752.124 140.521 751.142 138.866 749.677 137.613C746.858 135.208 743.359 135.561 742.32 138.369C741.477 140.651 742.08 143.195 743.99 145.418C744.778 146.336 745.234 146.715 746.139 147.24C747.251 147.885 747.318 147.902 748.511 147.946C750.394 148.024 751.506 147.445 752.16 146.062C752.531 145.255 752.773 143.301 752.598 142.523Z" fill="#F0EDED"/>
<path d="M824.043 176.51C824.932 173.891 822.705 170.17 819.42 168.752C817.56 167.96 815.354 167.881 814.032 168.589C813.518 168.87 813.329 169.056 812.922 169.692C812.331 170.619 812.173 171.375 812.384 172.452C812.7 174.249 813.673 175.73 815.371 177.01C817.062 178.301 818.9 178.895 820.846 178.779C822.03 178.709 823.706 177.527 824.043 176.51Z" fill="#F0EDED"/>
<path d="M809.327 173.925C810.491 171.411 810.889 167.207 810.311 163.699C809.955 161.525 809.617 160.777 808.648 160.014C807.405 159.029 806.079 158.836 804.689 159.431C803.562 159.923 802.683 160.603 800.983 162.317C797.766 165.588 796.459 166.207 791.977 166.597C789.373 166.827 788.844 166.947 787.966 167.444C785.499 168.849 785.203 171.059 787.171 173.406C787.907 174.276 789.712 175.596 791.683 176.714C794.914 178.545 796.835 179.278 799.357 179.658C801.787 180.025 804.112 179.422 806.115 177.915C807.12 177.156 808.784 175.084 809.327 173.925Z" fill="#F0EDED"/>
<path d="M356.054 84.8233C354.367 84.992 352.886 85.9097 351.669 87.5592C349.581 90.3583 348.972 93.6999 350.071 96.3667C350.628 97.7369 351.231 98.237 352.596 98.5021C353.489 98.6755 353.763 98.6579 354.439 98.4488C357.996 97.3105 360.779 91.9806 359.824 88.1224C359.27 85.9018 357.837 84.6451 356.054 84.8233Z" fill="#F0EDED"/>
<path d="M365.967 93.4285C363.162 93.6211 359.982 95.9954 358.715 98.8404C358.17 100.068 357.996 100.97 358.09 102.037C358.179 103.061 358.541 103.926 359.168 104.601C359.6 105.067 359.777 105.144 360.819 105.389C361.717 105.606 362.187 105.641 362.921 105.557C365.334 105.274 367.812 103.486 369.371 100.911C369.892 100.047 370.019 99.7175 370.207 98.6622C370.489 97.1571 370.385 96.2153 369.817 95.2116C369.59 94.8129 369.17 94.3485 368.893 94.1528C368.211 93.7085 366.848 93.3586 365.967 93.4285Z" fill="#F0EDED"/>
<path d="M342.202 88.939C340.081 89.3353 338.051 91.9614 337.508 95.004C337.124 97.1558 337.445 99.0898 338.446 100.631C339.106 101.653 339.798 102.113 340.867 102.208C341.853 102.314 342.679 102.021 343.677 101.222C345.087 100.092 346.036 98.348 346.425 96.1688C346.804 94.0444 346.523 92.1181 345.622 90.6242C344.934 89.4555 343.409 88.7197 342.202 88.939Z" fill="#F0EDED"/>
<path d="M345.513 103.579C344.165 103.671 341.106 104.609 339.336 105.47C337.626 106.301 335.138 108.072 334.455 108.932C333.185 110.572 333.349 113 334.823 114.407C335.52 115.067 336.606 115.604 339 116.495C343.28 118.078 344.151 118.828 346.23 122.706C347.852 125.716 348.6 126.471 350.309 126.789C353.044 127.292 354.841 124.521 355.406 118.916C356.231 110.865 354.819 106.677 350.585 104.606C349.149 103.902 347.038 103.478 345.513 103.579Z" fill="#F0EDED"/>
<path d="M365.712 107.801C363.517 107.772 361.17 108.904 359.427 110.834C358.617 111.726 358.149 112.671 357.944 113.822C357.538 116.097 358.482 117.585 360.752 118.253C363.06 118.942 366.317 117.731 368.297 115.464C370.07 113.441 370.453 111.062 369.301 109.377C368.676 108.462 367.191 107.805 365.712 107.801Z" fill="#F0EDED"/>
<path d="M290.209 114.824C288.57 114.376 286.877 114.706 285.189 115.817C282.306 117.695 280.632 120.613 280.784 123.512C280.855 124.998 281.257 125.685 282.451 126.424C283.231 126.907 283.495 126.99 284.198 127.036C287.913 127.245 292.284 123.241 292.66 119.276C292.872 116.992 291.942 115.297 290.209 114.824Z" fill="#F0EDED"/>
<path d="M296.677 126.464C293.981 125.638 290.212 126.724 288.084 128.94C287.167 129.896 286.706 130.68 286.443 131.717C286.189 132.71 286.243 133.652 286.609 134.511C286.861 135.104 287.001 135.24 287.899 135.845C288.671 136.371 289.1 136.572 289.818 136.757C292.177 137.358 295.092 136.57 297.406 134.712C298.179 134.089 298.407 133.825 298.932 132.902C299.693 131.59 299.906 130.668 299.704 129.522C299.622 129.066 299.381 128.479 299.186 128.196C298.693 127.534 297.528 126.716 296.677 126.464Z" fill="#F0EDED"/>
<path d="M275.846 113.711C273.724 113.321 270.952 115.058 269.439 117.719C268.369 119.602 268.032 121.533 268.464 123.34C268.746 124.536 269.244 125.217 270.217 125.69C271.107 126.144 271.98 126.165 273.18 125.774C274.877 125.22 276.343 123.923 277.427 122.017C278.483 120.159 278.855 118.249 278.501 116.523C278.241 115.178 277.052 113.939 275.846 113.711Z" fill="#F0EDED"/>
<path d="M274.13 128.646C272.835 128.249 269.652 128.03 267.706 128.203C265.827 128.369 262.905 129.138 261.98 129.7C260.247 130.783 259.6 133.122 260.519 134.972C260.956 135.842 261.798 136.736 263.753 138.432C267.249 141.455 267.82 142.472 268.492 146.86C269.022 150.268 269.475 151.245 270.975 152.157C273.377 153.611 275.979 151.656 278.359 146.597C281.79 139.336 281.846 134.897 278.554 131.432C277.438 130.255 275.596 129.099 274.13 128.646Z" fill="#F0EDED"/>
<path d="M291.698 139.868C289.647 139.052 287.07 139.271 284.797 140.457C283.741 141.003 282.991 141.722 282.419 142.729C281.287 144.719 281.682 146.455 283.594 147.898C285.533 149.375 288.99 149.408 291.597 147.991C293.929 146.728 295.074 144.633 294.547 142.637C294.263 141.553 293.085 140.403 291.698 139.868Z" fill="#F0EDED"/>
<path d="M221.752 140.068C220.473 138.909 218.815 138.421 216.831 138.636C213.449 138.986 210.708 140.827 209.614 143.496C209.046 144.862 209.115 145.663 209.871 146.878C210.366 147.672 210.567 147.868 211.178 148.235C214.419 150.141 220.038 148.574 222.059 145.193C223.219 143.244 223.105 141.294 221.752 140.068Z" fill="#F0EDED"/>
<path d="M222.607 153.496C220.541 151.507 216.701 150.738 213.852 151.739C212.625 152.173 211.878 152.662 211.202 153.47C210.553 154.242 210.202 155.112 210.165 156.051C210.139 156.7 210.207 156.886 210.755 157.843C211.223 158.672 211.523 159.051 212.087 159.549C213.946 161.179 216.895 161.822 219.758 161.226C220.716 161.025 221.032 160.894 221.895 160.309C223.134 159.485 223.717 158.758 224.022 157.637C224.142 157.19 224.176 156.553 224.12 156.208C223.959 155.387 223.263 154.114 222.607 153.496Z" fill="#F0EDED"/>
<path d="M209.35 132.427C207.613 131.096 204.391 131.37 201.904 133.056C200.146 134.248 199.024 135.823 198.643 137.643C198.388 138.846 198.545 139.686 199.217 140.56C199.822 141.379 200.595 141.802 201.837 142.007C203.593 142.295 205.459 141.811 207.239 140.603C208.976 139.426 210.12 137.886 210.536 136.175C210.874 134.85 210.334 133.189 209.35 132.427Z" fill="#F0EDED"/>
<path d="M201.469 145.021C200.476 144.065 197.717 142.397 195.899 141.652C194.143 140.931 191.198 140.269 190.13 140.345C188.116 140.514 186.543 142.311 186.582 144.395C186.604 145.376 186.979 146.568 188.011 148.992C189.862 153.32 189.941 154.495 188.68 158.739C187.708 162.039 187.699 163.125 188.656 164.636C190.192 167.051 193.355 166.502 197.637 163.068C203.796 158.147 205.732 154.193 204.251 149.565C203.751 147.993 202.591 146.105 201.469 145.021Z" fill="#F0EDED"/>
<path d="M212.452 163.206C210.96 161.526 208.556 160.531 206.015 160.542C204.837 160.544 203.859 160.841 202.919 161.479C201.059 162.74 200.676 164.478 201.777 166.656C202.888 168.877 205.973 170.506 208.911 170.442C211.538 170.388 213.454 169.039 213.83 167.007C214.035 165.904 213.468 164.328 212.452 163.206Z" fill="#F0EDED"/>
<path d="M128.727 120.74C127.034 120.687 125.454 121.405 124.049 122.882C121.642 125.387 120.638 128.623 121.409 131.412C121.797 132.844 122.336 133.419 123.659 133.86C124.523 134.149 124.798 134.167 125.493 134.048C129.158 133.382 132.558 128.457 132.073 124.505C131.789 122.229 130.518 120.796 128.727 120.74Z" fill="#F0EDED"/>
<path d="M137.532 130.571C134.726 130.396 131.287 132.337 129.689 134.994C129.001 136.141 128.72 137.013 128.686 138.085C128.652 139.112 128.907 140.017 129.448 140.768C129.822 141.288 129.987 141.387 130.992 141.766C131.858 142.099 132.319 142.194 133.058 142.207C135.486 142.241 138.158 140.79 140.014 138.438C140.634 137.65 140.799 137.339 141.112 136.317C141.572 134.86 141.582 133.912 141.139 132.842C140.961 132.417 140.6 131.901 140.348 131.671C139.725 131.142 138.415 130.617 137.532 130.571Z" fill="#F0EDED"/>
<path d="M114.491 123.017C112.339 123.133 110.011 125.474 109.108 128.422C108.469 130.507 108.556 132.467 109.365 134.127C109.897 135.227 110.528 135.774 111.578 136.007C112.543 136.241 113.398 136.058 114.484 135.396C116.018 134.459 117.169 132.852 117.816 130.74C118.446 128.682 118.398 126.734 117.682 125.135C117.14 123.885 115.715 122.956 114.491 123.017Z" fill="#F0EDED"/>
<path d="M116.023 137.973C114.675 137.89 111.527 138.42 109.668 139.044C107.872 139.646 105.191 141.079 104.41 141.843C102.954 143.304 102.826 145.735 104.12 147.322C104.733 148.068 105.746 148.743 108.014 149.938C112.071 152.067 112.846 152.926 114.444 157.045C115.693 160.242 116.345 161.089 118.002 161.627C120.655 162.483 122.77 159.968 124.002 154.481C125.784 146.601 124.885 142.261 120.932 139.655C119.591 138.768 117.548 138.072 116.023 137.973Z" fill="#F0EDED"/>
<path d="M135.558 144.797C133.384 144.482 130.92 145.299 128.96 146.987C128.048 147.766 127.472 148.642 127.13 149.758C126.455 151.962 127.213 153.561 129.386 154.52C131.593 155.505 134.97 154.729 137.205 152.738C139.206 150.961 139.872 148.651 138.93 146.829C138.42 145.84 137.025 144.994 135.558 144.797Z" fill="#F0EDED"/>
<path d="M28.0252 151.597C26.3316 151.544 24.7526 152.262 23.3471 153.739C20.9405 156.244 19.9356 159.48 20.7072 162.269C21.0956 163.701 21.6343 164.276 22.9567 164.717C23.8214 165.006 24.0961 165.024 24.7913 164.905C28.4566 164.239 31.8566 159.314 31.371 155.362C31.0868 153.086 29.816 151.653 28.0252 151.597Z" fill="#F0EDED"/>
<path d="M36.8301 161.427C34.0246 161.252 30.5854 163.193 28.9869 165.85C28.2995 166.997 28.0185 167.869 27.9846 168.941C27.9502 169.968 28.2058 170.873 28.7465 171.624C29.12 172.144 29.2858 172.243 30.2908 172.622C31.156 172.955 31.6173 173.05 32.3563 173.063C34.7844 173.097 37.4567 171.646 39.3121 169.294C39.9319 168.506 40.0972 168.195 40.4102 167.173C40.8702 165.716 40.8802 164.768 40.437 163.698C40.2589 163.273 39.8982 162.758 39.6464 162.527C39.0238 161.998 37.713 161.473 36.8301 161.427Z" fill="#F0EDED"/>
<path d="M13.7891 153.874C11.6372 153.99 9.30872 156.331 8.40595 159.279C7.76751 161.364 7.85381 163.324 8.66278 164.984C9.19498 166.084 9.82625 166.631 10.8761 166.864C11.8414 167.098 12.6964 166.915 13.7821 166.253C15.3164 165.315 16.4671 163.709 17.1137 161.597C17.744 159.539 17.6959 157.591 16.9805 155.992C16.4381 154.742 15.0128 153.813 13.7891 153.874Z" fill="#F0EDED"/>
<path d="M15.3207 168.83C13.9729 168.747 10.8251 169.277 8.96617 169.901C7.17033 170.503 4.48914 171.936 3.70856 172.7C2.25215 174.161 2.12448 176.592 3.41824 178.179C4.03078 178.925 5.0436 179.6 7.31233 180.795C11.3696 182.924 12.1439 183.783 13.7418 187.902C14.9912 191.099 15.6429 191.946 17.3001 192.484C19.9533 193.34 22.0687 190.825 23.3004 185.338C25.0826 177.458 24.1829 173.118 20.2299 170.512C18.8894 169.625 16.8461 168.929 15.3207 168.83Z" fill="#F0EDED"/>
<path d="M34.8564 175.654C32.6826 175.339 30.2181 176.156 28.2579 177.844C27.3466 178.623 26.7701 179.499 26.4285 180.615C25.7535 182.819 26.5112 184.418 28.6841 185.377C30.8911 186.362 34.268 185.586 36.5034 183.595C38.5048 181.818 39.1701 179.508 38.2283 177.686C37.7185 176.697 36.3238 175.851 34.8564 175.654Z" fill="#F0EDED"/>
<path d="M368.231 155.422C366.959 154.399 365.434 154.02 363.4 154.22C359.849 154.573 357.015 156.606 356.142 159.425C356.006 159.867 355.951 160.503 355.994 160.849C356.559 164.573 362.089 165.744 366.459 163.076C368.059 162.092 368.914 161.086 369.476 159.516C369.968 158.121 369.447 156.4 368.231 155.422Z" fill="#F0EDED"/>
<path d="M356.748 147.951C356.17 147.323 355.716 147.103 354.665 146.899C352.817 146.528 350.875 146.915 349.099 148.025C347.35 149.102 346.208 150.531 345.699 152.247C345.329 153.501 345.395 154.24 345.93 155.172C347.888 158.528 354.311 157.321 356.838 153.125C357.111 152.679 357.43 152.041 357.542 151.694C357.946 150.581 357.579 148.829 356.748 147.951Z" fill="#F0EDED"/>
<path d="M368.612 168.861C367.227 167.696 365.263 166.959 363.247 166.839C358.687 166.572 355.345 169.864 356.891 173.072C358.268 175.931 362.105 177.543 365.926 176.875C368.599 176.405 370.582 174.353 370.476 172.162C370.431 171.378 369.365 169.494 368.612 168.861Z" fill="#F0EDED"/>
<path d="M348.836 160.719C347.609 159.26 345.761 157.914 343.274 156.675C341.57 155.824 337.942 154.795 336.918 154.883C336.084 154.949 334.812 155.582 334.305 156.191C332.95 157.817 333.034 159.454 334.628 163.477C336.281 167.657 336.337 169.002 334.948 173.2C334.119 175.716 334.016 176.187 334.1 177.255C334.186 178.354 334.911 179.752 335.633 180.195C337.716 181.491 341.195 180.145 345.784 176.285C348.709 173.84 350.324 171.58 350.939 169.1C351.3 167.64 351.274 166.13 350.84 164.614C350.57 163.63 349.438 161.414 348.836 160.719Z" fill="#F0EDED"/>
<path d="M358.093 178.07C356.633 176.612 354.369 175.705 352.035 175.654C349.743 175.594 347.604 177.077 347.246 178.974C346.898 180.865 348.447 183.372 350.782 184.673C352.442 185.584 355.013 185.941 356.651 185.485C358.883 184.87 360.208 183.001 359.772 181.049C359.574 180.133 358.812 178.807 358.093 178.07Z" fill="#F0EDED"/>
<path d="M474.359 33.1309C473.25 32.7748 472.568 32.7938 471.272 33.1904C469.965 33.5803 468.515 34.5252 467.388 35.722C466.488 36.667 465.3 38.8967 465.117 39.9866C464.828 41.5896 465.026 43.1398 465.613 43.9589C466.177 44.7644 467.282 45.3263 468.403 45.4022C472.145 45.6595 476.499 41.4708 476.756 37.3767C476.911 35.1063 476.104 33.6969 474.359 33.1309Z" fill="#F0EDED"/>
<path d="M481.369 44.6314C478.584 43.6376 474.51 44.8627 472.356 47.3294C471.527 48.2838 470.876 49.677 470.784 50.7397C470.676 51.8892 471.108 53.1131 471.862 53.79C474.303 56.0037 478.875 55.4501 482.117 52.5461C483.588 51.2465 484.375 49.3105 484.136 47.6087C483.97 46.4281 482.758 45.1189 481.369 44.6314Z" fill="#F0EDED"/>
<path d="M460.074 32.4195C457.402 31.8738 453.94 34.5868 452.856 38.0568C452.253 40.0198 452.387 42.2348 453.214 43.4641C453.54 43.9407 453.742 44.1059 454.41 44.4295C455.382 44.8979 456.145 44.9575 457.188 44.6055C458.932 44.0546 460.302 42.8876 461.403 41.022C462.515 39.1632 462.925 37.2475 462.623 35.3182C462.44 34.143 461.111 32.6226 460.074 32.4195Z" fill="#F0EDED"/>
<path d="M458.937 47.469C456.342 46.6339 452.151 46.7872 448.742 47.8245C446.629 48.4649 445.923 48.9009 445.262 49.969C444.409 51.3404 444.346 52.6915 445.067 54.0032C445.662 55.0658 446.418 55.855 448.274 57.3304C451.815 60.1175 452.552 61.3426 453.369 65.7719C453.846 68.3453 454.016 68.8584 454.591 69.6706C456.217 71.9528 458.428 71.9594 460.557 69.685C461.346 68.8348 462.475 66.8583 463.39 64.741C464.887 61.2712 465.427 59.2555 465.56 56.6847C465.688 54.2074 464.868 51.9616 463.187 50.1572C462.341 49.2516 460.134 47.8601 458.937 47.469Z" fill="#F0EDED"/>
<path d="M475.786 57.8375C473.794 57.4476 471.89 57.6668 470.134 58.498C466.762 60.0982 465.55 63.4625 467.6 65.5774C469.267 67.2941 471.798 67.7897 474.613 66.9504C475.775 66.6038 476.312 66.3412 477.174 65.7252C478.234 64.9684 478.278 64.9143 478.838 63.8353C479.728 62.1348 479.698 60.873 478.749 59.7005C478.192 59.0263 476.556 57.9973 475.786 57.8375Z" fill="#F0EDED"/>
<path d="M550.735 38.7C549.962 37.8289 549.366 37.4977 548.049 37.179C546.725 36.8485 544.996 36.9229 543.417 37.3791C542.161 37.7336 540.003 39.0473 539.29 39.8918C538.225 41.1241 537.605 42.5587 537.693 43.5626C537.768 44.543 538.433 45.5898 539.359 46.2258C542.448 48.3537 548.328 46.9672 550.635 43.5747C551.925 41.7001 551.948 40.0761 550.735 38.7Z" fill="#F0EDED"/>
<path d="M550.909 52.1677C549.018 49.8938 544.889 48.8729 541.779 49.8983C540.579 50.2973 539.31 51.1648 538.689 52.0321C538.01 52.9661 537.759 54.2397 538.063 55.2065C539.036 58.3547 543.252 60.207 547.521 59.3597C549.449 58.9907 551.112 57.7255 551.773 56.1393C552.232 55.0392 551.857 53.2952 550.909 52.1677Z" fill="#F0EDED"/>
<path d="M538.805 30.8115C536.783 28.9805 532.423 29.552 529.722 31.9855C528.203 33.3678 527.19 35.3419 527.275 36.8209C527.314 37.3974 527.403 37.6425 527.813 38.2611C528.411 39.1596 529.037 39.5993 530.114 39.8276C531.895 40.2421 533.669 39.9357 535.566 38.891C537.47 37.858 538.799 36.4181 539.522 34.6045C539.963 33.4997 539.594 31.5147 538.805 30.8115Z" fill="#F0EDED"/>
<path d="M530.16 43.183C528.353 41.1425 524.668 39.1396 521.206 38.2954C519.061 37.77 518.232 37.7856 517.119 38.3681C515.686 39.1137 514.944 40.2442 514.897 41.7406C514.867 42.9579 515.115 44.022 515.961 46.2374C517.588 50.4393 517.599 51.8691 516.045 56.0969C515.145 58.5544 515.03 59.0823 515.111 60.0743C515.347 62.8662 517.247 63.9984 520.237 63.1255C521.349 62.7958 523.328 61.6704 525.194 60.3142C528.25 58.0913 529.741 56.6316 531.164 54.4869C532.537 52.4206 532.976 50.0705 532.448 47.6613C532.181 46.4509 530.991 44.1293 530.16 43.183Z" fill="#F0EDED"/>
<path d="M539.377 60.6882C537.862 59.338 536.112 58.5569 534.177 58.3775C530.46 58.0366 527.703 60.3145 528.391 63.1788C528.95 65.5052 530.876 67.221 533.725 67.9325C534.902 68.2262 535.498 68.2738 536.554 68.1831C537.851 68.0718 537.917 68.0477 538.948 67.4042C540.581 66.3945 541.197 65.2931 540.978 63.8009C540.842 62.9369 539.958 61.218 539.377 60.6882Z" fill="#F0EDED"/>
<path d="M628.311 63.9643C627.795 62.9206 627.306 62.4441 626.12 61.7901C624.93 61.1231 623.242 60.7399 621.598 60.7646C620.293 60.7761 617.866 61.4759 616.956 62.103C615.604 63.0118 614.629 64.2329 614.449 65.2245C614.264 66.19 614.63 67.375 615.356 68.2321C617.776 71.0977 623.815 71.3071 626.932 68.6408C628.67 67.1717 629.12 65.6111 628.311 63.9643Z" fill="#F0EDED"/>
<path d="M624.936 77.0031C623.71 74.312 619.995 72.2405 616.725 72.4117C615.462 72.481 614.009 72.984 613.182 73.6574C612.282 74.3799 611.704 75.5425 611.743 76.5553C611.853 79.8485 615.433 82.7447 619.775 83.0503C621.732 83.2016 623.67 82.4186 624.725 81.0622C625.458 80.1215 625.554 78.3401 624.936 77.0031Z" fill="#F0EDED"/>
<path d="M618.877 53.2152C617.408 50.9169 613.051 50.3211 609.805 51.9583C607.976 52.8924 606.479 54.5304 606.172 55.9797C606.057 56.5459 606.08 56.8061 606.312 57.5107C606.653 58.5348 607.141 59.1236 608.12 59.6272C609.73 60.4958 611.521 60.6668 613.627 60.1581C615.735 59.6624 617.395 58.6226 618.571 57.0633C619.287 56.1133 619.453 54.1012 618.877 53.2152Z" fill="#F0EDED"/>
<path d="M607.282 62.8762C606.075 60.4321 603.047 57.5304 599.929 55.8051C597.998 54.734 597.193 54.5308 595.967 54.8C594.388 55.1425 593.375 56.0378 592.935 57.469C592.587 58.6358 592.546 59.7277 592.78 62.0876C593.244 66.5695 592.878 67.9517 590.267 71.6219C588.752 73.756 588.502 74.2349 588.319 75.2134C587.812 77.969 589.347 79.5611 592.462 79.5056C593.621 79.4802 595.827 78.915 597.983 78.0974C601.517 76.7568 603.339 75.7407 605.277 74.0461C607.145 72.4137 608.186 70.2618 608.311 67.7987C608.372 66.5607 607.834 64.0078 607.282 62.8762Z" fill="#F0EDED"/>
<path d="M611.569 82.1893C610.462 80.4881 608.979 79.2742 607.16 78.5921C603.663 77.2853 600.405 78.7578 600.314 81.702C600.242 84.0937 601.649 86.2557 604.21 87.6917C605.268 88.2846 605.831 88.4872 606.873 88.6776C608.155 88.9116 608.224 88.9056 609.388 88.556C611.229 88.0113 612.113 87.111 612.295 85.6137C612.391 84.7443 611.99 82.8535 611.569 82.1893Z" fill="#F0EDED"/>
<path d="M83.8202 177.453C83.1736 176.901 82.6984 176.739 81.6316 176.667C79.7543 176.529 77.8698 177.154 76.2333 178.477C74.6202 179.764 73.6497 181.325 73.3393 183.092C73.1154 184.383 73.265 185.108 73.9028 185.967C76.2298 189.056 82.4694 187.059 84.4999 182.579C84.7198 182.101 84.9636 181.428 85.0358 181.07C85.3098 179.914 84.7451 178.221 83.8202 177.453Z" fill="#F0EDED"/>
</g>
</svg>
