<svg width="328" height="124" viewBox="0 0 328 124" fill="none" xmlns="http://www.w3.org/2000/svg">
<mask id="mask0" mask-type="alpha" maskUnits="userSpaceOnUse" x="0" y="0" width="328" height="124">
<rect width="328" height="124" fill="#C4C4C4"/>
</mask>
<g mask="url(#mask0)">
<path d="M287.698 31.5735C285.974 31.8694 284.407 33.6368 283.761 36.019C283.248 37.9073 283.731 40.1255 284.822 40.8926C285.428 41.3242 286.333 41.4239 287.106 41.1597C287.889 40.8872 288.873 40.1011 289.413 39.3106C291.044 36.9117 291.252 34.0431 289.918 32.3934C289.332 31.6689 288.628 31.4106 287.698 31.5735Z" fill="#F0EDED"/>
<path d="M294.859 37.2697C293.317 37.5522 291.666 38.7358 290.667 40.2789C290.204 40.9915 289.992 41.5922 289.869 42.5308C289.764 43.3242 289.773 43.4733 289.975 44.0937C290.362 45.322 290.93 45.7483 292.335 45.8603C293.046 45.9224 293.249 45.8922 294.021 45.6377C294.743 45.396 295.051 45.2132 295.792 44.6191C296.722 43.8845 297.23 43.2572 297.838 42.0921C298.218 41.3675 298.398 40.1413 298.248 39.3411C298.101 38.5906 297.485 37.7337 296.902 37.4926C296.311 37.2405 295.499 37.1541 294.859 37.2697Z" fill="#F0EDED"/>
<path d="M278.205 34.9395C277.192 35.1595 276.154 36.283 275.535 37.8211C275.267 38.4926 275.038 40.0174 275.106 40.7172C275.242 42.0576 276.016 43.5779 276.809 44.0263C277.619 44.487 278.811 44.2728 279.658 43.5165C280.635 42.6407 281.269 41.3511 281.466 39.8513C281.804 37.2872 280.77 35.158 279.086 34.9372C278.807 34.8973 278.409 34.8997 278.205 34.9395Z" fill="#F0EDED"/>
<path d="M281.877 44.9966C280.569 45.0167 278.945 45.4847 277.271 46.3398C275.405 47.2858 273.604 48.7439 273.226 49.597C272.643 50.9333 272.998 52.3347 274.123 53.1362C274.711 53.5554 275.446 53.8674 276.775 54.2644C278.141 54.6764 278.852 54.9554 279.51 55.3452C280.58 55.991 281.048 56.5311 282.197 58.4402C282.685 59.2593 283.232 60.0669 283.409 60.2302C284.401 61.1803 285.796 61.4388 286.644 60.8205C287.681 60.0617 288.348 58.1558 288.491 55.4946C288.655 52.5998 288.522 51.0922 287.963 49.3067C287.55 47.9858 286.917 47.0475 285.942 46.3266C284.865 45.5221 283.177 44.9753 281.877 44.9966Z" fill="#F0EDED"/>
<path d="M295.078 47.3078C294.061 47.4187 293.107 47.8345 292.134 48.6123C290.928 49.5737 290.387 50.3738 290.173 51.4966C289.983 52.5046 290.064 53.0386 290.488 53.7005C290.747 54.1023 290.951 54.2793 291.341 54.4828C293.355 55.5001 296.251 54.4252 297.769 52.0987C298.243 51.3681 298.271 51.303 298.388 50.4128C298.501 49.5613 298.489 49.4316 298.301 48.9216C298.181 48.6088 297.955 48.2413 297.787 48.0793C297.153 47.5057 296.104 47.2079 295.078 47.3078Z" fill="#F0EDED"/>
<path d="M301.915 80.4394C301.314 79.8664 300.876 79.6645 299.939 79.5093C298.997 79.3461 297.804 79.4893 296.744 79.8936C295.9 80.2093 294.503 81.2481 294.072 81.8803C293.427 82.8042 293.105 83.8473 293.241 84.5498C293.366 85.2363 293.905 85.9387 294.594 86.338C296.895 87.6744 300.866 86.3887 302.21 83.8781C302.964 82.4899 302.859 81.3448 301.915 80.4394Z" fill="#F0EDED"/>
<path d="M303.044 89.9161C301.564 88.4138 298.625 87.9118 296.547 88.7975C295.745 89.1415 294.931 89.8192 294.565 90.4628C294.165 91.1563 294.086 92.0665 294.369 92.7315C295.279 94.8978 298.339 95.9809 301.235 95.1597C302.543 94.7985 303.601 93.8199 303.94 92.668C304.176 91.8689 303.785 90.6604 303.044 89.9161Z" fill="#F0EDED"/>
<path d="M293.057 75.5099C291.519 74.3266 288.54 74.9583 286.85 76.8142C285.901 77.8676 285.347 79.3113 285.517 80.3486C285.586 80.7526 285.667 80.9205 285.997 81.3347C286.479 81.9361 286.945 82.2129 287.709 82.3171C288.974 82.5154 290.181 82.2064 291.417 81.3708C292.659 80.5432 293.472 79.4592 293.838 78.1438C294.06 77.3425 293.656 75.9637 293.057 75.5099Z" fill="#F0EDED"/>
<path d="M287.993 84.6775C286.587 83.3353 283.884 82.1182 281.421 81.7056C279.895 81.4483 279.322 81.5028 278.594 81.9716C277.657 82.572 277.227 83.4073 277.307 84.4637C277.377 85.3227 277.629 86.0591 278.381 87.575C279.823 90.449 279.938 91.4555 279.178 94.5149C278.738 96.2931 278.698 96.671 278.828 97.3654C279.201 99.3194 280.602 100.017 282.609 99.2451C283.355 98.9544 284.642 98.0578 285.833 97.0045C287.785 95.2783 288.709 94.1717 289.535 92.5864C290.332 91.0589 290.46 89.3806 289.914 87.7115C289.638 86.8729 288.639 85.3004 287.993 84.6775Z" fill="#F0EDED"/>
<path d="M295.69 96.5232C294.539 95.6518 293.268 95.1937 291.914 95.169C289.312 95.1242 287.572 96.8735 288.263 98.8549C288.825 100.464 290.288 101.571 292.316 101.923C293.154 102.068 293.57 102.07 294.295 101.951C295.186 101.804 295.23 101.783 295.896 101.276C296.952 100.479 297.296 99.671 297.033 98.6315C296.874 98.03 296.133 96.8658 295.69 96.5232Z" fill="#F0EDED"/>
<path d="M250.077 59.4233C248.892 59.5415 247.852 60.1844 246.997 61.34C245.53 63.301 245.102 65.642 245.875 67.5102C246.266 68.4701 246.689 68.8205 247.648 69.0062C248.275 69.1277 248.468 69.1154 248.942 68.9689C251.44 68.1714 253.395 64.4375 252.725 61.7345C252.335 60.1789 251.329 59.2985 250.077 59.4233Z" fill="#F0EDED"/>
<path d="M257.039 65.4515C255.069 65.5865 252.836 67.2498 251.946 69.243C251.563 70.1027 251.44 70.7346 251.507 71.4826C251.569 72.2 251.824 72.8056 252.264 73.2783C252.568 73.6054 252.691 73.6592 253.424 73.8309C254.055 73.9829 254.384 74.007 254.9 73.9481C256.595 73.75 258.335 72.4977 259.43 70.6932C259.796 70.0885 259.885 69.8574 260.017 69.1181C260.215 68.0637 260.142 67.4039 259.744 66.7008C259.584 66.4214 259.289 66.0961 259.094 65.959C258.616 65.6478 257.658 65.4026 257.039 65.4515Z" fill="#F0EDED"/>
<path d="M240.348 62.3063C238.858 62.5839 237.432 64.4237 237.051 66.5553C236.782 68.0627 237.007 69.4176 237.71 70.4976C238.173 71.2132 238.659 71.5359 239.41 71.6019C240.103 71.6764 240.683 71.471 241.384 70.9114C242.374 70.1198 243.041 68.8979 243.314 67.3712C243.58 65.883 243.383 64.5334 242.75 63.4869C242.267 62.6681 241.195 62.1526 240.348 62.3063Z" fill="#F0EDED"/>
<path d="M242.673 72.5627C241.727 72.6277 239.578 73.2843 238.335 73.888C237.134 74.4699 235.386 75.7109 234.906 76.3134C234.014 77.4619 234.13 79.1633 235.165 80.1487C235.655 80.6111 236.417 80.9874 238.099 81.6112C241.105 82.7203 241.717 83.2462 243.177 85.9631C244.316 88.0715 244.841 88.6005 246.041 88.8231C247.962 89.1754 249.225 87.2344 249.622 83.3075C250.201 77.6675 249.209 74.7332 246.235 73.2828C245.227 72.7893 243.744 72.4921 242.673 72.5627Z" fill="#F0EDED"/>
<path d="M256.86 75.5207C255.319 75.5002 253.67 76.2934 252.446 77.6457C251.877 78.2705 251.549 78.9321 251.405 79.7386C251.12 81.3325 251.782 82.3748 253.377 82.8428C254.998 83.3257 257.286 82.4775 258.676 80.8892C259.921 79.4715 260.19 77.8051 259.381 76.625C258.942 75.9837 257.899 75.5233 256.86 75.5207Z" fill="#F0EDED"/>
<path d="M203.83 80.4425C202.679 80.1289 201.49 80.3598 200.305 81.1382C198.28 82.4538 197.104 84.4983 197.211 86.5291C197.261 87.5705 197.542 88.0513 198.381 88.5692C198.929 88.9079 199.115 88.9655 199.609 88.998C202.218 89.1446 205.288 86.3396 205.552 83.5615C205.701 81.9614 205.047 80.7742 203.83 80.4425Z" fill="#F0EDED"/>
<path d="M208.373 88.5972C206.479 88.018 203.832 88.7792 202.337 90.3314C201.694 91.0014 201.37 91.5508 201.185 92.277C201.006 92.9729 201.045 93.6326 201.301 94.234C201.479 94.6501 201.577 94.745 202.208 95.1686C202.75 95.5375 203.051 95.6782 203.555 95.8078C205.212 96.2292 207.26 95.6771 208.885 94.3755C209.428 93.9388 209.588 93.7537 209.957 93.1069C210.491 92.188 210.641 91.5424 210.499 90.7393C210.441 90.4198 210.272 90.0087 210.135 89.8102C209.789 89.3465 208.971 88.7731 208.373 88.5972Z" fill="#F0EDED"/>
<path d="M193.742 79.6626C192.252 79.3893 190.305 80.6057 189.242 82.4704C188.491 83.7891 188.254 85.1419 188.557 86.408C188.756 87.2459 189.105 87.723 189.789 88.0542C190.414 88.3723 191.027 88.3874 191.87 88.1132C193.061 87.7249 194.091 86.8167 194.852 85.4812C195.594 84.1793 195.855 82.8414 195.607 81.632C195.424 80.6901 194.589 79.8221 193.742 79.6626Z" fill="#F0EDED"/>
<path d="M192.537 90.1254C191.627 89.8474 189.392 89.694 188.025 89.8154C186.705 89.9315 184.653 90.4703 184.004 90.8641C182.786 91.6227 182.332 93.2612 182.978 94.557C183.284 95.1665 183.876 95.7929 185.248 96.9809C187.704 99.099 188.105 99.8118 188.577 102.885C188.949 105.273 189.268 105.958 190.321 106.596C192.008 107.615 193.836 106.245 195.508 102.701C197.917 97.6142 197.957 94.5044 195.644 92.0774C194.86 91.2529 193.567 90.4429 192.537 90.1254Z" fill="#F0EDED"/>
<path d="M204.876 97.9869C203.435 97.4152 201.625 97.5691 200.029 98.4C199.287 98.7825 198.761 99.2861 198.359 99.9917C197.564 101.386 197.841 102.602 199.184 103.613C200.546 104.647 202.974 104.671 204.805 103.678C206.443 102.793 207.247 101.325 206.877 99.927C206.677 99.1678 205.85 98.3617 204.876 97.9869Z" fill="#F0EDED"/>
<path d="M155.749 98.1271C154.85 97.3147 153.686 96.973 152.292 97.124C149.917 97.3688 147.992 98.6589 147.224 100.529C146.825 101.485 146.873 102.046 147.404 102.898C147.752 103.454 147.893 103.591 148.322 103.848C150.598 105.184 154.545 104.086 155.964 101.718C156.779 100.352 156.699 98.9861 155.749 98.1271Z" fill="#F0EDED"/>
<path d="M156.349 107.534C154.898 106.141 152.202 105.602 150.201 106.304C149.338 106.607 148.814 106.95 148.339 107.516C147.883 108.057 147.636 108.666 147.61 109.324C147.592 109.779 147.64 109.909 148.025 110.58C148.354 111.161 148.564 111.426 148.961 111.775C150.266 112.917 152.337 113.367 154.348 112.95C155.021 112.809 155.243 112.717 155.849 112.308C156.719 111.73 157.129 111.221 157.343 110.436C157.428 110.122 157.451 109.676 157.412 109.434C157.299 108.859 156.81 107.968 156.349 107.534Z" fill="#F0EDED"/>
<path d="M147.038 92.774C145.818 91.8413 143.555 92.0333 141.809 93.2144C140.573 94.0498 139.785 95.1531 139.518 96.428C139.339 97.2707 139.449 97.8596 139.921 98.4719C140.346 99.0456 140.889 99.3419 141.761 99.4852C142.995 99.6869 144.305 99.348 145.556 98.502C146.775 97.6773 147.579 96.5985 147.871 95.3998C148.108 94.4712 147.729 93.3076 147.038 92.774Z" fill="#F0EDED"/>
<path d="M141.503 101.597C140.806 100.928 138.867 99.7588 137.59 99.2369C136.358 98.7319 134.289 98.2681 133.539 98.3213C132.124 98.4394 131.02 99.6985 131.047 101.158C131.062 101.846 131.326 102.68 132.05 104.379C133.35 107.411 133.406 108.234 132.52 111.207C131.838 113.519 131.832 114.28 132.504 115.339C133.582 117.031 135.804 116.646 138.811 114.24C143.137 110.792 144.497 108.023 143.457 104.78C143.105 103.679 142.291 102.356 141.503 101.597Z" fill="#F0EDED"/>
<path d="M149.216 114.337C148.169 113.16 146.48 112.463 144.696 112.471C143.868 112.472 143.182 112.68 142.521 113.127C141.215 114.01 140.946 115.228 141.719 116.754C142.499 118.31 144.666 119.451 146.73 119.406C148.575 119.369 149.921 118.424 150.184 117C150.329 116.227 149.93 115.123 149.216 114.337Z" fill="#F0EDED"/>
<path d="M90.4122 84.586C89.2227 84.5491 88.1137 85.0516 87.1265 86.0869C85.4362 87.8417 84.7305 90.1087 85.2724 92.0628C85.5452 93.066 85.9235 93.4687 86.8523 93.7778C87.4596 93.9798 87.6525 93.9927 88.1408 93.9091C90.7152 93.4429 93.1032 89.9926 92.7622 87.2236C92.5625 85.6295 91.67 84.6251 90.4122 84.586Z" fill="#F0EDED"/>
<path d="M96.5962 91.4732C94.6258 91.3508 92.2102 92.7106 91.0875 94.5722C90.6048 95.3754 90.4073 95.9864 90.3836 96.7372C90.3594 97.4572 90.5389 98.091 90.9187 98.6173C91.181 98.9814 91.2974 99.0509 92.0033 99.3165C92.611 99.5494 92.935 99.6162 93.454 99.6248C95.1594 99.6488 97.0363 98.6327 98.3395 96.9849C98.7748 96.4325 98.8908 96.2148 99.1107 95.4985C99.4338 94.4781 99.4408 93.814 99.1295 93.0645C99.0044 92.7666 98.7511 92.4054 98.5743 92.2441C98.137 91.873 97.2163 91.5052 96.5962 91.4732Z" fill="#F0EDED"/>
<path d="M80.4133 86.1814C78.9019 86.263 77.2665 87.9029 76.6324 89.9681C76.184 91.4287 76.2446 92.8022 76.8128 93.9653C77.1865 94.7355 77.6299 95.1188 78.3673 95.2821C79.0453 95.4461 79.6458 95.3178 80.4083 94.8537C81.486 94.1972 82.2942 93.0716 82.7483 91.5924C83.191 90.1505 83.1572 88.7859 82.6547 87.6652C82.2738 86.79 81.2727 86.1392 80.4133 86.1814Z" fill="#F0EDED"/>
<path d="M81.4891 96.6593C80.5424 96.6007 78.3316 96.9726 77.026 97.4098C75.7647 97.831 73.8815 98.8348 73.3333 99.3702C72.3104 100.394 72.2207 102.097 73.1294 103.209C73.5596 103.732 74.2709 104.204 75.8644 105.042C78.714 106.533 79.2578 107.135 80.3801 110.02C81.2576 112.26 81.7153 112.853 82.8793 113.23C84.7428 113.83 86.2285 112.068 87.0937 108.224C88.3454 102.703 87.7135 99.6632 84.9371 97.8372C83.9956 97.2164 82.5605 96.7287 81.4891 96.6593Z" fill="#F0EDED"/>
<path d="M95.21 101.44C93.6833 101.219 91.9523 101.792 90.5755 102.974C89.9355 103.52 89.5305 104.134 89.2907 104.915C88.8166 106.459 89.3487 107.58 90.8749 108.252C92.425 108.942 94.7967 108.398 96.3668 107.003C97.7725 105.758 98.2398 104.14 97.5783 102.864C97.2202 102.17 96.2406 101.578 95.21 101.44Z" fill="#F0EDED"/>
<path d="M19.6838 106.204C18.4943 106.167 17.3853 106.67 16.3981 107.705C14.7078 109.46 14.0021 111.727 14.544 113.681C14.8168 114.684 15.1951 115.087 16.124 115.396C16.7313 115.598 16.9242 115.611 17.4125 115.527C19.9868 115.061 22.3748 111.611 22.0338 108.842C21.8341 107.248 20.9416 106.243 19.6838 106.204Z" fill="#F0EDED"/>
<path d="M25.8677 113.09C23.8973 112.968 21.4817 114.328 20.359 116.189C19.8762 116.993 19.6788 117.604 19.655 118.354C19.6309 119.074 19.8104 119.708 20.1902 120.234C20.4525 120.599 20.5689 120.668 21.2748 120.934C21.8825 121.167 22.2065 121.233 22.7255 121.242C24.4309 121.266 26.3078 120.25 27.611 118.602C28.0463 118.05 28.1624 117.832 28.3823 117.116C28.7053 116.095 28.7123 115.431 28.401 114.682C28.276 114.384 28.0226 114.023 27.8458 113.861C27.4085 113.49 26.4878 113.122 25.8677 113.09Z" fill="#F0EDED"/>
<path d="M9.68476 107.799C8.17336 107.881 6.53793 109.521 5.90386 111.586C5.45545 113.046 5.51606 114.42 6.08425 115.583C6.45804 116.353 6.90142 116.737 7.63876 116.9C8.3168 117.064 8.91727 116.935 9.67986 116.471C10.7575 115.815 11.5657 114.689 12.0198 113.21C12.4625 111.768 12.4287 110.404 11.9262 109.283C11.5453 108.408 10.5442 107.757 9.68476 107.799Z" fill="#F0EDED"/>
<path d="M10.7606 118.277C9.81393 118.218 7.60306 118.59 6.29745 119.028C5.03613 119.449 3.15298 120.453 2.60474 120.988C1.58182 122.011 1.49215 123.714 2.40083 124.827C2.83105 125.349 3.54241 125.822 5.13586 126.659C7.9855 128.151 8.52934 128.752 9.65166 131.638C10.5291 133.878 10.9869 134.471 12.1508 134.848C14.0143 135.448 15.5001 133.686 16.3652 129.842C17.6169 124.321 16.985 121.281 14.2086 119.455C13.2671 118.834 11.832 118.346 10.7606 118.277Z" fill="#F0EDED"/>
<path d="M24.4817 123.058C22.9549 122.837 21.2239 123.409 19.8471 124.592C19.2071 125.138 18.8021 125.751 18.5623 126.533C18.0882 128.077 18.6203 129.197 20.1465 129.869C21.6966 130.559 24.0684 130.015 25.6384 128.62C27.0441 127.376 27.5114 125.758 26.8499 124.481C26.4919 123.788 25.5123 123.196 24.4817 123.058Z" fill="#F0EDED"/>
<path d="M258.629 108.883C257.736 108.166 256.664 107.902 255.236 108.042C252.742 108.289 250.751 109.713 250.138 111.688C250.043 111.998 250.004 112.443 250.034 112.686C250.431 115.294 254.315 116.114 257.385 114.245C258.508 113.556 259.109 112.851 259.504 111.752C259.849 110.774 259.483 109.568 258.629 108.883Z" fill="#F0EDED"/>
<path d="M250.564 103.649C250.158 103.209 249.839 103.055 249.101 102.912C247.803 102.652 246.439 102.923 245.191 103.701C243.963 104.455 243.161 105.456 242.803 106.658C242.544 107.537 242.59 108.055 242.966 108.708C244.341 111.059 248.852 110.213 250.627 107.274C250.819 106.961 251.043 106.514 251.122 106.271C251.406 105.491 251.148 104.264 250.564 103.649Z" fill="#F0EDED"/>
<path d="M258.897 118.298C257.924 117.482 256.544 116.966 255.129 116.882C251.926 116.695 249.579 119.001 250.664 121.248C251.631 123.251 254.326 124.38 257.01 123.912C258.887 123.583 260.28 122.146 260.206 120.61C260.174 120.061 259.425 118.742 258.897 118.298Z" fill="#F0EDED"/>
<path d="M245.007 112.594C244.145 111.572 242.847 110.629 241.1 109.761C239.904 109.164 237.356 108.443 236.636 108.505C236.051 108.552 235.157 108.995 234.801 109.422C233.85 110.561 233.908 111.708 235.028 114.526C236.189 117.454 236.228 118.397 235.253 121.338C234.671 123.1 234.598 123.43 234.657 124.178C234.717 124.948 235.227 125.928 235.733 126.238C237.197 127.146 239.64 126.203 242.863 123.499C244.918 121.786 246.052 120.203 246.484 118.465C246.738 117.442 246.719 116.384 246.414 115.323C246.225 114.633 245.43 113.081 245.007 112.594Z" fill="#F0EDED"/>
<path d="M251.509 124.75C250.483 123.728 248.893 123.093 247.254 123.057C245.643 123.015 244.142 124.054 243.89 125.383C243.646 126.707 244.733 128.464 246.373 129.376C247.539 130.014 249.345 130.264 250.496 129.945C252.063 129.513 252.994 128.204 252.688 126.836C252.548 126.195 252.013 125.266 251.509 124.75Z" fill="#F0EDED"/>
<path d="M333.168 23.21C332.39 22.9605 331.911 22.9737 331.001 23.2516C330.082 23.5247 329.064 24.1867 328.273 25.0252C327.64 25.6872 326.806 27.2493 326.677 28.0128C326.475 29.1358 326.613 30.2218 327.026 30.7956C327.422 31.36 328.198 31.7536 328.985 31.8068C331.614 31.987 334.672 29.0526 334.852 26.1844C334.961 24.5938 334.394 23.6065 333.168 23.21Z" fill="#F0EDED"/>
<path d="M323.135 22.7117C321.258 22.3294 318.827 24.2301 318.066 26.661C317.642 28.0363 317.736 29.588 318.317 30.4492C318.546 30.7831 318.688 30.8988 319.157 31.1255C319.84 31.4537 320.376 31.4954 321.108 31.2488C322.333 30.8628 323.296 30.0453 324.069 28.7383C324.85 27.4361 325.137 26.094 324.926 24.7424C324.797 23.9192 323.864 22.854 323.135 22.7117Z" fill="#F0EDED"/>
<path d="M322.337 33.2552C320.514 32.6702 317.571 32.7776 315.176 33.5042C313.692 33.9529 313.196 34.2583 312.732 35.0067C312.133 35.9674 312.089 36.9139 312.596 37.8328C313.013 38.5773 313.544 39.1301 314.848 40.1638C317.335 42.1163 317.853 42.9745 318.427 46.0776C318.762 47.8804 318.881 48.2399 319.285 48.8089C320.426 50.4077 321.98 50.4124 323.475 48.819C324.029 48.2233 324.822 46.8387 325.464 45.3553C326.516 42.9246 326.895 41.5124 326.988 39.7114C327.079 37.9759 326.503 36.4026 325.322 35.1385C324.728 34.504 323.178 33.5292 322.337 33.2552Z" fill="#F0EDED"/>
<path d="M334.171 40.519C332.772 40.2458 331.435 40.3994 330.201 40.9817C327.832 42.1027 326.982 44.4597 328.422 45.9412C329.592 47.1439 331.37 47.4911 333.347 46.9031C334.163 46.6603 334.54 46.4763 335.146 46.0448C335.89 45.5146 335.921 45.4767 336.314 44.7208C336.94 43.5295 336.918 42.6455 336.252 41.8241C335.861 41.3518 334.712 40.6309 334.171 40.519Z" fill="#F0EDED"/>
<path d="M58.8717 124.317C58.4176 123.931 58.0838 123.817 57.3345 123.767C56.016 123.67 54.6924 124.108 53.543 125.035C52.4101 125.937 51.7284 127.03 51.5104 128.268C51.3531 129.173 51.4582 129.68 51.9062 130.282C53.5406 132.446 57.923 131.047 59.3491 127.908C59.5036 127.574 59.6748 127.102 59.7255 126.852C59.918 126.042 59.5213 124.855 58.8717 124.317Z" fill="#F0EDED"/>
</g>
</svg>
