<svg width="296" height="260" viewBox="0 0 296 260" fill="none" xmlns="http://www.w3.org/2000/svg">
<path d="M156.176 14.7896H222.788C224.997 14.7896 226.788 16.5804 226.788 18.7896V80.416C226.788 82.6252 224.997 84.416 222.788 84.416H156.176C153.967 84.416 152.176 82.6252 152.176 80.416V18.7896C152.176 16.5804 153.967 14.7896 156.176 14.7896Z" fill="#112B46"/>
<path d="M155.858 14.7896H223.106C225.14 14.7896 226.788 16.4381 226.788 18.4716C226.788 20.5052 225.14 22.1537 223.106 22.1537H155.858C153.825 22.1537 152.176 20.5052 152.176 18.4716C152.176 16.4381 153.825 14.7896 155.858 14.7896Z" fill="#1D262D"/>
<path d="M168.308 18.5593C168.308 19.3011 168.912 19.9129 169.661 19.9129C170.411 19.9129 171.015 19.3088 171.015 18.5593C171.015 17.8099 170.411 17.2058 169.661 17.2058C168.912 17.2058 168.308 17.8099 168.308 18.5593Z" fill="#606BF1"/>
<path d="M162.671 18.5593C162.671 19.3011 163.275 19.9129 164.024 19.9129C164.766 19.9129 165.378 19.3088 165.378 18.5593C165.378 17.8099 164.774 17.2058 164.024 17.2058C163.275 17.2058 162.671 17.8099 162.671 18.5593Z" fill="#F4E041"/>
<path d="M157.431 18.697C157.431 19.4388 158.035 20.0506 158.785 20.0506C159.534 20.0506 160.138 19.4464 160.138 18.697C160.138 17.9553 159.534 17.3435 158.785 17.3435C158.035 17.3512 157.431 17.9553 157.431 18.697Z" fill="#EA5924"/>
<path d="M202.955 28.9978H213.525V29.8849H202.955V28.9978Z" fill="#EA5924"/>
<path d="M190.549 28.9978H201.119V29.8849H190.549V28.9978Z" fill="#F4E041"/>
<path d="M193.862 33.7849H210.252V34.672H193.862V33.7849Z" fill="#606BF1"/>
<path d="M182.824 33.7849H191.153V34.672H182.824V33.7849Z" fill="#EA5924"/>
<path d="M197.372 38.572H204.569V39.4591H197.372V38.572Z" fill="#F4E041"/>
<path d="M169.332 38.572H193.211V39.4591H169.332V38.572Z" fill="#F4E041"/>
<path d="M171.688 43.3513H198.978V44.2384H171.688V43.3513Z" fill="#606BF1"/>
<path d="M197.402 48.1384H205.8V49.0255H197.402V48.1384Z" fill="#EA5924"/>
<path d="M185.409 48.1384H193.807V49.0255H185.409V48.1384Z" fill="#606BF1"/>
<path d="M201.311 72.9531H213.525V73.8402H201.311V72.9531Z" fill="#EA5924"/>
<path d="M184.813 72.9531H197.027V73.8402H184.813V72.9531Z" fill="#F4E041"/>
<path d="M168.758 72.9531H180.973V73.8402H168.758V72.9531Z" fill="#EA5924"/>
<path d="M186.374 68.1736H210.252V69.0606H186.374V68.1736Z" fill="#606BF1"/>
<path d="M158.777 68.1736H182.656V69.0606H158.777V68.1736Z" fill="#EA5924"/>
<path d="M180.874 63.3865H204.569V64.2735H180.874V63.3865Z" fill="#EA5924"/>
<path d="M172.215 63.3865H178.808V64.2735H172.215V63.3865Z" fill="#F4E041"/>
<path d="M197.196 58.6072H206.114V59.4942H197.196V58.6072Z" fill="#F4E041"/>
<path d="M183.543 58.6072H192.461V59.4942H183.543V58.6072Z" fill="#606BF1"/>
<path d="M168.888 58.6072H177.807V59.4942H168.888V58.6072Z" fill="#EA5924"/>
<path d="M183.275 53.8201H195.781V54.7071H183.275V53.8201Z" fill="#F4E041"/>
<path d="M200.5 53.8201H213.005V54.7071H200.5V53.8201Z" fill="#606BF1"/>
<path d="M219.3 28.1489H220.44V29.2883H219.3V28.1489Z" fill="#F9FBFC"/>
<path d="M219.3 69.8561H220.44V67.539H219.3V69.8561ZM219.3 64.0596H220.44V61.7425H219.3V64.0596ZM219.3 58.2631H220.44V55.9461H219.3V58.2631ZM219.3 52.4666H220.44V50.1496H219.3V52.4666ZM219.3 46.6702H220.44V44.3531H219.3V46.6702ZM219.3 40.8814H220.44V38.5643H219.3V40.8814ZM219.3 35.0849H220.44V32.7678H219.3V35.0849Z" fill="#F9FBFC"/>
<path d="M219.3 73.3354H220.44V74.4749H219.3V73.3354Z" fill="#F9FBFC"/>
<path d="M78.6807 0H132.122C134.331 0 136.122 1.79086 136.122 4V33.8606C136.122 36.0697 134.331 37.8606 132.122 37.8606H78.6807C76.4715 37.8606 74.6807 36.0697 74.6807 33.8606V4C74.6807 1.79086 76.4715 0 78.6807 0Z" fill="#EA5924"/>
<path d="M112.258 15.2331L119.57 18.3531L112.258 21.4272L113.214 23.6372L121.979 19.722V17.0149L113.214 13.0767L112.258 15.2331Z" fill="#F9FBFC"/>
<path d="M101.489 8.01412L106.797 28.3935L109.321 27.8047L103.99 7.44824L101.489 8.01412Z" fill="#F9FBFC"/>
<path d="M88.8 17.0072V19.7142L97.5653 23.6295L98.5214 21.4195L91.2323 18.3454L98.5214 15.2254L97.5653 13.0613L88.8 17.0072Z" fill="#F9FBFC"/>
<path d="M45.7995 73.3582H72.7917C75.0009 73.3582 76.7917 75.149 76.7917 77.3582V94.2876C76.7917 96.4967 75.0009 98.2876 72.7917 98.2876H45.7995C43.5904 98.2876 41.7995 96.4967 41.7995 94.2876V77.3582C41.7995 75.149 43.5904 73.3582 45.7995 73.3582Z" fill="#606BF1"/>
<path d="M62.1533 78.7352C63.2774 78.7352 63.6521 79.0411 63.6521 79.8822V83.637C63.6521 85.1052 64.2563 85.5487 65.281 85.8317C64.2639 86.0993 63.6521 86.5428 63.6521 87.9958V91.7505C63.6521 92.5917 63.2621 92.8975 62.1533 92.8975V94.5417C64.9904 94.5417 65.801 93.6317 65.801 91.7352V88.1793C65.801 87.1622 66.0686 86.7646 66.9939 86.7646V84.8834C66.0686 84.8834 65.801 84.4705 65.801 83.4534V79.8975C65.801 77.9858 64.998 77.0911 62.1533 77.0911V78.7352Z" fill="#F1F2F2"/>
<path d="M52.7912 79.8966V83.4525C52.7912 84.4696 52.5235 84.8825 51.5753 84.8825V86.756C52.5235 86.756 52.7912 87.146 52.7912 88.1708V91.7266C52.7912 93.6231 53.5941 94.5331 56.4388 94.5331V92.889C55.33 92.889 54.94 92.5831 54.94 91.7419V87.9872C54.94 86.5419 54.3359 86.0908 53.3112 85.8231C54.3283 85.5402 54.94 85.089 54.94 83.6284V79.8737C54.94 79.0325 55.3147 78.7266 56.4388 78.7266V77.0825C53.5941 77.0902 52.7912 77.9849 52.7912 79.8966Z" fill="#F1F2F2"/>
<path d="M215.277 5.42944H246.537C248.746 5.42944 250.537 7.2203 250.537 9.42944V27.6818C250.537 29.8909 248.746 31.6818 246.537 31.6818H215.277C213.068 31.6818 211.277 29.8909 211.277 27.6818V9.42944C211.277 7.2203 213.068 5.42944 215.277 5.42944Z" fill="#F4E041"/>
<path d="M237.542 12.9696C239.416 15.3172 239.385 18.7431 237.481 21.0602C235.309 23.6908 231.591 24.119 228.922 22.3372L224.799 26.459C224.624 26.6349 224.341 26.6349 224.172 26.459L223.017 25.3043C222.841 25.1284 222.841 24.8455 223.017 24.6772L227.14 20.5555C225.472 18.0549 225.74 14.6366 227.943 12.4266C230.628 9.73487 235.11 9.9184 237.542 12.9696ZM229.274 20.196C231.048 21.9702 233.939 21.9702 235.714 20.196C237.488 18.4219 237.488 15.5313 235.714 13.7572C233.939 11.9831 231.048 11.9831 229.274 13.7572C227.499 15.5237 227.499 18.4143 229.274 20.196Z" fill="#F9FBFC"/>
<path d="M97.0757 86.5264C97.1599 87.3905 98.3454 96.4447 107.661 96.4447C117.436 96.4447 115.799 86.7711 115.799 86.7711L115.815 86.71C114.859 86.5111 113.834 86.4423 112.748 86.5647V81.9841L101.65 75.7747H101.244V86.4652C101.244 86.4652 99.485 86.2588 97.0757 86.5264Z" fill="url(#paint0_radial)"/>
<path d="M102.46 55.3187C100.885 56.917 99.6992 58.9817 99.1256 61.4976C98.0624 66.2005 99.0644 71.1711 100.426 75.6981C100.655 76.4705 100.923 77.2581 101.405 77.9081C101.749 78.3746 102.185 78.757 102.621 79.1393C104.594 80.8599 106.568 82.5805 108.541 84.3011C109.879 85.4711 118.094 86.4423 119.662 85.3181C125.704 80.9976 126.867 68.4793 125.658 62.0787C123.647 51.4723 110.002 47.6717 102.46 55.3187Z" fill="url(#paint1_radial)"/>
<path d="M105.856 68.9076C105.772 67.8829 104.725 66.7664 103.669 67.4317C102.576 68.12 102.836 69.9323 103.287 70.9341C103.639 71.7141 104.832 72.5782 105.635 71.8441C106.307 71.2323 105.26 70.5135 105.229 69.9552C105.199 69.4505 106.2 69.0911 105.787 68.5558" fill="#F7B094"/>
<path d="M105.665 73.6335C104.564 73.9623 102.698 73.1211 102.224 71.5917C101.75 70.0546 101.803 68.3035 101.803 68.3035C101.803 68.3035 101.245 69.6952 101.536 71.9282C101.826 74.1611 102.606 76.287 104.357 76.3176C106.109 76.3405 105.665 73.6335 105.665 73.6335Z" fill="#F7B094"/>
<path d="M107.019 72.0429C107.057 72.0582 107.095 72.0735 107.141 72.0811C107.822 72.1729 108.097 71.3547 108.197 70.8347C108.434 69.6264 108.396 68.4105 108.442 67.187C108.449 66.8811 108.426 66.4988 108.549 66.2158C108.931 65.3364 109.956 64.7705 110.262 63.8605C110.621 62.8053 109.604 61.7576 110.009 60.6029C110.629 58.8364 112.901 58.4311 114.545 58.4464C117.008 58.477 119.41 58.9358 121.842 59.3105C124.412 59.7082 127.685 60.0829 129.949 58.4617C132.672 56.5041 133.812 51.4111 131.777 48.62C130.668 47.0982 128.565 46.2876 126.722 46.2494C124.771 46.2035 123.119 47.3658 121.329 47.9547C119.899 48.4211 118.522 47.06 117.192 46.7923C115.516 46.4558 114.805 48.2835 113.321 48.337C111.883 48.3829 110.468 47.2588 109.069 47.0064C106.277 46.4941 106.438 49.3005 104.571 50.2564C103.409 50.8529 101.902 50.4935 100.724 51.0976C99.8292 51.5564 99.7069 52.367 99.508 53.277C99.3397 54.0647 99.3321 54.9823 99.072 55.7317C98.8349 56.4047 98.2689 56.8329 97.8253 57.3605C97.3434 57.9341 97.0299 58.6147 96.7851 59.3335C96.2421 60.9394 96.1197 62.6676 96.2726 64.35C96.525 67.1717 97.4276 69.9476 98.3683 72.6011C98.9802 74.3217 99.2097 76.1188 100.143 77.7476C100.395 78.1835 101.52 79.4682 101.933 78.5123C102.024 78.3058 102.009 78.0764 101.994 77.8547C101.871 76.0805 100.219 64.6329 104.548 66.0094C105.459 66.3 106.07 67.057 106.407 67.9211C106.812 68.9535 106.843 69.9935 106.789 71.087C106.782 71.24 106.782 71.4005 106.782 71.5535C106.789 71.7523 106.843 71.9511 107.019 72.0429Z" fill="#3D3D7A"/>
<path d="M112.74 85.5094C107.807 84.7141 104.556 80.8218 104.556 80.8218C104.556 80.8218 105.887 87.383 113.038 87.7347L112.74 85.5094Z" fill="#F7B094"/>
<path d="M104.648 174.965H97.5883V242.664C97.5883 243.352 98.1467 243.91 98.835 243.91H103.401C104.09 243.91 104.648 243.352 104.648 242.664V174.965Z" fill="#0A2033"/>
<path d="M120.526 175.928H81.7175V176.991C81.7175 179.66 83.882 181.816 86.5437 181.816H115.692C118.362 181.816 120.519 179.652 120.519 176.991V175.928H120.526Z" fill="#30475E"/>
<path d="M104.648 235.873H97.5883V251.557C97.5883 252.246 98.1467 252.804 98.835 252.804H103.401C104.09 252.804 104.648 252.246 104.648 251.557V235.873Z" fill="#0A2033"/>
<path d="M137.743 248.675C137.743 250.953 135.892 252.804 133.613 252.804C131.334 252.804 129.483 250.953 129.483 248.675C129.483 246.396 131.334 244.545 133.613 244.545C135.892 244.545 137.743 246.396 137.743 248.675Z" fill="#0A2033"/>
<path d="M72.761 248.675C72.761 250.953 70.91 252.804 68.6308 252.804C66.3515 252.804 64.5005 250.953 64.5005 248.675C64.5005 246.396 66.3515 244.545 68.6308 244.545C70.91 244.545 72.761 246.396 72.761 248.675Z" fill="#0A2033"/>
<path d="M108.216 243.016H94.0206V230.613H108.216V243.016Z" fill="#30475E"/>
<path d="M137.743 245.937H64.5005V244.499C64.5005 242.067 66.4738 240.102 68.8984 240.102H133.345C135.778 240.102 137.743 242.067 137.743 244.499V245.937Z" fill="#F4E041"/>
<path d="M101.122 183.208H103.569V229.511H101.122V183.208Z" fill="#30475E"/>
<path d="M73.3958 125.894C75.0861 125.84 76.4629 127.239 76.3711 128.929C75.8892 137.334 77.6714 157.835 85.4958 164.832C95.0719 173.382 122.201 172.219 122.201 172.219C122.201 172.219 126.683 177.718 117.719 178.941C108.755 180.165 83.4996 179.347 77.396 173.649C71.4837 168.128 67.9729 153.668 70.6194 128.501C70.7647 127.056 71.9426 125.939 73.3958 125.894Z" fill="#F4E041"/>
<path d="M124.228 229.511L121.001 236.867L130.89 241.203L134.125 233.824L124.228 229.511Z" fill="url(#paint2_radial)"/>
<path d="M77.6101 147.756C78.222 148.98 122.148 147.779 126.293 148.162C126.293 148.162 153.178 160.993 157.041 172.999C157.431 174.208 157.538 175.806 157.423 177.718C156.345 194.625 137.085 235.116 137.085 235.116L134.125 233.824L124.228 229.511L122.821 228.899C122.821 228.899 138.095 183.392 135.043 180.945C131.992 178.498 97.3664 172.395 85.3581 169.145C73.3346 165.88 77.6101 147.756 77.6101 147.756Z" fill="#56548C"/>
<path d="M161.92 231.4L161.148 242.45H171.94L172.705 231.377L161.92 231.4Z" fill="url(#paint3_radial)"/>
<path d="M126.515 147.787L126.905 147.955C126.905 147.955 171.909 154.272 179.244 166.889C184.009 175.102 174.785 235.093 174.785 235.093L158.861 235.132C158.861 235.132 161.24 185.158 160.452 182.375C159.557 179.201 158.035 178.046 157.423 177.717C157.545 175.813 157.438 174.207 157.041 172.999C153.178 160.986 126.293 148.162 126.293 148.162C126.377 148.1 126.454 147.97 126.515 147.787Z" fill="#3D3D7A"/>
<path d="M83.0406 106.21L86.0617 106.623C86.0617 106.623 86.796 114.759 88.5934 122.896L126.194 137.165L126.706 139.887C126.867 139.872 127.028 139.864 127.173 139.849C127.158 140.407 127.158 140.958 127.135 141.47C127.05 144.613 126.844 146.869 126.515 147.771C126.454 147.955 126.377 148.093 126.293 148.154C125.268 148.987 111.975 147.374 97.5958 152.65C85.1286 157.231 78.1378 162.224 77.8166 161.559C73.8928 153.423 81.029 121.458 83.0406 106.21Z" fill="#EA5924"/>
<path d="M86.9642 124.853C87.9662 129.663 90.5591 139.245 95.6377 140.53C102.277 142.212 115.103 142.128 127.127 141.486C127.15 140.973 127.15 140.423 127.165 139.865C127.02 139.88 126.859 139.888 126.699 139.903L126.186 137.181L88.5857 122.911C86.7883 114.775 86.0541 106.638 86.0541 106.638C86.0541 106.638 86.054 106.684 86.0387 106.776C85.9776 108.015 85.4651 117.742 86.9642 124.853Z" fill="#F4675D"/>
<path d="M124.656 94.1963C125.33 95.4198 126.293 108.489 126.821 121.466L134.508 114.293C131.242 107.976 124.656 94.1963 124.656 94.1963Z" fill="#F4675D"/>
<path d="M129.261 130.948C135.747 132.072 141.713 133.036 141.713 133.036L141.728 133.357C148.948 127.591 159.939 111.257 159.939 111.257C159.939 111.257 156.65 107.311 155.832 106.271C155.71 106.11 137.797 118.438 136.879 118.331C136.649 118.308 135.732 116.694 134.508 114.3L126.821 121.473C126.943 124.563 127.043 127.645 127.104 130.566C127.823 130.688 128.542 130.811 129.261 130.948Z" fill="#F7B094"/>
<path d="M141.713 133.036L141.873 138.389H161.423C161.423 138.389 159.48 130.749 154.188 130.749C148.895 130.749 146.853 133.548 146.853 133.548L141.713 133.036Z" fill="url(#paint4_radial)"/>
<path d="M155.977 106.149L155.832 106.271C156.651 107.311 159.939 111.257 159.939 111.257L161.982 109.811C161.982 109.811 164.23 111.18 166.846 109.75C169.569 108.274 167.886 104.741 167.749 104.321C168.276 104.466 171.542 107.112 172.055 106.829C172.567 106.546 172.95 105.621 169.294 102.019C165.653 98.4174 160.689 103.044 160.544 103.044L155.977 106.149Z" fill="#F7B094"/>
<path d="M166.418 109.139C166.418 109.139 167.206 110.615 165.806 111.257C164.406 111.899 161.683 112.358 160.513 112.251C159.343 112.144 158.41 110.5 158.41 110.5L161.951 107.173H164.789L166.418 109.139Z" fill="#F7B094"/>
<path d="M166.624 109.857C166.418 109.131 164.398 109.521 163.152 109.552C162.234 109.575 161.729 109.33 161.446 108.634C161.163 107.93 162.494 106.822 162.762 107.166C163.022 107.517 162.28 108.007 162.257 108.473C162.234 108.94 163.572 109.093 164.597 109.093C165.622 109.093 167.397 109.36 167.397 109.36L166.624 109.857Z" fill="#E8987C"/>
<path d="M90.498 129.839L109.65 123.056C111.042 125.656 112.534 127.614 114.01 128.004C116.243 128.593 121.651 129.602 127.096 130.558C127.815 130.696 128.542 130.818 129.261 130.948C135.747 132.072 141.713 133.036 141.713 133.036L141.728 133.357V133.563L141.874 138.389V139.612C141.874 139.612 135.372 139.283 127.173 139.857C115.7 140.675 100.9 141.165 95.9974 138.855C93.7028 137.769 91.8671 134.198 90.4215 129.801C90.4521 129.809 90.4751 129.824 90.498 129.839Z" fill="url(#paint5_radial)"/>
<path d="M109.65 123.056L90.498 129.839L91.3699 132.393L110.323 124.265L109.65 123.056Z" fill="#F7B094"/>
<path d="M109.65 123.056C111.042 125.656 112.534 127.614 114.01 128.004C116.243 128.593 121.651 129.602 127.096 130.558C127.035 127.637 126.936 124.563 126.813 121.466C126.286 108.489 125.322 95.4199 124.649 94.1964C123.547 92.1546 120.542 87.7193 115.799 86.7099L115.784 86.7711C115.784 86.7711 117.421 96.4446 107.646 96.4446C98.3378 96.4446 97.1522 87.3905 97.0605 86.5264C92.2725 87.0617 84.9222 89.4552 83.9126 99.0828C83.706 100.987 83.4078 103.434 83.033 106.202L86.0542 106.615C86.0542 106.615 87.2779 120.173 90.4138 129.793C90.4368 129.809 90.4597 129.816 90.4903 129.832L109.65 123.056Z" fill="#EA5924"/>
<path d="M109.849 121.29L102.2 102.784L107.837 122.039L109.849 121.29Z" fill="#6D4B35"/>
<path d="M97.0758 86.5264H101.244C101.244 86.5264 107.172 93.034 110.989 93.034C114.805 93.034 112.748 86.557 112.748 86.557H114.606C119.953 86.557 124.442 90.5717 125.047 95.8787C125.115 96.4828 125.177 97.064 125.23 97.584C125.636 101.522 109.681 104.39 109.681 104.39L101.466 103.931L96.4792 94.1964L95.4849 90.2122L97.0758 86.5264Z" fill="#EA5924"/>
<path d="M147.358 249.669C146.983 251.657 145.606 253.072 143.617 252.705L117.077 247.757C116.404 247.635 115.96 246.985 116.09 246.312L116.526 243.957C116.526 243.957 144.443 248.843 147.373 249.654L147.358 249.669Z" fill="#F1F2F2"/>
<path d="M139.463 242.985C139.188 242.748 138.92 242.504 138.645 242.267C138.109 241.792 137.589 241.326 137.085 240.875C136.817 240.638 136.549 240.401 136.304 240.171C135.823 239.735 135.364 239.33 134.951 238.963C134.66 238.695 134.385 238.443 134.132 238.221C133.681 237.816 133.306 237.479 133.046 237.25C132.824 237.051 132.488 237.036 132.258 237.235C131.165 238.152 127.639 240.248 121.252 236.294C120.946 236.103 120.548 236.202 120.38 236.524L116.518 243.949C116.518 243.949 144.435 248.835 147.364 249.646C146.408 249.049 142.844 245.968 139.463 242.985Z" fill="#3D3D7A"/>
<path d="M189.157 249.409C189.111 251.435 187.971 253.049 185.945 253.003L158.953 252.345C158.272 252.33 157.729 251.764 157.744 251.076L157.805 248.682C157.805 248.682 186.143 249.057 189.165 249.394L189.157 249.409Z" fill="#F1F2F2"/>
<path d="M180.3 244.071C179.986 243.88 179.688 243.689 179.374 243.49C178.77 243.108 178.181 242.733 177.615 242.366C177.317 242.175 177.011 241.983 176.736 241.8C176.185 241.448 175.673 241.119 175.214 240.821C174.877 240.607 174.571 240.401 174.288 240.217C173.776 239.888 173.355 239.621 173.064 239.429C172.812 239.269 172.483 239.307 172.284 239.536C171.351 240.615 168.208 243.245 161.27 240.362C160.941 240.225 160.559 240.385 160.452 240.722L157.821 248.667C157.821 248.667 186.159 249.042 189.18 249.378C188.124 248.95 184.117 246.472 180.3 244.071Z" fill="#3D3D7A"/>
<path d="M208.363 139.613L222.772 101.178H181.738L167.32 139.613H208.363Z" fill="#ABB5BA"/>
<path d="M164.789 139.612H167.32L181.738 101.178L179.436 101.278L166.096 136.072L164.789 139.612Z" fill="#8495A0"/>
<path d="M165.584 139.612H138.47L138.546 137.188C138.546 137.188 165.691 137.188 166.142 137.188" fill="#8495A0"/>
<path d="M50.0523 146.946H56.5842V254.181H50.0523V146.946Z" fill="#8495A0"/>
<path d="M85.4881 146.946H92.02V254.181H85.4881V146.946Z" fill="#ABB5BA"/>
<path d="M199.024 146.946H205.556V254.181H199.024V146.946Z" fill="#8495A0"/>
<path d="M234.46 146.946H240.991V254.181H234.46V146.946Z" fill="#ABB5BA"/>
<path d="M43.5204 147.351H247.248C248.999 147.351 250.422 145.929 250.422 144.178V142.786C250.422 141.035 248.999 139.612 247.248 139.612H43.5204C41.7689 139.612 40.3462 141.035 40.3462 142.786V144.178C40.3462 145.929 41.7689 147.351 43.5204 147.351Z" fill="#141B56"/>
<path d="M215.919 105.216L215.223 107.09H207.047L207.751 105.216H215.919Z" fill="#8495A0"/>
<path d="M134.508 114.293L135.089 115.432L126.821 123.974V121.466L134.508 114.293Z" fill="#E8987C"/>
<path d="M3.82352 252.353H292.176C294.288 252.353 296 254.065 296 256.177C296 258.288 294.288 260 292.176 260H3.82352C1.71185 260 0 258.288 0 256.177C0 254.065 1.71182 252.353 3.82352 252.353Z" fill="#A5B7C6"/>
<path d="M18.0201 196.866C19.3356 203.236 18.9379 214.08 27.359 215.792C29.6306 216.251 31.8181 214.684 33.1337 212.879C34.8623 210.524 35.2753 205.53 35.2447 202.678C35.2217 200.414 34.4492 197.891 34.2045 195.612C33.9368 193.15 33.715 190.68 33.432 188.217C32.3994 179.339 27.7567 171.898 19.9093 167.471C19.305 170.384 17.9206 172.854 16.6969 175.645C16.1385 176.922 15.6414 178.268 15.2742 179.607C14.6318 181.977 15.4119 184.363 15.9855 186.634C16.8422 189.984 17.3241 193.478 18.0201 196.866Z" fill="url(#paint6_linear)"/>
<path d="M28.7896 216.007C28.7284 215.471 28.6672 214.936 28.5907 214.408C27.5811 214.408 26.5333 213.835 25.6919 213.399C24.2234 212.642 23.0379 211.548 21.8906 210.386C21.8294 210.325 21.9365 210.225 21.9977 210.279C23.145 211.242 24.3381 212.175 25.6996 212.81C26.4644 213.162 27.5735 213.743 28.5143 213.858C28.4225 213.223 28.3307 212.581 28.2236 211.946C27.1757 211.816 26.212 211.128 25.3248 210.6C23.818 209.705 22.5178 208.551 21.1716 207.434C21.1563 207.419 21.1716 207.396 21.1869 207.411C23.2444 208.902 25.539 211.028 28.1395 211.495C28.0018 210.7 27.8565 209.904 27.6882 209.117C27.6806 209.078 27.6729 209.032 27.6653 208.994C24.6517 208.229 22.6172 205.874 20.3073 203.962C20.2691 203.932 20.3073 203.871 20.3532 203.901C22.6248 205.668 24.7588 207.679 27.5658 208.535C27.3211 207.411 27.0687 206.287 26.8163 205.163C24.0934 204.161 21.9135 202.563 20.009 200.338C19.9784 200.3 20.032 200.246 20.0626 200.284C22.0359 202.334 24.2081 203.511 26.7015 204.681C26.4491 203.572 26.1967 202.456 25.9596 201.347C24.7817 200.766 23.5427 200.414 22.4489 199.649C21.3781 198.9 20.4144 198.005 19.7184 196.881C19.6801 196.82 19.7719 196.767 19.8102 196.82C21.3322 199.015 23.6344 199.695 25.8525 200.842C25.6384 199.802 25.4319 198.762 25.2559 197.715C22.7778 196.354 20.0932 195.092 18.6858 192.477C18.6705 192.454 18.7088 192.423 18.7241 192.454C20.2079 194.855 22.8084 195.887 25.1642 197.195C25.1336 197.011 25.103 196.82 25.0724 196.637C24.9194 195.665 24.7817 194.694 24.6364 193.715C23.2138 193.15 21.86 192.339 20.575 191.505C19.6648 190.917 18.6935 190.328 18.1045 189.402C18.0663 189.341 18.1504 189.288 18.1963 189.341C19.5272 191.245 22.4336 192.339 24.5829 193.295C24.4452 192.308 24.3075 191.33 24.1622 190.343C21.7758 188.898 18.9765 188.102 17.508 185.502C17.4621 185.426 17.5768 185.357 17.6227 185.426C19.1447 187.797 21.8141 188.531 24.0934 189.877C24.0092 189.265 23.9174 188.661 23.8257 188.049C21.2557 187.101 18.2575 184.952 16.9037 182.627C16.8272 182.497 17.0108 182.382 17.0949 182.505C18.4793 184.547 21.2557 186.764 23.7492 187.575C23.5962 186.588 23.4356 185.602 23.2597 184.623C23.2444 184.592 23.2291 184.57 23.2214 184.539C22.0665 184.202 20.9269 183.384 19.9249 182.772C18.7241 182.031 17.5768 181.167 16.8272 179.951C16.7431 179.813 16.9649 179.691 17.0414 179.828C18.181 181.87 20.8963 183.231 23.145 184.011C23.0761 183.652 23.0149 183.292 22.9461 182.941C22.839 182.405 22.7319 181.87 22.6248 181.335C21.707 180.7 20.5368 180.394 19.6113 179.729C18.8082 179.148 18.1045 178.444 17.4238 177.733C17.355 177.664 17.4544 177.55 17.5309 177.618C18.464 178.498 19.4201 179.331 20.5521 179.943C21.1869 180.279 21.9059 180.478 22.5254 180.845C22.3495 179.974 22.1659 179.094 21.9977 178.222C21.99 178.222 21.9747 178.215 21.9671 178.215C21.9594 178.215 21.9441 178.222 21.9365 178.222C21.8753 178.238 21.8218 178.215 21.7835 178.177C20.5368 177.863 19.5731 176.785 18.7394 175.867C18.7164 175.844 18.747 175.814 18.77 175.837C19.6496 176.655 20.6515 177.557 21.837 177.901C21.8447 177.901 21.8447 177.894 21.8523 177.894C21.8829 177.886 21.9135 177.886 21.9441 177.878C21.8064 177.167 21.6764 176.456 21.5617 175.737C21.4699 175.722 21.3934 175.645 21.4164 175.554C20.7509 175.11 20.1543 174.544 19.5883 173.986C19.5425 173.948 19.6037 173.879 19.6495 173.917C20.2385 174.422 20.8198 174.842 21.4775 175.209C21.2404 173.734 21.0645 172.25 20.9804 170.744C20.9727 170.606 21.1793 170.606 21.1946 170.744C21.3246 172.189 21.5388 173.619 21.7835 175.041C22.4719 174.139 23.2444 173.206 23.6651 172.166C23.688 172.112 23.7721 172.135 23.7568 172.189C23.5503 172.831 23.1985 173.397 22.8467 173.963C22.5331 174.475 22.2807 175.072 21.8753 175.523C22.013 176.288 22.1659 177.052 22.3189 177.81C23.1602 177.672 23.9251 177.519 24.6211 176.907C25.4701 176.165 25.952 175.156 26.0361 174.032C26.0438 173.894 26.2656 173.894 26.2503 174.032C26.1585 175.072 25.7378 176.051 25.0265 176.831C24.2769 177.649 23.3973 177.909 22.3877 178.115C22.5713 178.995 22.7625 179.874 22.9537 180.746C23.7186 180.287 24.4223 179.691 25.1106 179.148C26.2197 178.268 26.8698 177.205 27.8335 176.211C27.933 176.112 28.0859 176.257 27.9942 176.357C27.0916 177.312 26.4874 178.352 25.4548 179.209C24.7206 179.828 23.9022 180.608 23.0226 181.06C23.0302 181.105 23.0455 181.151 23.0532 181.197C23.0608 181.205 23.0761 181.212 23.0838 181.22C23.1526 181.289 23.1449 181.358 23.1067 181.419C23.2903 182.26 23.4738 183.101 23.6574 183.942C23.665 183.996 23.6803 184.049 23.688 184.103C25.646 183.208 28.5754 181.648 28.8355 179.377C28.8584 179.163 29.1797 179.224 29.1338 179.446C28.5525 182.015 25.7302 183.155 23.7798 184.562C23.971 185.518 24.1469 186.466 24.3075 187.43C25.5695 186.994 26.778 186.458 27.8412 185.61C28.8049 184.845 30.174 183.912 30.61 182.727C30.6253 182.688 30.6788 182.711 30.6635 182.749C30.2581 183.935 29.0344 184.745 28.1395 185.556C27.0075 186.581 25.8449 187.452 24.3917 187.858C24.3993 187.896 24.407 187.942 24.3917 187.988C24.4911 188.592 24.5905 189.204 24.6823 189.808C27.061 189.624 30.3882 187.819 31.6043 186.022C31.6119 186.015 31.6196 186.022 31.6196 186.03C30.7935 187.407 29.5392 188.209 28.1242 188.905C27.0687 189.425 25.929 190.037 24.7358 190.129C24.9041 191.253 25.0724 192.385 25.2407 193.509C26.2732 193.127 27.367 192.943 28.3919 192.53C29.9139 191.926 31.0689 190.832 31.9638 189.487C32.0173 189.402 32.155 189.471 32.1014 189.555C30.457 192.171 28.0859 192.943 25.3095 193.922C25.4472 194.847 25.5925 195.772 25.7455 196.69C28.0171 196.254 30.9542 194.87 32.1091 192.897C32.1932 192.752 32.4227 192.874 32.3385 193.02C31.6119 194.281 30.3576 195.084 29.0879 195.727C28.1701 196.193 26.9004 196.958 25.8066 197.042C25.8143 197.072 25.8143 197.103 25.822 197.134C26.0438 198.464 26.3115 199.779 26.5944 201.095C29.1338 200.46 30.7706 198.579 32.6215 196.82C32.7516 196.698 32.9504 196.881 32.8204 197.011C30.9389 198.862 29.2868 200.804 26.6786 201.485C26.9157 202.555 27.1605 203.626 27.4205 204.689C29.5851 204.085 31.719 202.548 33.1187 200.789C33.2181 200.667 33.394 200.835 33.2946 200.957C31.8414 202.869 29.7457 204.314 27.5123 205.102C27.7953 206.241 28.0859 207.388 28.3766 208.528C30.5947 208.191 32.3079 206.8 33.677 205.041C33.7076 205.002 33.7841 205.056 33.7535 205.094C32.5374 206.784 30.7017 208.734 28.4913 208.941C28.5831 209.308 28.6825 209.667 28.7743 210.034C28.8278 210.256 28.889 210.478 28.9502 210.699C30.6253 210.21 32.1779 209.606 33.5623 208.474C33.6006 208.444 33.6464 208.505 33.6082 208.535C32.2927 209.721 30.7247 210.516 29.042 211.028C29.2256 211.709 29.4244 212.42 29.6233 213.131C30.0363 212.94 30.4417 212.726 30.893 212.588C31.7267 212.336 32.2621 211.808 32.9887 211.372C33.0575 211.334 33.1264 211.426 33.0652 211.472C32.4303 211.885 31.979 212.42 31.2524 212.695C30.717 212.894 30.2046 213.154 29.6845 213.384C30.4493 216.228 31.1224 219.249 30.7553 221.979C30.6711 222.583 29.6615 222.744 29.5009 222.101C28.9885 220.144 29.0114 218.033 28.7896 216.007Z" fill="#747DED"/>
<path d="M44.683 195.046C43.1839 201.37 38.2506 211.036 45.1572 216.144C47.0158 217.521 49.6699 217.024 51.6279 215.946C54.1902 214.538 56.6683 210.187 57.8462 207.587C58.7793 205.523 59.1465 202.915 59.8807 200.743C60.6762 198.396 61.5252 196.063 62.3053 193.708C65.1124 185.22 64.0492 176.525 58.8099 169.191C57.0278 171.577 54.7332 173.229 52.4463 175.248C51.4061 176.166 50.3812 177.175 49.4863 178.238C47.9031 180.111 47.5971 182.612 47.1612 184.906C46.5187 188.301 45.4785 191.674 44.683 195.046Z" fill="url(#paint7_linear)"/>
<path d="M46.3583 216.94C46.5266 216.427 46.6949 215.915 46.8555 215.403C45.9453 214.974 45.234 214.019 44.6527 213.262C43.6431 211.954 43.0312 210.463 42.4729 208.926C42.4423 208.842 42.5799 208.796 42.6182 208.872C43.253 210.233 43.9337 211.579 44.9051 212.734C45.4481 213.376 46.213 214.37 47.0161 214.867C47.2073 214.256 47.3832 213.636 47.5592 213.017C46.6643 212.459 46.083 211.426 45.5017 210.577C44.515 209.132 43.8267 207.534 43.0771 205.951C43.0694 205.936 43.0924 205.92 43.1077 205.936C44.3391 208.161 45.5246 211.052 47.6815 212.573C47.8957 211.793 48.0946 211.013 48.2781 210.226C48.2858 210.187 48.2934 210.142 48.3087 210.103C45.8994 208.146 45.0504 205.14 43.7655 202.441C43.7425 202.395 43.8114 202.357 43.8343 202.403C45.1499 204.957 46.2359 207.687 48.4158 209.644C48.6682 208.52 48.9129 207.396 49.1577 206.272C47.1079 204.215 45.8153 201.844 45.0275 199.03C45.0122 198.984 45.081 198.954 45.0963 199.007C46.0141 201.699 47.4903 203.68 49.2648 205.798C49.5019 204.682 49.7467 203.573 50.0067 202.464C49.1807 201.439 48.2093 200.598 47.5439 199.451C46.8861 198.319 46.3889 197.096 46.236 195.788C46.2283 195.719 46.3277 195.704 46.343 195.773C46.8019 198.403 48.5994 199.994 50.1214 201.974C50.3662 200.942 50.6186 199.91 50.9016 198.885C49.2342 196.606 47.3297 194.327 47.1614 191.368C47.1614 191.337 47.1997 191.33 47.2073 191.36C47.5439 194.159 49.4636 196.193 51.0469 198.373C51.1004 198.189 51.1463 198.006 51.1999 197.822C51.4752 196.874 51.7582 195.933 52.0412 194.993C50.9934 193.876 50.1061 192.576 49.2954 191.276C48.7218 190.359 48.0869 189.418 47.9416 188.324C47.9339 188.256 48.0334 188.24 48.0487 188.309C48.4464 190.596 50.6186 192.813 52.1636 194.587C52.4543 193.639 52.7449 192.691 53.0279 191.735C51.4752 189.426 49.2724 187.514 49.0353 184.539C49.0277 184.447 49.1577 184.432 49.173 184.524C49.5478 187.315 51.6664 189.104 53.1579 191.292C53.3338 190.703 53.5098 190.114 53.6857 189.525C51.7506 187.583 49.9455 184.363 49.7008 181.687C49.6855 181.542 49.9073 181.511 49.9302 181.656C50.3203 184.088 51.9112 187.277 53.8233 189.059C54.0987 188.103 54.3741 187.139 54.6265 186.176C54.6188 186.145 54.6188 186.114 54.6265 186.084C53.7239 185.289 53.0279 184.065 52.3854 183.086C51.6052 181.909 50.9322 180.639 50.7716 179.217C50.7563 179.056 51.001 179.041 51.0163 179.194C51.1922 181.526 53.0738 183.912 54.7794 185.564C54.8712 185.212 54.963 184.86 55.0471 184.501C55.1771 183.973 55.3072 183.438 55.4295 182.91C54.8635 181.947 53.9304 181.182 53.3797 180.18C52.8979 179.316 52.5613 178.383 52.2324 177.443C52.2018 177.351 52.3395 177.29 52.3778 177.389C52.852 178.574 53.3644 179.744 54.1369 180.769C54.5653 181.343 55.1389 181.824 55.5443 182.421C55.7508 181.549 55.9573 180.685 56.1715 179.821C56.1638 179.813 56.1562 179.806 56.1485 179.798C56.1409 179.798 56.1256 179.79 56.1179 179.79C56.0567 179.775 56.0185 179.729 56.0032 179.683C55.0012 178.873 54.5882 177.489 54.2134 176.303C54.2058 176.273 54.244 176.257 54.2593 176.288C54.7182 177.397 55.2383 178.636 56.1638 179.454C56.1715 179.454 56.1715 179.454 56.1791 179.454C56.2097 179.462 56.2403 179.469 56.2632 179.477C56.4392 178.773 56.6227 178.07 56.8139 177.374C56.7374 177.32 56.6992 177.221 56.7604 177.144C56.3474 176.464 56.0414 175.692 55.7661 174.95C55.7431 174.896 55.8273 174.858 55.8502 174.912C56.1714 175.615 56.5157 176.242 56.9669 176.854C57.3799 175.416 57.8389 173.994 58.3972 172.594C58.4507 172.464 58.6419 172.556 58.596 172.679C58.1065 174.04 57.6935 175.432 57.3187 176.823C58.3284 176.296 59.4145 175.776 60.2329 175.011C60.2787 174.973 60.3399 175.026 60.3017 175.072C59.8428 175.569 59.2844 175.929 58.7261 176.296C58.2213 176.624 57.7471 177.06 57.1887 177.305C56.9898 178.054 56.8063 178.812 56.6304 179.569C57.4488 179.798 58.2136 179.982 59.0932 179.722C60.1717 179.408 61.0359 178.697 61.5866 177.71C61.6555 177.588 61.8543 177.68 61.7779 177.802C61.2501 178.704 60.4623 179.423 59.4909 179.821C58.466 180.242 57.5559 180.112 56.5539 179.874C56.3474 180.746 56.1485 181.626 55.9573 182.497C56.8369 182.406 57.7318 182.161 58.5884 181.954C59.9652 181.618 61.0054 180.937 62.298 180.44C62.428 180.394 62.5121 180.586 62.3821 180.639C61.1583 181.129 60.1717 181.809 58.8791 182.161C57.9459 182.413 56.8828 182.773 55.8885 182.819C55.8808 182.864 55.8655 182.91 55.8579 182.956C55.8655 182.972 55.8655 182.979 55.8732 182.994C55.9037 183.086 55.8655 183.147 55.8043 183.178C55.6208 184.019 55.4295 184.86 55.2383 185.694C55.223 185.747 55.2154 185.801 55.2001 185.854C57.357 185.87 60.6688 185.694 61.862 183.744C61.9767 183.56 62.2444 183.752 62.1068 183.927C60.4929 186.015 57.4488 185.854 55.093 186.306C54.8635 187.246 54.6188 188.187 54.3664 189.127C55.6972 189.265 57.0128 189.288 58.336 188.967C59.5368 188.676 61.166 188.416 62.0609 187.522C62.0915 187.491 62.1297 187.537 62.0991 187.567C61.2348 188.47 59.7816 188.692 58.6266 189.043C57.1658 189.494 55.7508 189.793 54.2593 189.548C54.2517 189.594 54.2364 189.632 54.2058 189.663C54.0375 190.252 53.8692 190.848 53.701 191.437C55.9343 192.278 59.7128 192.041 61.579 190.924C61.5867 190.917 61.5943 190.932 61.5866 190.94C60.2558 191.834 58.7796 192.033 57.204 192.072C56.0261 192.094 54.7335 192.171 53.6092 191.75C53.2879 192.844 52.9667 193.937 52.6378 195.023C53.7392 195.107 54.8024 195.406 55.9038 195.467C57.5405 195.559 59.0473 195.054 60.4241 194.22C60.5082 194.167 60.6 194.289 60.5158 194.343C57.9153 196.025 55.4448 195.719 52.5154 195.436C52.2477 196.331 51.9953 197.233 51.7429 198.128C53.984 198.694 57.2346 198.679 59.1085 197.371C59.2462 197.272 59.4068 197.478 59.2691 197.577C58.0759 198.419 56.6074 198.617 55.1772 198.663C54.1446 198.694 52.6761 198.862 51.6511 198.472C51.6435 198.503 51.6358 198.533 51.6282 198.564C51.2687 199.864 50.9551 201.172 50.6568 202.479C53.2268 202.969 55.506 201.959 57.923 201.141C58.0913 201.087 58.1907 201.34 58.0224 201.401C55.5366 202.288 53.2191 203.343 50.565 202.862C50.3279 203.932 50.0985 205.003 49.8843 206.081C52.1024 206.448 54.6876 205.959 56.6992 204.949C56.8445 204.88 56.9287 205.102 56.791 205.179C54.6647 206.295 52.1559 206.723 49.8002 206.494C49.5707 207.649 49.3566 208.803 49.1424 209.966C51.2993 210.593 53.4333 210.057 55.4219 209.04C55.4678 209.017 55.5137 209.094 55.4678 209.124C53.6551 210.142 51.1616 211.136 49.0736 210.394C49.0047 210.761 48.9359 211.136 48.8671 211.503C48.8288 211.724 48.7829 211.954 48.7447 212.183C50.4733 212.443 52.133 212.55 53.8616 212.114C53.9075 212.099 53.9228 212.176 53.8769 212.191C52.1865 212.711 50.4274 212.764 48.6835 212.527C48.5611 213.223 48.4464 213.95 48.3164 214.676C48.7753 214.676 49.2266 214.653 49.7008 214.722C50.5651 214.844 51.2764 214.6 52.1177 214.508C52.1942 214.5 52.2248 214.615 52.1407 214.63C51.3911 214.737 50.7563 215.036 49.9838 214.974C49.4101 214.929 48.8441 214.952 48.2705 214.944C47.758 217.842 47.1002 220.87 45.6088 223.195C45.2799 223.707 44.2932 223.424 44.4232 222.774C44.798 220.779 45.7082 218.867 46.3583 216.94Z" fill="#747DED"/>
<path d="M30.0819 190.137C29.7224 198.174 25.9593 211.067 35.5506 215.678C38.1358 216.917 41.2411 215.701 43.3675 213.934C46.1515 211.632 48.1631 205.767 48.9891 202.334C49.6469 199.611 49.4863 196.354 49.8764 193.54C50.3047 190.504 50.7866 187.468 51.1919 184.432C52.6375 173.466 49.3333 163.135 41.2641 155.442C39.6502 158.753 37.2409 161.292 34.9311 164.282C33.8756 165.643 32.8659 167.104 32.0246 168.602C30.5331 171.248 30.7396 174.353 30.7473 177.251C30.7473 181.526 30.2731 185.862 30.0819 190.137Z" fill="url(#paint8_linear)"/>
<path d="M37.1954 216.374C37.2872 215.716 37.3713 215.051 37.4478 214.393C36.2393 214.087 35.1532 213.078 34.2737 212.298C32.7439 210.944 31.6502 209.277 30.6253 207.534C30.5717 207.442 30.7247 207.35 30.7859 207.434C31.872 208.941 33.0193 210.417 34.4649 211.602C35.268 212.259 36.4305 213.292 37.5243 213.712C37.6084 212.917 37.6849 212.129 37.7537 211.334C36.5376 210.86 35.5892 209.744 34.6867 208.841C33.1493 207.312 31.9408 205.53 30.6712 203.779C30.6559 203.756 30.6865 203.733 30.7018 203.756C32.7134 206.172 34.8244 209.415 37.7997 210.761C37.8761 209.767 37.9373 208.765 37.9832 207.771C37.9832 207.717 37.9832 207.664 37.9909 207.618C34.6102 205.79 32.8816 202.341 30.6941 199.351C30.6559 199.305 30.7247 199.237 30.763 199.29C32.9504 202.097 34.9008 205.155 38.0138 207.029C38.0674 205.599 38.0979 204.177 38.1362 202.754C35.1685 200.72 33.0422 198.151 31.436 194.901C31.4054 194.847 31.4896 194.801 31.5202 194.855C33.264 197.914 35.5127 199.986 38.1515 202.142C38.1897 200.735 38.2203 199.321 38.2739 197.914C37.0348 196.858 35.658 196.063 34.5796 194.817C33.5164 193.593 32.6369 192.224 32.1473 190.672C32.1244 190.588 32.2468 190.549 32.2697 190.634C33.4323 193.723 35.9869 195.237 38.3044 197.294C38.358 195.979 38.4345 194.671 38.5339 193.356C35.9793 190.97 33.134 188.638 32.2391 185.082C32.2315 185.044 32.285 185.028 32.2927 185.067C33.3482 188.393 36.1476 190.419 38.5875 192.706C38.6104 192.469 38.6257 192.239 38.641 192.002C38.7557 190.794 38.8781 189.578 39.0081 188.37C37.4708 187.254 36.094 185.877 34.8091 184.493C33.8989 183.507 32.9122 182.512 32.4762 181.212C32.4456 181.128 32.568 181.082 32.5986 181.167C33.6159 183.851 36.7671 186.053 39.0617 187.842C39.1917 186.619 39.3217 185.403 39.4517 184.179C37.0271 181.725 33.9065 179.92 32.9352 176.357C32.9046 176.249 33.0652 176.204 33.0958 176.303C34.1972 179.607 37.1878 181.297 39.5053 183.606C39.5818 182.849 39.6659 182.092 39.7347 181.335C36.9354 179.423 33.9983 175.928 33.0728 172.724C33.0193 172.548 33.2793 172.464 33.3405 172.632C34.3807 175.5 37.0424 179.002 39.7883 180.731C39.903 179.499 40.0101 178.276 40.1019 177.045C40.0866 177.007 40.0789 176.968 40.0789 176.93C38.794 176.173 37.6696 174.85 36.66 173.81C35.4439 172.556 34.3272 171.172 33.7994 169.482C33.7383 169.298 34.0442 169.214 34.0901 169.405C34.8397 172.197 37.6849 174.659 40.1401 176.28C40.1707 175.829 40.2013 175.378 40.2242 174.927C40.2625 174.254 40.2931 173.581 40.3237 172.9C39.4135 171.86 38.1056 171.141 37.2031 170.055C36.4153 169.115 35.7881 168.059 35.1762 166.997C35.115 166.889 35.268 166.79 35.3368 166.897C36.1858 168.228 37.0807 169.528 38.2586 170.598C38.9163 171.195 39.7271 171.646 40.3466 172.281C40.3925 171.179 40.446 170.078 40.5072 168.969C40.4919 168.962 40.4843 168.954 40.469 168.954C40.4537 168.954 40.4384 168.954 40.4307 168.954C40.3543 168.947 40.2931 168.908 40.2625 168.855C38.8552 168.098 38.0368 166.515 37.3101 165.161C37.2948 165.131 37.3407 165.1 37.356 165.131C38.1668 166.377 39.0922 167.761 40.4078 168.541C40.4155 168.541 40.4155 168.541 40.4231 168.541C40.4614 168.541 40.4996 168.549 40.5378 168.549C40.5914 167.654 40.6526 166.759 40.7214 165.865C40.6143 165.819 40.5455 165.704 40.599 165.597C39.9412 164.863 39.3905 163.999 38.8781 163.165C38.8398 163.104 38.9316 163.043 38.9699 163.104C39.5206 163.892 40.0942 164.565 40.7749 165.207C40.9432 163.364 41.1727 161.529 41.5321 159.701C41.5627 159.533 41.8152 159.594 41.7922 159.762C41.5092 161.537 41.3256 163.311 41.1956 165.1C42.297 164.221 43.4978 163.341 44.3239 162.225C44.3698 162.164 44.4615 162.217 44.4233 162.286C43.9797 162.997 43.3831 163.563 42.7865 164.144C42.2511 164.664 41.7693 165.299 41.1497 165.727C41.0809 166.683 41.035 167.647 40.9891 168.61C42.037 168.702 43.0083 168.748 44.0179 168.228C45.257 167.593 46.1442 166.53 46.5879 165.207C46.6414 165.047 46.9015 165.115 46.8479 165.276C46.4196 166.499 45.6241 167.547 44.5304 168.266C43.3831 169.015 42.2511 169.061 40.9738 169.008C40.9279 170.117 40.8897 171.225 40.8514 172.342C41.9069 172.028 42.9318 171.524 43.9262 171.072C45.5247 170.346 46.6261 169.275 48.087 168.373C48.2323 168.281 48.3776 168.503 48.2323 168.595C46.8632 169.474 45.8154 170.529 44.3239 171.248C43.2531 171.768 42.037 172.457 40.8438 172.732C40.8438 172.793 40.8438 172.847 40.8361 172.908C40.8438 172.923 40.8591 172.931 40.8667 172.946C40.9279 173.045 40.8973 173.137 40.8285 173.191C40.7979 174.254 40.7596 175.317 40.7214 176.379C40.7214 176.448 40.7138 176.509 40.7138 176.578C43.3372 176.097 47.3221 175.118 48.3241 172.464C48.4159 172.212 48.7907 172.38 48.6606 172.632C47.1844 175.546 43.4443 176.051 40.6832 177.144C40.622 178.345 40.5455 179.545 40.4537 180.738C42.1058 180.601 43.712 180.318 45.2417 179.629C46.6338 179.002 48.5536 178.307 49.4408 177.007C49.4714 176.968 49.5249 177.014 49.502 177.052C48.6606 178.352 46.9397 178.957 45.6241 179.652C43.9567 180.539 42.297 181.228 40.4307 181.281C40.4307 181.335 40.4231 181.388 40.3925 181.434C40.3313 182.191 40.2625 182.948 40.186 183.705C43.1001 184.21 47.6357 183.048 49.6473 181.258C49.6549 181.251 49.6702 181.266 49.6626 181.274C48.2476 182.673 46.5037 183.254 44.5992 183.659C43.1766 183.965 41.6163 184.355 40.1554 184.103C40.0177 185.502 39.8724 186.909 39.7347 188.309C41.0885 188.164 42.4576 188.271 43.8114 188.087C45.8154 187.819 47.5439 186.864 49.0201 185.518C49.1119 185.434 49.2496 185.556 49.1578 185.648C46.389 188.294 43.3143 188.492 39.6812 188.829C39.5665 189.976 39.4594 191.131 39.3676 192.285C42.2282 192.454 46.1749 191.681 48.1482 189.662C48.2935 189.517 48.5306 189.731 48.3853 189.877C47.1309 191.177 45.387 191.75 43.6584 192.14C42.4117 192.415 40.6602 192.958 39.3217 192.721C39.3217 192.759 39.3141 192.798 39.3141 192.836C39.184 194.495 39.0923 196.162 39.0387 197.822C42.2741 197.829 44.8134 196.071 47.5669 194.518C47.7581 194.411 47.9417 194.694 47.7504 194.809C44.9358 196.461 42.3658 198.288 39.0234 198.311C38.9775 199.665 38.9546 201.026 38.9393 202.379C41.7157 202.311 44.7522 201.118 46.9626 199.428C47.1233 199.305 47.2762 199.565 47.1233 199.688C44.7981 201.538 41.8457 202.639 38.9316 202.907C38.924 204.36 38.924 205.821 38.9316 207.274C41.7004 207.541 44.1709 206.394 46.3508 204.697C46.4043 204.658 46.4731 204.742 46.4196 204.788C44.4463 206.448 41.6545 208.229 38.9393 207.809C38.9393 208.275 38.9469 208.742 38.9469 209.201C38.9469 209.484 38.9546 209.767 38.9546 210.057C41.1115 209.973 43.1613 209.721 45.1576 208.788C45.2111 208.765 45.2494 208.849 45.1958 208.872C43.2607 209.889 41.1344 210.371 38.9622 210.485C38.9775 211.365 39.0005 212.267 39.0158 213.185C39.5741 213.078 40.1172 212.948 40.7061 212.917C41.7846 212.871 42.5877 212.397 43.5896 212.099C43.6814 212.068 43.7426 212.206 43.6508 212.237C42.7636 212.542 42.0599 213.047 41.1115 213.154C40.4078 213.231 39.7194 213.391 39.0234 213.506C39.077 217.154 38.9699 220.985 37.7002 224.151C37.4172 224.854 36.1475 224.739 36.1552 223.914C36.1781 221.398 36.8512 218.867 37.1954 216.374Z" fill="#747DED"/>
<path d="M24.789 219.387L25.1408 225.917L25.6992 236.088L26.6094 252.804H49.2415L50.1517 236.088L50.71 225.917L51.0619 219.387H24.789Z" fill="#95A8B5"/>
<path d="M25.1409 225.917L25.2174 227.225L25.2862 228.578L25.6992 236.088H50.1518L50.5648 228.578L50.6336 227.225L50.7101 225.917H25.1409Z" fill="#A5B7C6"/>
<path d="M25.2174 227.225L25.2863 228.578H50.5648L50.6337 227.225H25.2174Z" fill="#95A8B5"/>
<defs>
<radialGradient id="paint0_radial" cx="0" cy="0" r="1" gradientUnits="userSpaceOnUse" gradientTransform="translate(106.487 86.1088) rotate(180) scale(9.88616 9.88421)">
<stop stop-color="#FFC8AF"/>
<stop offset="1" stop-color="#FFBB9C"/>
</radialGradient>
<radialGradient id="paint1_radial" cx="0" cy="0" r="1" gradientUnits="userSpaceOnUse" gradientTransform="translate(112.207 68.2178) rotate(-167.851) scale(15.5858 15.583)">
<stop stop-color="#FFC8AF"/>
<stop offset="1" stop-color="#FFBB9C"/>
</radialGradient>
<radialGradient id="paint2_radial" cx="0" cy="0" r="1" gradientUnits="userSpaceOnUse" gradientTransform="translate(127.565 235.356) rotate(180) scale(6.21516 6.21393)">
<stop stop-color="#FFC8AF"/>
<stop offset="1" stop-color="#FFBB9C"/>
</radialGradient>
<radialGradient id="paint3_radial" cx="0" cy="0" r="1" gradientUnits="userSpaceOnUse" gradientTransform="translate(166.927 236.914) rotate(180) scale(5.6611 5.65996)">
<stop stop-color="#FFC8AF"/>
<stop offset="1" stop-color="#FFBB9C"/>
</radialGradient>
<radialGradient id="paint4_radial" cx="0" cy="0" r="1" gradientUnits="userSpaceOnUse" gradientTransform="translate(132.461 130.705) rotate(180) scale(31.6989 31.6926)">
<stop stop-color="#FFC8AF"/>
<stop offset="1" stop-color="#FFBB9C"/>
</radialGradient>
<radialGradient id="paint5_radial" cx="0" cy="0" r="1" gradientUnits="userSpaceOnUse" gradientTransform="translate(132.461 130.706) rotate(180) scale(31.6988 31.6925)">
<stop stop-color="#FFC8AF"/>
<stop offset="1" stop-color="#FFBB9C"/>
</radialGradient>
<linearGradient id="paint6_linear" x1="25.145" y1="167.469" x2="25.1428" y2="215.876" gradientUnits="userSpaceOnUse">
<stop stop-color="#606BF1"/>
<stop offset="1" stop-color="#58479F"/>
</linearGradient>
<linearGradient id="paint7_linear" x1="63.5478" y1="171.4" x2="43.1179" y2="215.285" gradientUnits="userSpaceOnUse">
<stop stop-color="#606BF1"/>
<stop offset="1" stop-color="#58479F"/>
</linearGradient>
<linearGradient id="paint8_linear" x1="47.5412" y1="157.029" x2="32.8663" y2="215.109" gradientUnits="userSpaceOnUse">
<stop stop-color="#606BF1"/>
<stop offset="1" stop-color="#58479F"/>
</linearGradient>
</defs>
</svg>
