<svg width="387" height="340" viewBox="0 0 387 340" fill="none" xmlns="http://www.w3.org/2000/svg">
<path d="M202.96 19.3401H292.51C294.719 19.3401 296.51 21.1309 296.51 23.3401V106.39C296.51 108.599 294.719 110.39 292.51 110.39H202.96C200.751 110.39 198.96 108.599 198.96 106.39V23.3401C198.96 21.1309 200.751 19.3401 202.96 19.3401Z" fill="#112B46"/>
<path d="M202.96 19.3401H292.51C294.719 19.3401 296.51 21.1309 296.51 23.3401V24.9701C296.51 27.1792 294.719 28.9701 292.51 28.9701H202.96C200.751 28.9701 198.96 27.1792 198.96 24.9701V23.3401C198.96 21.1309 200.751 19.3401 202.96 19.3401Z" fill="#1D262D"/>
<path d="M220.05 24.27C220.05 25.24 220.84 26.04 221.82 26.04C222.8 26.04 223.59 25.25 223.59 24.27C223.59 23.29 222.8 22.5 221.82 22.5C220.84 22.5 220.05 23.29 220.05 24.27Z" fill="#606BF1"/>
<path d="M212.68 24.27C212.68 25.24 213.47 26.04 214.45 26.04C215.42 26.04 216.22 25.25 216.22 24.27C216.22 23.29 215.43 22.5 214.45 22.5C213.47 22.5 212.68 23.29 212.68 24.27Z" fill="#F4E041"/>
<path d="M205.83 24.4499C205.83 25.4199 206.62 26.2199 207.6 26.2199C208.58 26.2199 209.37 25.4299 209.37 24.4499C209.37 23.4799 208.58 22.6799 207.6 22.6799C206.62 22.6899 205.83 23.4799 205.83 24.4499Z" fill="#EA5924"/>
<path d="M265.35 37.9202H279.17V39.0802H265.35V37.9202Z" fill="#EA5924"/>
<path d="M249.13 37.9202H262.95V39.0802H249.13V37.9202Z" fill="#F4E041"/>
<path d="M253.461 44.1802H274.891V45.3402H253.461V44.1802Z" fill="#606BF1"/>
<path d="M239.03 44.1802H249.92V45.3402H239.03V44.1802Z" fill="#EA5924"/>
<path d="M258.05 50.4402H267.46V51.6002H258.05V50.4402Z" fill="#F4E041"/>
<path d="M221.39 50.4402H252.61V51.6002H221.39V50.4402Z" fill="#F4E041"/>
<path d="M224.47 56.6902H260.15V57.8502H224.47V56.6902Z" fill="#606BF1"/>
<path d="M258.09 62.9502H269.07V64.1102H258.09V62.9502Z" fill="#EA5924"/>
<path d="M242.411 62.9502H253.391V64.1102H242.411V62.9502Z" fill="#606BF1"/>
<path d="M263.2 95.4001H279.17V96.5601H263.2V95.4001Z" fill="#EA5924"/>
<path d="M241.631 95.4001H257.601V96.5601H241.631V95.4001Z" fill="#F4E041"/>
<path d="M220.64 95.4001H236.61V96.5601H220.64V95.4001Z" fill="#EA5924"/>
<path d="M243.671 89.1501H274.891V90.3101H243.671V89.1501Z" fill="#606BF1"/>
<path d="M207.591 89.1501H238.811V90.3101H207.591V89.1501Z" fill="#EA5924"/>
<path d="M236.48 82.8901H267.46V84.0501H236.48V82.8901Z" fill="#EA5924"/>
<path d="M225.16 82.8901H233.78V84.0501H225.16V82.8901Z" fill="#F4E041"/>
<path d="M257.82 76.6401H269.48V77.8001H257.82V76.6401Z" fill="#F4E041"/>
<path d="M239.97 76.6401H251.63V77.8001H239.97V76.6401Z" fill="#606BF1"/>
<path d="M220.81 76.6401H232.47V77.8001H220.81V76.6401Z" fill="#EA5924"/>
<path d="M239.62 70.3801H255.97V71.5401H239.62V70.3801Z" fill="#F4E041"/>
<path d="M262.14 70.3801H278.49V71.5401H262.14V70.3801Z" fill="#606BF1"/>
<path d="M286.72 36.8101H288.21V38.3001H286.72V36.8101Z" fill="#F9FBFC"/>
<path d="M286.72 91.3501H288.21V88.3201H286.72V91.3501ZM286.72 83.7701H288.21V80.7401H286.72V83.7701ZM286.72 76.1901H288.21V73.1601H286.72V76.1901ZM286.72 68.6101H288.21V65.5801H286.72V68.6101ZM286.72 61.0301H288.21V58.0001H286.72V61.0301ZM286.72 53.4601H288.21V50.4301H286.72V53.4601ZM286.72 45.8801H288.21V42.8501H286.72V45.8801Z" fill="#F9FBFC"/>
<path d="M286.72 95.9001H288.21V97.3901H286.72V95.9001Z" fill="#F9FBFC"/>
<path d="M101.64 0H173.97C176.179 0 177.97 1.79086 177.97 4V45.51C177.97 47.7191 176.179 49.51 173.97 49.51H101.64C99.4311 49.51 97.6402 47.7191 97.6402 45.51V4C97.6402 1.79086 99.4311 0 101.64 0Z" fill="#EA5924"/>
<path d="M146.77 19.9201L156.33 24.0001L146.77 28.0201L148.02 30.9101L159.48 25.7901V22.2501L148.02 17.1001L146.77 19.9201Z" fill="#F9FBFC"/>
<path d="M132.69 10.48L139.63 37.13L142.93 36.36L135.96 9.73999L132.69 10.48Z" fill="#F9FBFC"/>
<path d="M116.1 22.2401V25.7801L127.56 30.9001L128.81 28.0101L119.28 23.9901L128.81 19.9101L127.56 17.0801L116.1 22.2401Z" fill="#F9FBFC"/>
<path d="M58.6499 95.9299H96.3999C98.609 95.9299 100.4 97.7208 100.4 99.9299V124.53C100.4 126.739 98.609 128.53 96.3999 128.53H58.6499C56.4408 128.53 54.6499 126.739 54.6499 124.53V99.9299C54.6499 97.7208 56.4408 95.9299 58.6499 95.9299Z" fill="#606BF1"/>
<path d="M81.2599 102.96C82.7299 102.96 83.2198 103.36 83.2198 104.46V109.37C83.2198 111.29 84.0099 111.87 85.3499 112.24C84.0199 112.59 83.2198 113.17 83.2198 115.07V119.98C83.2198 121.08 82.7099 121.48 81.2599 121.48V123.63C84.9699 123.63 86.0298 122.44 86.0298 119.96V115.31C86.0298 113.98 86.3798 113.46 87.5898 113.46V111C86.3798 111 86.0298 110.46 86.0298 109.13V104.48C86.0298 101.98 84.9799 100.81 81.2599 100.81V102.96Z" fill="#F1F2F2"/>
<path d="M69.02 104.48V109.13C69.02 110.46 68.67 111 67.43 111V113.45C68.67 113.45 69.02 113.96 69.02 115.3V119.95C69.02 122.43 70.07 123.62 73.79 123.62V121.47C72.34 121.47 71.83 121.07 71.83 119.97V115.06C71.83 113.17 71.04 112.58 69.7 112.23C71.03 111.86 71.83 111.27 71.83 109.36V104.45C71.83 103.35 72.32 102.95 73.79 102.95V100.8C70.07 100.81 69.02 101.98 69.02 104.48Z" fill="#F1F2F2"/>
<path d="M280.23 7.1001H323.56C325.769 7.1001 327.56 8.89096 327.56 11.1001V37.4301C327.56 39.6392 325.769 41.4301 323.56 41.4301H280.23C278.021 41.4301 276.23 39.6392 276.23 37.4301V11.1001C276.23 8.89096 278.021 7.1001 280.23 7.1001Z" fill="#F4E041"/>
<path d="M310.57 16.9601C313.02 20.0301 312.98 24.5101 310.49 27.5401C307.65 30.9801 302.79 31.5401 299.3 29.2101L293.91 34.6001C293.68 34.8301 293.31 34.8301 293.09 34.6001L291.58 33.0901C291.35 32.8601 291.35 32.4901 291.58 32.2701L296.97 26.8801C294.79 23.6101 295.14 19.1401 298.02 16.2501C301.53 12.7301 307.39 12.9701 310.57 16.9601ZM299.76 26.4101C302.08 28.7301 305.86 28.7301 308.18 26.4101C310.5 24.0901 310.5 20.3101 308.18 17.9901C305.86 15.6701 302.08 15.6701 299.76 17.9901C297.44 20.3001 297.44 24.0801 299.76 26.4101Z" fill="#F9FBFC"/>
<path d="M126.92 113.15C127.03 114.28 128.58 126.12 140.76 126.12C153.54 126.12 151.4 113.47 151.4 113.47L151.42 113.39C150.17 113.13 148.83 113.04 147.41 113.2V107.21L132.9 99.0901H132.37V113.07C132.37 113.07 130.07 112.8 126.92 113.15Z" fill="url(#paint0_radial)"/>
<path d="M133.96 72.34C131.9 74.43 130.35 77.13 129.6 80.42C128.21 86.57 129.52 93.07 131.3 98.99C131.6 100 131.95 101.03 132.58 101.88C133.03 102.49 133.6 102.99 134.17 103.49C136.75 105.74 139.33 107.99 141.91 110.24C143.66 111.77 154.4 113.04 156.45 111.57C164.35 105.92 165.87 89.55 164.29 81.18C161.66 67.31 143.82 62.34 133.96 72.34Z" fill="url(#paint1_radial)"/>
<path d="M138.4 90.11C138.29 88.77 136.92 87.31 135.54 88.18C134.11 89.08 134.45 91.45 135.04 92.76C135.5 93.78 137.06 94.91 138.11 93.95C138.99 93.15 137.62 92.21 137.58 91.48C137.54 90.82 138.85 90.35 138.31 89.65" fill="#F7B094"/>
<path d="M138.15 96.2901C136.71 96.7201 134.27 95.6201 133.65 93.6201C133.03 91.6101 133.1 89.3201 133.1 89.3201C133.1 89.3201 132.37 91.1401 132.75 94.0601C133.13 96.9801 134.15 99.7601 136.44 99.8001C138.73 99.8301 138.15 96.2901 138.15 96.2901Z" fill="#F7B094"/>
<path d="M139.92 94.21C139.97 94.23 140.02 94.25 140.08 94.26C140.97 94.38 141.33 93.31 141.46 92.63C141.77 91.05 141.72 89.46 141.78 87.86C141.79 87.46 141.76 86.96 141.92 86.59C142.42 85.44 143.76 84.7 144.16 83.51C144.63 82.13 143.3 80.76 143.83 79.25C144.64 76.94 147.61 76.41 149.76 76.43C152.98 76.47 156.12 77.07 159.3 77.56C162.66 78.08 166.94 78.57 169.9 76.45C173.46 73.89 174.95 67.23 172.29 63.58C170.84 61.59 168.09 60.53 165.68 60.48C163.13 60.42 160.97 61.94 158.63 62.71C156.76 63.32 154.96 61.54 153.22 61.19C151.03 60.75 150.1 63.14 148.16 63.21C146.28 63.27 144.43 61.8 142.6 61.47C138.95 60.8 139.16 64.47 136.72 65.72C135.2 66.5 133.23 66.03 131.69 66.82C130.52 67.42 130.36 68.48 130.1 69.67C129.88 70.7 129.87 71.9 129.53 72.88C129.22 73.76 128.48 74.32 127.9 75.01C127.27 75.76 126.86 76.65 126.54 77.59C125.83 79.69 125.67 81.95 125.87 84.15C126.2 87.84 127.38 91.47 128.61 94.94C129.41 97.19 129.71 99.54 130.93 101.67C131.26 102.24 132.73 103.92 133.27 102.67C133.39 102.4 133.37 102.1 133.35 101.81C133.19 99.49 131.03 84.52 136.69 86.32C137.88 86.7 138.68 87.69 139.12 88.82C139.65 90.17 139.69 91.53 139.62 92.96C139.61 93.16 139.61 93.37 139.61 93.57C139.62 93.83 139.69 94.09 139.92 94.21Z" fill="#3D3D7A"/>
<path d="M147.4 111.82C140.95 110.78 136.7 105.69 136.7 105.69C136.7 105.69 138.44 114.27 147.79 114.73L147.4 111.82Z" fill="#F7B094"/>
<path d="M136.82 228.8H127.59V317.33C127.59 318.23 128.32 318.96 129.22 318.96H135.19C136.09 318.96 136.82 318.23 136.82 317.33V228.8Z" fill="#0A2033"/>
<path d="M157.581 230.06H106.841V231.45C106.841 234.94 109.671 237.76 113.151 237.76H151.261C154.751 237.76 157.571 234.93 157.571 231.45V230.06H157.581Z" fill="#30475E"/>
<path d="M136.82 308.45H127.59V328.96C127.59 329.86 128.32 330.59 129.22 330.59H135.19C136.09 330.59 136.82 329.86 136.82 328.96V308.45Z" fill="#0A2033"/>
<path d="M180.09 325.19C180.09 328.17 177.67 330.59 174.69 330.59C171.71 330.59 169.29 328.17 169.29 325.19C169.29 322.21 171.71 319.79 174.69 319.79C177.67 319.79 180.09 322.21 180.09 325.19Z" fill="#0A2033"/>
<path d="M95.1304 325.19C95.1304 328.17 92.7104 330.59 89.7304 330.59C86.7504 330.59 84.3304 328.17 84.3304 325.19C84.3304 322.21 86.7504 319.79 89.7304 319.79C92.7104 319.79 95.1304 322.21 95.1304 325.19Z" fill="#0A2033"/>
<path d="M141.486 317.791H122.926V301.571H141.486V317.791Z" fill="#30475E"/>
<path d="M180.09 321.61H84.3303V319.73C84.3303 316.55 86.9103 313.98 90.0803 313.98H174.34C177.52 313.98 180.09 316.55 180.09 319.73V321.61Z" fill="#F4E041"/>
<path d="M132.21 239.58H135.41V300.13H132.21V239.58Z" fill="#30475E"/>
<path d="M95.9603 164.63C98.1703 164.56 99.9704 166.39 99.8504 168.6C99.2204 179.59 101.55 206.4 111.78 215.55C124.3 226.73 159.77 225.21 159.77 225.21C159.77 225.21 165.63 232.4 153.91 234C142.19 235.6 109.17 234.53 101.19 227.08C93.4604 219.86 88.8703 200.95 92.3303 168.04C92.5203 166.15 94.0603 164.69 95.9603 164.63Z" fill="#F4E041"/>
<path d="M162.42 300.13L158.2 309.75L171.13 315.42L175.36 305.77L162.42 300.13Z" fill="url(#paint2_radial)"/>
<path d="M101.47 193.22C102.27 194.82 159.7 193.25 165.12 193.75C165.12 193.75 200.27 210.53 205.32 226.23C205.83 227.81 205.97 229.9 205.82 232.4C204.41 254.51 179.23 307.46 179.23 307.46L175.36 305.77L162.42 300.13L160.58 299.33C160.58 299.33 180.55 239.82 176.56 236.62C172.57 233.42 127.3 225.44 111.6 221.19C95.8801 216.92 101.47 193.22 101.47 193.22Z" fill="#56548C"/>
<path d="M211.7 302.6L210.69 317.05H224.8L225.8 302.57L211.7 302.6Z" fill="url(#paint3_radial)"/>
<path d="M165.41 193.26L165.92 193.48C165.92 193.48 224.76 201.74 234.35 218.24C240.58 228.98 228.52 307.43 228.52 307.43L207.7 307.48C207.7 307.48 210.81 242.13 209.78 238.49C208.61 234.34 206.62 232.83 205.82 232.4C205.98 229.91 205.84 227.81 205.32 226.23C200.27 210.52 165.12 193.75 165.12 193.75C165.23 193.67 165.33 193.5 165.41 193.26Z" fill="#3D3D7A"/>
<path d="M108.57 138.89L112.52 139.43C112.52 139.43 113.48 150.07 115.83 160.71L164.99 179.37L165.66 182.93C165.87 182.91 166.08 182.9 166.27 182.88C166.25 183.61 166.25 184.33 166.22 185C166.11 189.11 165.84 192.06 165.41 193.24C165.33 193.48 165.23 193.66 165.12 193.74C163.78 194.83 146.4 192.72 127.6 199.62C111.3 205.61 102.16 212.14 101.74 211.27C96.61 200.63 105.94 158.83 108.57 138.89Z" fill="#EA5924"/>
<path d="M113.7 163.27C115.01 169.56 118.4 182.09 125.04 183.77C133.72 185.97 150.49 185.86 166.21 185.02C166.24 184.35 166.24 183.63 166.26 182.9C166.07 182.92 165.86 182.93 165.65 182.95L164.98 179.39L115.82 160.73C113.47 150.09 112.51 139.45 112.51 139.45C112.51 139.45 112.51 139.51 112.49 139.63C112.41 141.25 111.74 153.97 113.7 163.27Z" fill="#F4675D"/>
<path d="M162.98 123.18C163.86 124.78 165.12 141.87 165.81 158.84L175.86 149.46C171.59 141.2 162.98 123.18 162.98 123.18Z" fill="#F4675D"/>
<path d="M169 171.24C177.48 172.71 185.28 173.97 185.28 173.97L185.3 174.39C194.74 166.85 209.11 145.49 209.11 145.49C209.11 145.49 204.81 140.33 203.74 138.97C203.58 138.76 180.16 154.88 178.96 154.74C178.66 154.71 177.46 152.6 175.86 149.47L165.81 158.85C165.97 162.89 166.1 166.92 166.18 170.74C167.12 170.9 168.06 171.06 169 171.24Z" fill="#F7B094"/>
<path d="M185.28 173.97L185.49 180.97H211.05C211.05 180.97 208.51 170.98 201.59 170.98C194.67 170.98 192 174.64 192 174.64L185.28 173.97Z" fill="url(#paint4_radial)"/>
<path d="M203.93 138.81L203.74 138.97C204.81 140.33 209.11 145.49 209.11 145.49L211.78 143.6C211.78 143.6 214.72 145.39 218.14 143.52C221.7 141.59 219.5 136.97 219.32 136.42C220.01 136.61 224.28 140.07 224.95 139.7C225.62 139.33 226.12 138.12 221.34 133.41C216.58 128.7 210.09 134.75 209.9 134.75L203.93 138.81Z" fill="#F7B094"/>
<path d="M217.58 142.72C217.58 142.72 218.61 144.65 216.78 145.49C214.95 146.33 211.39 146.93 209.86 146.79C208.33 146.65 207.11 144.5 207.11 144.5L211.74 140.15H215.45L217.58 142.72Z" fill="#F7B094"/>
<path d="M217.85 143.66C217.58 142.71 214.94 143.22 213.31 143.26C212.11 143.29 211.45 142.97 211.08 142.06C210.71 141.14 212.45 139.69 212.8 140.14C213.14 140.6 212.17 141.24 212.14 141.85C212.11 142.46 213.86 142.66 215.2 142.66C216.54 142.66 218.86 143.01 218.86 143.01L217.85 143.66Z" fill="#E8987C"/>
<path d="M118.32 169.79L143.36 160.92C145.18 164.32 147.13 166.88 149.06 167.39C151.98 168.16 159.05 169.48 166.17 170.73C167.11 170.91 168.06 171.07 169 171.24C177.48 172.71 185.28 173.97 185.28 173.97L185.3 174.39V174.66L185.49 180.97V182.57C185.49 182.57 176.99 182.14 166.27 182.89C151.27 183.96 131.92 184.6 125.51 181.58C122.51 180.16 120.11 175.49 118.22 169.74C118.26 169.75 118.29 169.77 118.32 169.79Z" fill="url(#paint5_radial)"/>
<path d="M143.36 160.92L118.32 169.79L119.46 173.13L144.24 162.5L143.36 160.92Z" fill="#F7B094"/>
<path d="M143.36 160.92C145.18 164.32 147.13 166.88 149.06 167.39C151.98 168.16 159.05 169.48 166.17 170.73C166.09 166.91 165.96 162.89 165.8 158.84C165.11 141.87 163.85 124.78 162.97 123.18C161.53 120.51 157.6 114.71 151.4 113.39L151.38 113.47C151.38 113.47 153.52 126.12 140.74 126.12C128.57 126.12 127.02 114.28 126.9 113.15C120.64 113.85 111.03 116.98 109.71 129.57C109.44 132.06 109.05 135.26 108.56 138.88L112.51 139.42C112.51 139.42 114.11 157.15 118.21 169.73C118.24 169.75 118.27 169.76 118.31 169.78L143.36 160.92Z" fill="#EA5924"/>
<path d="M143.62 158.61L133.62 134.41L140.99 159.59L143.62 158.61Z" fill="#6D4B35"/>
<path d="M126.92 113.15H132.37C132.37 113.15 140.12 121.66 145.11 121.66C150.1 121.66 147.41 113.19 147.41 113.19H149.84C156.83 113.19 162.7 118.44 163.49 125.38C163.58 126.17 163.66 126.93 163.73 127.61C164.26 132.76 143.4 136.51 143.4 136.51L132.66 135.91L126.14 123.18L124.84 117.97L126.92 113.15Z" fill="#EA5924"/>
<path d="M192.66 326.49C192.17 329.09 190.37 330.94 187.77 330.46L153.07 323.99C152.19 323.83 151.61 322.98 151.78 322.1L152.35 319.02C152.35 319.02 188.85 325.41 192.68 326.47L192.66 326.49Z" fill="#F1F2F2"/>
<path d="M182.34 317.75C181.98 317.44 181.63 317.12 181.27 316.81C180.57 316.19 179.89 315.58 179.23 314.99C178.88 314.68 178.53 314.37 178.21 314.07C177.58 313.5 176.98 312.97 176.44 312.49C176.06 312.14 175.7 311.81 175.37 311.52C174.78 310.99 174.29 310.55 173.95 310.25C173.66 309.99 173.22 309.97 172.92 310.23C171.49 311.43 166.88 314.17 158.53 309C158.13 308.75 157.61 308.88 157.39 309.3L152.34 319.01C152.34 319.01 188.84 325.4 192.67 326.46C191.42 325.68 186.76 321.65 182.34 317.75Z" fill="#3D3D7A"/>
<path d="M247.31 326.15C247.25 328.8 245.76 330.91 243.11 330.85L207.82 329.99C206.93 329.97 206.22 329.23 206.24 328.33L206.32 325.2C206.32 325.2 243.37 325.69 247.32 326.13L247.31 326.15Z" fill="#F1F2F2"/>
<path d="M235.73 319.17C235.32 318.92 234.93 318.67 234.52 318.41C233.73 317.91 232.96 317.42 232.22 316.94C231.83 316.69 231.43 316.44 231.07 316.2C230.35 315.74 229.68 315.31 229.08 314.92C228.64 314.64 228.24 314.37 227.87 314.13C227.2 313.7 226.65 313.35 226.27 313.1C225.94 312.89 225.51 312.94 225.25 313.24C224.03 314.65 219.92 318.09 210.85 314.32C210.42 314.14 209.92 314.35 209.78 314.79L206.34 325.18C206.34 325.18 243.39 325.67 247.34 326.11C245.96 325.55 240.72 322.31 235.73 319.17Z" fill="#3D3D7A"/>
<path d="M272.42 182.57L291.26 132.31H237.61L218.76 182.57H272.42Z" fill="#ABB5BA"/>
<path d="M215.45 182.57H218.76L237.61 132.31L234.6 132.44L217.16 177.94L215.45 182.57Z" fill="#8495A0"/>
<path d="M216.49 182.57H181.04L181.14 179.4C181.14 179.4 216.63 179.4 217.22 179.4" fill="#8495A0"/>
<path d="M65.44 192.16H73.98V332.39H65.44V192.16Z" fill="#8495A0"/>
<path d="M111.77 192.16H120.31V332.39H111.77V192.16Z" fill="#ABB5BA"/>
<path d="M260.21 192.16H268.75V332.39H260.21V192.16Z" fill="#8495A0"/>
<path d="M306.54 192.16H315.08V332.39H306.54V192.16Z" fill="#ABB5BA"/>
<path d="M56.9001 192.69H323.26C325.55 192.69 327.41 190.83 327.41 188.54V186.72C327.41 184.43 325.55 182.57 323.26 182.57H56.9001C54.6101 182.57 52.7502 184.43 52.7502 186.72V188.54C52.7502 190.83 54.6101 192.69 56.9001 192.69Z" fill="#141B56"/>
<path d="M282.3 137.59L281.39 140.04H270.7L271.62 137.59H282.3Z" fill="#8495A0"/>
<path d="M175.86 149.46L176.62 150.95L165.81 162.12V158.84L175.86 149.46Z" fill="#E8987C"/>
<path d="M4 330H383C385.209 330 387 331.791 387 334V336C387 338.209 385.209 340 383 340H4C1.79086 340 0 338.209 0 336V334C0 331.791 1.79086 330 4 330Z" fill="#A5B7C6"/>
<path d="M23.56 257.44C25.28 265.77 24.76 279.95 35.77 282.19C38.74 282.79 41.6 280.74 43.32 278.38C45.58 275.3 46.12 268.77 46.08 265.04C46.05 262.08 45.04 258.78 44.72 255.8C44.37 252.58 44.08 249.35 43.71 246.13C42.36 234.52 36.29 224.79 26.03 219C25.24 222.81 23.43 226.04 21.83 229.69C21.1 231.36 20.45 233.12 19.97 234.87C19.13 237.97 20.15 241.09 20.9 244.06C22.02 248.44 22.65 253.01 23.56 257.44Z" fill="url(#paint6_linear)"/>
<path d="M37.6399 282.47C37.5599 281.77 37.4799 281.07 37.3799 280.38C36.0599 280.38 34.6899 279.63 33.5899 279.06C31.6699 278.07 30.1199 276.64 28.6199 275.12C28.5399 275.04 28.6799 274.91 28.7599 274.98C30.2599 276.24 31.8199 277.46 33.5999 278.29C34.5999 278.75 36.0499 279.51 37.2799 279.66C37.1599 278.83 37.0399 277.99 36.8999 277.16C35.5299 276.99 34.2699 276.09 33.1099 275.4C31.1399 274.23 29.4399 272.72 27.6799 271.26C27.6599 271.24 27.6799 271.21 27.6999 271.23C30.3899 273.18 33.3899 275.96 36.7899 276.57C36.6099 275.53 36.4199 274.49 36.1999 273.46C36.1899 273.41 36.1799 273.35 36.1699 273.3C32.2299 272.3 29.5699 269.22 26.5499 266.72C26.4999 266.68 26.5499 266.6 26.6099 266.64C29.5799 268.95 32.3699 271.58 36.0399 272.7C35.7199 271.23 35.3899 269.76 35.0599 268.29C31.4999 266.98 28.6499 264.89 26.1599 261.98C26.1199 261.93 26.1899 261.86 26.2299 261.91C28.8099 264.59 31.6499 266.13 34.9099 267.66C34.5799 266.21 34.2499 264.75 33.9399 263.3C32.3999 262.54 30.7799 262.08 29.3499 261.08C27.9499 260.1 26.6899 258.93 25.7799 257.46C25.7299 257.38 25.8499 257.31 25.8999 257.38C27.8899 260.25 30.8999 261.14 33.7999 262.64C33.5199 261.28 33.2499 259.92 33.0199 258.55C29.7799 256.77 26.2699 255.12 24.4299 251.7C24.4099 251.67 24.4599 251.63 24.4799 251.67C26.4199 254.81 29.8199 256.16 32.8999 257.87C32.8599 257.63 32.8199 257.38 32.7799 257.14C32.5799 255.87 32.3999 254.6 32.2099 253.32C30.3499 252.58 28.5799 251.52 26.8999 250.43C25.7099 249.66 24.4399 248.89 23.6699 247.68C23.6199 247.6 23.7299 247.53 23.7899 247.6C25.5299 250.09 29.3299 251.52 32.1399 252.77C31.9599 251.48 31.7799 250.2 31.5899 248.91C28.4699 247.02 24.8099 245.98 22.8899 242.58C22.8299 242.48 22.9799 242.39 23.0399 242.48C25.0299 245.58 28.5199 246.54 31.4999 248.3C31.3899 247.5 31.2699 246.71 31.1499 245.91C27.7899 244.67 23.8699 241.86 22.0999 238.82C21.9999 238.65 22.2399 238.5 22.3499 238.66C24.1599 241.33 27.7899 244.23 31.0499 245.29C30.8499 244 30.6399 242.71 30.4099 241.43C30.3899 241.39 30.3699 241.36 30.3599 241.32C28.8499 240.88 27.3599 239.81 26.0499 239.01C24.4799 238.04 22.9799 236.91 21.9999 235.32C21.8899 235.14 22.1799 234.98 22.2799 235.16C23.7699 237.83 27.3199 239.61 30.2599 240.63C30.1699 240.16 30.0899 239.69 29.9999 239.23C29.8599 238.53 29.7199 237.83 29.5799 237.13C28.3799 236.3 26.8499 235.9 25.6399 235.03C24.5899 234.27 23.6699 233.35 22.7799 232.42C22.6899 232.33 22.8199 232.18 22.9199 232.27C24.1399 233.42 25.3899 234.51 26.8699 235.31C27.6999 235.75 28.6399 236.01 29.4499 236.49C29.2199 235.35 28.9799 234.2 28.7599 233.06C28.7499 233.06 28.7299 233.05 28.7199 233.05C28.7099 233.05 28.6899 233.06 28.6799 233.06C28.5999 233.08 28.5299 233.05 28.4799 233C26.8499 232.59 25.5899 231.18 24.4999 229.98C24.4699 229.95 24.5099 229.91 24.5399 229.94C25.6899 231.01 26.9999 232.19 28.5499 232.64C28.5599 232.64 28.5599 232.63 28.5699 232.63C28.6099 232.62 28.6499 232.62 28.6899 232.61C28.5099 231.68 28.3399 230.75 28.1899 229.81C28.0699 229.79 27.9699 229.69 27.9999 229.57C27.1299 228.99 26.3499 228.25 25.6099 227.52C25.5499 227.47 25.6299 227.38 25.6899 227.43C26.4599 228.09 27.2199 228.64 28.0799 229.12C27.7699 227.19 27.5399 225.25 27.4299 223.28C27.4199 223.1 27.6899 223.1 27.7099 223.28C27.8799 225.17 28.1599 227.04 28.4799 228.9C29.3799 227.72 30.3899 226.5 30.9399 225.14C30.9699 225.07 31.0799 225.1 31.0599 225.17C30.7899 226.01 30.3299 226.75 29.8699 227.49C29.4599 228.16 29.1299 228.94 28.5999 229.53C28.7799 230.53 28.9799 231.53 29.1799 232.52C30.2799 232.34 31.2799 232.14 32.1899 231.34C33.2999 230.37 33.9299 229.05 34.0399 227.58C34.0499 227.4 34.3399 227.4 34.3199 227.58C34.1999 228.94 33.6499 230.22 32.7199 231.24C31.7399 232.31 30.5899 232.65 29.2699 232.92C29.5099 234.07 29.7599 235.22 30.0099 236.36C31.0099 235.76 31.9299 234.98 32.8299 234.27C34.2799 233.12 35.1299 231.73 36.3899 230.43C36.5199 230.3 36.7199 230.49 36.5999 230.62C35.4199 231.87 34.6299 233.23 33.2799 234.35C32.3199 235.16 31.2499 236.18 30.0999 236.77C30.1099 236.83 30.1299 236.89 30.1399 236.95C30.1499 236.96 30.1699 236.97 30.1799 236.98C30.2699 237.07 30.2599 237.16 30.2099 237.24C30.4499 238.34 30.6899 239.44 30.9299 240.54C30.9399 240.61 30.9599 240.68 30.9699 240.75C33.5299 239.58 37.3599 237.54 37.6999 234.57C37.7299 234.29 38.1499 234.37 38.0899 234.66C37.3299 238.02 33.6399 239.51 31.0899 241.35C31.3399 242.6 31.5699 243.84 31.7799 245.1C33.4299 244.53 35.0099 243.83 36.3999 242.72C37.6599 241.72 39.4499 240.5 40.0199 238.95C40.0399 238.9 40.1099 238.93 40.0899 238.98C39.5599 240.53 37.9599 241.59 36.7899 242.65C35.3099 243.99 33.7899 245.13 31.8899 245.66C31.8999 245.71 31.9099 245.77 31.8899 245.83C32.0199 246.62 32.1499 247.42 32.2699 248.21C35.3799 247.97 39.7299 245.61 41.3199 243.26C41.3299 243.25 41.3399 243.26 41.3399 243.27C40.2599 245.07 38.6199 246.12 36.7699 247.03C35.3899 247.71 33.8999 248.51 32.3399 248.63C32.5599 250.1 32.7799 251.58 32.9999 253.05C34.3499 252.55 35.7799 252.31 37.1199 251.77C39.1099 250.98 40.6199 249.55 41.7899 247.79C41.8599 247.68 42.0399 247.77 41.9699 247.88C39.8199 251.3 36.7199 252.31 33.0899 253.59C33.2699 254.8 33.4599 256.01 33.6599 257.21C36.6299 256.64 40.4699 254.83 41.9799 252.25C42.0899 252.06 42.3899 252.22 42.2799 252.41C41.3299 254.06 39.6899 255.11 38.0299 255.95C36.8299 256.56 35.1699 257.56 33.7399 257.67C33.7499 257.71 33.7499 257.75 33.7599 257.79C34.0499 259.53 34.3999 261.25 34.7699 262.97C38.0899 262.14 40.2299 259.68 42.6499 257.38C42.8199 257.22 43.0799 257.46 42.9099 257.63C40.4499 260.05 38.2899 262.59 34.8799 263.48C35.1899 264.88 35.5099 266.28 35.8499 267.67C38.6799 266.88 41.4699 264.87 43.2999 262.57C43.4299 262.41 43.6599 262.63 43.5299 262.79C41.6299 265.29 38.8899 267.18 35.9699 268.21C36.3399 269.7 36.7199 271.2 37.0999 272.69C39.9999 272.25 42.2399 270.43 44.0299 268.13C44.0699 268.08 44.1699 268.15 44.1299 268.2C42.5399 270.41 40.1399 272.96 37.2499 273.23C37.3699 273.71 37.4999 274.18 37.6199 274.66C37.6899 274.95 37.7699 275.24 37.8499 275.53C40.0399 274.89 42.0699 274.1 43.8799 272.62C43.9299 272.58 43.9899 272.66 43.9399 272.7C42.2199 274.25 40.1699 275.29 37.9699 275.96C38.2099 276.85 38.4699 277.78 38.7299 278.71C39.2699 278.46 39.7999 278.18 40.3899 278C41.4799 277.67 42.1799 276.98 43.1299 276.41C43.2199 276.36 43.3099 276.48 43.2299 276.54C42.3999 277.08 41.8099 277.78 40.8599 278.14C40.1599 278.4 39.4899 278.74 38.8099 279.04C39.8099 282.76 40.6899 286.71 40.2099 290.28C40.0999 291.07 38.7799 291.28 38.5699 290.44C37.8999 287.88 37.9299 285.12 37.6399 282.47Z" fill="#747DED"/>
<path d="M58.4198 255.06C56.4598 263.33 50.0098 275.97 59.0398 282.65C61.4698 284.45 64.9398 283.8 67.4998 282.39C70.8498 280.55 74.0898 274.86 75.6298 271.46C76.8498 268.76 77.3298 265.35 78.2898 262.51C79.3298 259.44 80.4398 256.39 81.4598 253.31C85.1298 242.21 83.7398 230.84 76.8898 221.25C74.5598 224.37 71.5598 226.53 68.5698 229.17C67.2098 230.37 65.8698 231.69 64.6998 233.08C62.6298 235.53 62.2298 238.8 61.6598 241.8C60.8198 246.24 59.4598 250.65 58.4198 255.06Z" fill="url(#paint7_linear)"/>
<path d="M60.61 283.69C60.83 283.02 61.05 282.35 61.26 281.68C60.07 281.12 59.14 279.87 58.38 278.88C57.06 277.17 56.26 275.22 55.53 273.21C55.49 273.1 55.67 273.04 55.72 273.14C56.55 274.92 57.44 276.68 58.71 278.19C59.42 279.03 60.42 280.33 61.47 280.98C61.72 280.18 61.95 279.37 62.18 278.56C61.01 277.83 60.25 276.48 59.49 275.37C58.2 273.48 57.3 271.39 56.32 269.32C56.31 269.3 56.34 269.28 56.36 269.3C57.97 272.21 59.52 275.99 62.34 277.98C62.62 276.96 62.88 275.94 63.12 274.91C63.13 274.86 63.14 274.8 63.16 274.75C60.01 272.19 58.9 268.26 57.22 264.73C57.19 264.67 57.28 264.62 57.31 264.68C59.03 268.02 60.45 271.59 63.3 274.15C63.63 272.68 63.95 271.21 64.27 269.74C61.59 267.05 59.9 263.95 58.87 260.27C58.85 260.21 58.94 260.17 58.96 260.24C60.16 263.76 62.09 266.35 64.41 269.12C64.72 267.66 65.04 266.21 65.38 264.76C64.3 263.42 63.03 262.32 62.16 260.82C61.3 259.34 60.65 257.74 60.45 256.03C60.44 255.94 60.57 255.92 60.59 256.01C61.19 259.45 63.54 261.53 65.53 264.12C65.85 262.77 66.18 261.42 66.55 260.08C64.37 257.1 61.88 254.12 61.66 250.25C61.66 250.21 61.71 250.2 61.72 250.24C62.16 253.9 64.67 256.56 66.74 259.41C66.81 259.17 66.87 258.93 66.94 258.69C67.3 257.45 67.67 256.22 68.04 254.99C66.67 253.53 65.51 251.83 64.45 250.13C63.7 248.93 62.87 247.7 62.68 246.27C62.67 246.18 62.8 246.16 62.82 246.25C63.34 249.24 66.18 252.14 68.2 254.46C68.58 253.22 68.96 251.98 69.33 250.73C67.3 247.71 64.42 245.21 64.11 241.32C64.1 241.2 64.27 241.18 64.29 241.3C64.78 244.95 67.55 247.29 69.5 250.15C69.73 249.38 69.96 248.61 70.19 247.84C67.66 245.3 65.3 241.09 64.98 237.59C64.96 237.4 65.25 237.36 65.28 237.55C65.79 240.73 67.87 244.9 70.37 247.23C70.73 245.98 71.09 244.72 71.42 243.46C71.41 243.42 71.41 243.38 71.42 243.34C70.24 242.3 69.33 240.7 68.49 239.42C67.47 237.88 66.59 236.22 66.38 234.36C66.36 234.15 66.68 234.13 66.7 234.33C66.93 237.38 69.39 240.5 71.62 242.66C71.74 242.2 71.86 241.74 71.97 241.27C72.14 240.58 72.31 239.88 72.47 239.19C71.73 237.93 70.51 236.93 69.79 235.62C69.16 234.49 68.72 233.27 68.29 232.04C68.25 231.92 68.43 231.84 68.48 231.97C69.1 233.52 69.77 235.05 70.78 236.39C71.34 237.14 72.09 237.77 72.62 238.55C72.89 237.41 73.16 236.28 73.44 235.15C73.43 235.14 73.42 235.13 73.41 235.12C73.4 235.12 73.38 235.11 73.37 235.11C73.29 235.09 73.24 235.03 73.22 234.97C71.91 233.91 71.37 232.1 70.88 230.55C70.87 230.51 70.92 230.49 70.94 230.53C71.54 231.98 72.22 233.6 73.43 234.67C73.44 234.67 73.44 234.67 73.45 234.67C73.49 234.68 73.53 234.69 73.56 234.7C73.79 233.78 74.03 232.86 74.28 231.95C74.18 231.88 74.13 231.75 74.21 231.65C73.67 230.76 73.27 229.75 72.91 228.78C72.88 228.71 72.99 228.66 73.02 228.73C73.44 229.65 73.89 230.47 74.48 231.27C75.02 229.39 75.62 227.53 76.35 225.7C76.42 225.53 76.67 225.65 76.61 225.81C75.97 227.59 75.43 229.41 74.94 231.23C76.26 230.54 77.68 229.86 78.75 228.86C78.81 228.81 78.89 228.88 78.84 228.94C78.24 229.59 77.51 230.06 76.78 230.54C76.12 230.97 75.5 231.54 74.77 231.86C74.51 232.84 74.27 233.83 74.04 234.82C75.11 235.12 76.11 235.36 77.26 235.02C78.67 234.61 79.8 233.68 80.52 232.39C80.61 232.23 80.87 232.35 80.77 232.51C80.08 233.69 79.05 234.63 77.78 235.15C76.44 235.7 75.25 235.53 73.94 235.22C73.67 236.36 73.41 237.51 73.16 238.65C74.31 238.53 75.48 238.21 76.6 237.94C78.4 237.5 79.76 236.61 81.45 235.96C81.62 235.9 81.73 236.15 81.56 236.22C79.96 236.86 78.67 237.75 76.98 238.21C75.76 238.54 74.37 239.01 73.07 239.07C73.06 239.13 73.04 239.19 73.03 239.25C73.04 239.27 73.04 239.28 73.05 239.3C73.09 239.42 73.04 239.5 72.96 239.54C72.72 240.64 72.47 241.74 72.22 242.83C72.2 242.9 72.19 242.97 72.17 243.04C74.99 243.06 79.32 242.83 80.88 240.28C81.03 240.04 81.38 240.29 81.2 240.52C79.09 243.25 75.11 243.04 72.03 243.63C71.73 244.86 71.41 246.09 71.08 247.32C72.82 247.5 74.54 247.53 76.27 247.11C77.84 246.73 79.97 246.39 81.14 245.22C81.18 245.18 81.23 245.24 81.19 245.28C80.06 246.46 78.16 246.75 76.65 247.21C74.74 247.8 72.89 248.19 70.94 247.87C70.93 247.93 70.91 247.98 70.87 248.02C70.65 248.79 70.43 249.57 70.21 250.34C73.13 251.44 78.07 251.13 80.51 249.67C80.52 249.66 80.53 249.68 80.52 249.69C78.78 250.86 76.85 251.12 74.79 251.17C73.25 251.2 71.56 251.3 70.09 250.75C69.67 252.18 69.25 253.61 68.82 255.03C70.26 255.14 71.65 255.53 73.09 255.61C75.23 255.73 77.2 255.07 79 253.98C79.11 253.91 79.23 254.07 79.12 254.14C75.72 256.34 72.49 255.94 68.66 255.57C68.31 256.74 67.98 257.92 67.65 259.09C70.58 259.83 74.83 259.81 77.28 258.1C77.46 257.97 77.67 258.24 77.49 258.37C75.93 259.47 74.01 259.73 72.14 259.79C70.79 259.83 68.87 260.05 67.53 259.54C67.52 259.58 67.51 259.62 67.5 259.66C67.03 261.36 66.62 263.07 66.23 264.78C69.59 265.42 72.57 264.1 75.73 263.03C75.95 262.96 76.08 263.29 75.86 263.37C72.61 264.53 69.58 265.91 66.11 265.28C65.8 266.68 65.5 268.08 65.22 269.49C68.12 269.97 71.5 269.33 74.13 268.01C74.32 267.92 74.43 268.21 74.25 268.31C71.47 269.77 68.19 270.33 65.11 270.03C64.81 271.54 64.53 273.05 64.25 274.57C67.07 275.39 69.86 274.69 72.46 273.36C72.52 273.33 72.58 273.43 72.52 273.47C70.15 274.8 66.89 276.1 64.16 275.13C64.07 275.61 63.98 276.1 63.89 276.58C63.84 276.87 63.78 277.17 63.73 277.47C65.99 277.81 68.16 277.95 70.42 277.38C70.48 277.36 70.5 277.46 70.44 277.48C68.23 278.16 65.93 278.23 63.65 277.92C63.49 278.83 63.34 279.78 63.17 280.73C63.77 280.73 64.36 280.7 64.98 280.79C66.11 280.95 67.04 280.63 68.14 280.51C68.24 280.5 68.28 280.65 68.17 280.67C67.19 280.81 66.36 281.2 65.35 281.12C64.6 281.06 63.86 281.09 63.11 281.08C62.44 284.87 61.58 288.83 59.63 291.87C59.2 292.54 57.91 292.17 58.08 291.32C58.57 288.71 59.76 286.21 60.61 283.69Z" fill="#747DED"/>
<path d="M39.33 248.64C38.86 259.15 33.94 276.01 46.48 282.04C49.86 283.66 53.92 282.07 56.7 279.76C60.34 276.75 62.97 269.08 64.05 264.59C64.91 261.03 64.7 256.77 65.21 253.09C65.77 249.12 66.4 245.15 66.93 241.18C68.82 226.84 64.5 213.33 53.95 203.27C51.84 207.6 48.69 210.92 45.67 214.83C44.29 216.61 42.97 218.52 41.87 220.48C39.92 223.94 40.19 228 40.2 231.79C40.2 237.38 39.58 243.05 39.33 248.64Z" fill="url(#paint8_linear)"/>
<path d="M48.6299 282.95C48.7499 282.09 48.8599 281.22 48.9599 280.36C47.3799 279.96 45.9599 278.64 44.8099 277.62C42.8099 275.85 41.3799 273.67 40.0399 271.39C39.9699 271.27 40.1699 271.15 40.2499 271.26C41.6699 273.23 43.1699 275.16 45.0599 276.71C46.1099 277.57 47.6299 278.92 49.0599 279.47C49.1699 278.43 49.2699 277.4 49.3599 276.36C47.7699 275.74 46.5299 274.28 45.3499 273.1C43.3399 271.1 41.7599 268.77 40.0999 266.48C40.0799 266.45 40.1199 266.42 40.1399 266.45C42.7699 269.61 45.5299 273.85 49.4199 275.61C49.5199 274.31 49.5999 273 49.6599 271.7C49.6599 271.63 49.6599 271.56 49.6699 271.5C45.2499 269.11 42.9899 264.6 40.1299 260.69C40.0799 260.63 40.1699 260.54 40.2199 260.61C43.0799 264.28 45.6299 268.28 49.6999 270.73C49.7699 268.86 49.8099 267 49.8599 265.14C45.9799 262.48 43.1999 259.12 41.0999 254.87C41.0599 254.8 41.1699 254.74 41.2099 254.81C43.4899 258.81 46.4299 261.52 49.8799 264.34C49.9299 262.5 49.9699 260.65 50.0399 258.81C48.4199 257.43 46.6199 256.39 45.2099 254.76C43.8199 253.16 42.6699 251.37 42.0299 249.34C41.9999 249.23 42.1599 249.18 42.1899 249.29C43.7099 253.33 47.0499 255.31 50.0799 258C50.1499 256.28 50.2499 254.57 50.3799 252.85C47.0399 249.73 43.3199 246.68 42.1499 242.03C42.1399 241.98 42.2099 241.96 42.2199 242.01C43.5999 246.36 47.2599 249.01 50.4499 252C50.4799 251.69 50.4999 251.39 50.5199 251.08C50.6699 249.5 50.8299 247.91 50.9999 246.33C48.9899 244.87 47.1899 243.07 45.5099 241.26C44.3199 239.97 43.0299 238.67 42.4599 236.97C42.4199 236.86 42.5799 236.8 42.6199 236.91C43.9499 240.42 48.0699 243.3 51.0699 245.64C51.2399 244.04 51.4099 242.45 51.5799 240.85C48.4099 237.64 44.3299 235.28 43.0599 230.62C43.0199 230.48 43.2299 230.42 43.2699 230.55C44.7099 234.87 48.6199 237.08 51.6499 240.1C51.7499 239.11 51.8599 238.12 51.9499 237.13C48.2899 234.63 44.4499 230.06 43.2399 225.87C43.1699 225.64 43.5099 225.53 43.5899 225.75C44.9499 229.5 48.4299 234.08 52.0199 236.34C52.1699 234.73 52.3099 233.13 52.4299 231.52C52.4099 231.47 52.3999 231.42 52.3999 231.37C50.7199 230.38 49.2499 228.65 47.9299 227.29C46.3399 225.65 44.8799 223.84 44.1899 221.63C44.1099 221.39 44.5099 221.28 44.5699 221.53C45.5499 225.18 49.2699 228.4 52.4799 230.52C52.5199 229.93 52.5599 229.34 52.5899 228.75C52.6399 227.87 52.6799 226.99 52.7199 226.1C51.5299 224.74 49.8199 223.8 48.6399 222.38C47.6099 221.15 46.7899 219.77 45.9899 218.38C45.9099 218.24 46.1099 218.11 46.1999 218.25C47.3099 219.99 48.4799 221.69 50.0199 223.09C50.8799 223.87 51.9399 224.46 52.7499 225.29C52.8099 223.85 52.8799 222.41 52.9599 220.96C52.9399 220.95 52.9299 220.94 52.9099 220.94C52.8899 220.94 52.8699 220.94 52.8599 220.94C52.7599 220.93 52.6799 220.88 52.6399 220.81C50.7999 219.82 49.7299 217.75 48.7799 215.98C48.7599 215.94 48.8199 215.9 48.8399 215.94C49.8999 217.57 51.1099 219.38 52.8299 220.4C52.8399 220.4 52.8399 220.4 52.8499 220.4C52.8999 220.4 52.9499 220.41 52.9999 220.41C53.0699 219.24 53.1499 218.07 53.2399 216.9C53.0999 216.84 53.0099 216.69 53.0799 216.55C52.2199 215.59 51.4999 214.46 50.8299 213.37C50.7799 213.29 50.8999 213.21 50.9499 213.29C51.6699 214.32 52.4199 215.2 53.3099 216.04C53.5299 213.63 53.8299 211.23 54.2999 208.84C54.3399 208.62 54.6699 208.7 54.6399 208.92C54.2699 211.24 54.0299 213.56 53.8599 215.9C55.2999 214.75 56.8699 213.6 57.9499 212.14C58.0099 212.06 58.1299 212.13 58.0799 212.22C57.4999 213.15 56.7199 213.89 55.9399 214.65C55.2399 215.33 54.6099 216.16 53.7999 216.72C53.7099 217.97 53.6499 219.23 53.5899 220.49C54.9599 220.61 56.2299 220.67 57.5499 219.99C59.1699 219.16 60.3299 217.77 60.9099 216.04C60.9799 215.83 61.3199 215.92 61.2499 216.13C60.6899 217.73 59.6499 219.1 58.2199 220.04C56.7199 221.02 55.2399 221.08 53.5699 221.01C53.5099 222.46 53.4599 223.91 53.4099 225.37C54.7899 224.96 56.1299 224.3 57.4299 223.71C59.5199 222.76 60.9599 221.36 62.8699 220.18C63.0599 220.06 63.2499 220.35 63.0599 220.47C61.2699 221.62 59.8999 223 57.9499 223.94C56.5499 224.62 54.9599 225.52 53.3999 225.88C53.3999 225.96 53.3999 226.03 53.3899 226.11C53.3999 226.13 53.4199 226.14 53.4299 226.16C53.5099 226.29 53.4699 226.41 53.3799 226.48C53.3399 227.87 53.2899 229.26 53.2399 230.65C53.2399 230.74 53.2299 230.82 53.2299 230.91C56.6599 230.28 61.8699 229 63.1799 225.53C63.2999 225.2 63.7899 225.42 63.6199 225.75C61.6899 229.56 56.7999 230.22 53.1899 231.65C53.1099 233.22 53.0099 234.79 52.8899 236.35C55.0499 236.17 57.1499 235.8 59.1499 234.9C60.9699 234.08 63.4799 233.17 64.6399 231.47C64.6799 231.42 64.7499 231.48 64.7199 231.53C63.6199 233.23 61.3699 234.02 59.6499 234.93C57.4699 236.09 55.2999 236.99 52.8599 237.06C52.8599 237.13 52.8499 237.2 52.8099 237.26C52.7299 238.25 52.6399 239.24 52.5399 240.23C56.3499 240.89 62.2799 239.37 64.9099 237.03C64.9199 237.02 64.9399 237.04 64.9299 237.05C63.0799 238.88 60.7999 239.64 58.3099 240.17C56.4499 240.57 54.4099 241.08 52.4999 240.75C52.3199 242.58 52.1299 244.42 51.9499 246.25C53.7199 246.06 55.5099 246.2 57.2799 245.96C59.8999 245.61 62.1599 244.36 64.0899 242.6C64.2099 242.49 64.3899 242.65 64.2699 242.77C60.6499 246.23 56.6299 246.49 51.8799 246.93C51.7299 248.43 51.5899 249.94 51.4699 251.45C55.2099 251.67 60.3699 250.66 62.9499 248.02C63.1399 247.83 63.4499 248.11 63.2599 248.3C61.6199 250 59.3399 250.75 57.0799 251.26C55.4499 251.62 53.1599 252.33 51.4099 252.02C51.4099 252.07 51.3999 252.12 51.3999 252.17C51.2299 254.34 51.1099 256.52 51.0399 258.69C55.2699 258.7 58.5899 256.4 62.1899 254.37C62.4399 254.23 62.6799 254.6 62.4299 254.75C58.7499 256.91 55.3899 259.3 51.0199 259.33C50.9599 261.1 50.9299 262.88 50.9099 264.65C54.5399 264.56 58.5099 263 61.3999 260.79C61.6099 260.63 61.8099 260.97 61.6099 261.13C58.5699 263.55 54.7099 264.99 50.8999 265.34C50.8899 267.24 50.8899 269.15 50.8999 271.05C54.5199 271.4 57.7499 269.9 60.5999 267.68C60.6699 267.63 60.7599 267.74 60.6899 267.8C58.1099 269.97 54.4599 272.3 50.9099 271.75C50.9099 272.36 50.9199 272.97 50.9199 273.57C50.9199 273.94 50.9299 274.31 50.9299 274.69C53.7499 274.58 56.4299 274.25 59.0399 273.03C59.1099 273 59.1599 273.11 59.0899 273.14C56.5599 274.47 53.7799 275.1 50.9399 275.25C50.9599 276.4 50.9899 277.58 51.0099 278.78C51.7399 278.64 52.4499 278.47 53.2199 278.43C54.6299 278.37 55.6799 277.75 56.9899 277.36C57.1099 277.32 57.1899 277.5 57.0699 277.54C55.9099 277.94 54.9899 278.6 53.7499 278.74C52.8299 278.84 51.9299 279.05 51.0199 279.2C51.0899 283.97 50.9499 288.98 49.2899 293.12C48.9199 294.04 47.2599 293.89 47.2699 292.81C47.2999 289.52 48.1799 286.21 48.6299 282.95Z" fill="#747DED"/>
<path d="M32.4098 286.89L32.8698 295.43L33.5998 308.73L34.7898 330.59H64.3798L65.5698 308.73L66.2997 295.43L66.7598 286.89H32.4098Z" fill="#95A8B5"/>
<path d="M32.8698 295.43L32.9698 297.14L33.0598 298.91L33.5998 308.73H65.5698L66.1098 298.91L66.1998 297.14L66.2998 295.43H32.8698Z" fill="#A5B7C6"/>
<path d="M32.9697 297.14L33.0597 298.91H66.1097L66.1997 297.14H32.9697Z" fill="#95A8B5"/>
<defs>
<radialGradient id="paint0_radial" cx="0" cy="0" r="1" gradientUnits="userSpaceOnUse" gradientTransform="translate(139.225 112.604) rotate(180) scale(12.9255)">
<stop stop-color="#FFC8AF"/>
<stop offset="1" stop-color="#FFBB9C"/>
</radialGradient>
<radialGradient id="paint1_radial" cx="0" cy="0" r="1" gradientUnits="userSpaceOnUse" gradientTransform="translate(146.703 89.208) rotate(-167.848) scale(20.3776)">
<stop stop-color="#FFC8AF"/>
<stop offset="1" stop-color="#FFBB9C"/>
</radialGradient>
<radialGradient id="paint2_radial" cx="0" cy="0" r="1" gradientUnits="userSpaceOnUse" gradientTransform="translate(166.782 307.773) rotate(180) scale(8.1259)">
<stop stop-color="#FFC8AF"/>
<stop offset="1" stop-color="#FFBB9C"/>
</radialGradient>
<radialGradient id="paint3_radial" cx="0" cy="0" r="1" gradientUnits="userSpaceOnUse" gradientTransform="translate(218.246 309.811) rotate(180) scale(7.4015)">
<stop stop-color="#FFC8AF"/>
<stop offset="1" stop-color="#FFBB9C"/>
</radialGradient>
<radialGradient id="paint4_radial" cx="0" cy="0" r="1" gradientUnits="userSpaceOnUse" gradientTransform="translate(173.184 170.923) rotate(180) scale(41.4442)">
<stop stop-color="#FFC8AF"/>
<stop offset="1" stop-color="#FFBB9C"/>
</radialGradient>
<radialGradient id="paint5_radial" cx="0" cy="0" r="1" gradientUnits="userSpaceOnUse" gradientTransform="translate(173.184 170.923) rotate(180) scale(41.444)">
<stop stop-color="#FFC8AF"/>
<stop offset="1" stop-color="#FFBB9C"/>
</radialGradient>
<linearGradient id="paint6_linear" x1="32.8753" y1="218.998" x2="32.8725" y2="282.299" gradientUnits="userSpaceOnUse">
<stop stop-color="#606BF1"/>
<stop offset="1" stop-color="#58479F"/>
</linearGradient>
<linearGradient id="paint7_linear" x1="83.0842" y1="224.138" x2="56.3648" y2="281.522" gradientUnits="userSpaceOnUse">
<stop stop-color="#606BF1"/>
<stop offset="1" stop-color="#58479F"/>
</linearGradient>
<linearGradient id="paint8_linear" x1="62.157" y1="205.345" x2="42.9632" y2="281.295" gradientUnits="userSpaceOnUse">
<stop stop-color="#606BF1"/>
<stop offset="1" stop-color="#58479F"/>
</linearGradient>
</defs>
</svg>
